<svg version="1.1" xmlns="http://www.w3.org/2000/svg" xmlns:xlink="http://www.w3.org/1999/xlink" width="90" height="134" viewBox="0,0,90,134"><g transform="translate(-226.5,-78)"><g data-paper-data="{&quot;isPaintingLayer&quot;:true}" fill-rule="nonzero" stroke-linecap="butt" stroke-linejoin="miter" stroke-miterlimit="10" stroke-dasharray="" stroke-dashoffset="0" style="mix-blend-mode: normal"><path d="M248.25195,180v-71.09375h20.06836c6.1849,0 11.65365,1.36719 16.40625,4.10156c4.7526,2.73438 8.42285,6.62435 11.01074,11.66992c2.58789,5.04557 3.89811,10.83984 3.93066,17.38281v4.54102c0,6.70573 -1.29395,12.58138 -3.88184,17.62695c-2.58789,5.04557 -6.28255,8.91927 -11.08398,11.62109c-4.80143,2.70182 -10.39225,4.08529 -16.77246,4.15039zM257.62695,116.62109v55.71289h9.86328c7.22656,0 12.84993,-2.24609 16.87012,-6.73828c4.02018,-4.49219 6.03027,-10.88867 6.03027,-19.18945v-4.15039c0,-8.07292 -1.89616,-14.34733 -5.68848,-18.82324c-3.79232,-4.47591 -9.17155,-6.74642 -16.1377,-6.81152z" fill="#ff0000" stroke="none" stroke-width="1"/><path d="M226.5,212v-134h90v134z" fill="none" stroke="#000000" stroke-width="0"/></g></g></svg>