<svg version="1.1" xmlns="http://www.w3.org/2000/svg" xmlns:xlink="http://www.w3.org/1999/xlink" width="90" height="134" viewBox="0,0,90,134"><g transform="translate(-226.5,-78)"><g data-paper-data="{&quot;isPaintingLayer&quot;:true}" fill-rule="nonzero" stroke-linecap="butt" stroke-linejoin="miter" stroke-miterlimit="10" stroke-dasharray="" stroke-dashoffset="0" style="mix-blend-mode: normal"><path d="M244.44336,153.0957c0,-5.17578 1.01725,-9.83073 3.05176,-13.96484c2.03451,-4.13411 4.86654,-7.32422 8.49609,-9.57031c3.62956,-2.24609 7.77181,-3.36914 12.42676,-3.36914c7.19401,0 13.0127,2.49023 17.45605,7.4707c4.44336,4.98047 6.66504,11.60482 6.66504,19.87305v0.63477c0,5.14323 -0.9847,9.75749 -2.9541,13.84277c-1.9694,4.08529 -4.78516,7.26725 -8.44727,9.5459c-3.66211,2.27865 -7.86947,3.41797 -12.62207,3.41797c-7.16146,0 -12.96387,-2.49023 -17.40723,-7.4707c-4.44336,-4.98047 -6.66504,-11.57227 -6.66504,-19.77539zM253.52539,154.16992c0,5.85938 1.35905,10.56315 4.07715,14.11133c2.7181,3.54818 6.35579,5.32227 10.91309,5.32227c4.58984,0 8.23568,-1.7985 10.9375,-5.39551c2.70182,-3.59701 4.05273,-8.63444 4.05273,-15.1123c0,-5.79427 -1.37533,-10.48991 -4.12598,-14.08691c-2.75065,-3.59701 -6.40462,-5.39551 -10.96191,-5.39551c-4.45964,0 -8.05664,1.77409 -10.79102,5.32227c-2.73437,3.54818 -4.10156,8.6263 -4.10156,15.23438z" fill="#ff0000" stroke="none" stroke-width="1"/><path d="M226.5,212v-134h90v134z" fill="none" stroke="#000000" stroke-width="0"/></g></g></svg>