<svg version="1.1" xmlns="http://www.w3.org/2000/svg" xmlns:xlink="http://www.w3.org/1999/xlink" width="721.15697" height="265.41333" viewBox="0,0,721.15697,265.41333"><defs><linearGradient x1="317.76015" y1="105.40508" x2="317.5279" y2="114.69726" gradientUnits="userSpaceOnUse" id="color-1"><stop offset="0" stop-color="#000000"/><stop offset="1" stop-color="#000000" stop-opacity="0"/></linearGradient><linearGradient x1="222.36636" y1="24.91489" x2="222.36636" y2="289.42099" gradientUnits="userSpaceOnUse" id="color-2"><stop offset="0" stop-color="#bfbfbf"/><stop offset="1" stop-color="#cccccc"/></linearGradient><linearGradient x1="222.36636" y1="24.91489" x2="222.36636" y2="289.42099" gradientUnits="userSpaceOnUse" id="color-3"><stop offset="0" stop-color="#bfbfbf"/><stop offset="1" stop-color="#cccccc"/></linearGradient><linearGradient x1="222.55741" y1="25.13999" x2="222.55741" y2="289.64609" gradientUnits="userSpaceOnUse" id="color-4"><stop offset="0" stop-color="#bfbfbf"/><stop offset="1" stop-color="#cccccc"/></linearGradient><linearGradient x1="222.36636" y1="24.91489" x2="222.36636" y2="289.42099" gradientUnits="userSpaceOnUse" id="color-5"><stop offset="0" stop-color="#bfbfbf"/><stop offset="1" stop-color="#cccccc"/></linearGradient><linearGradient x1="223.18286" y1="24.23276" x2="223.18286" y2="288.73886" gradientUnits="userSpaceOnUse" id="color-6"><stop offset="0" stop-color="#bfbfbf"/><stop offset="1" stop-color="#cccccc"/></linearGradient><linearGradient x1="-19.46352" y1="274.05504" x2="-19.46352" y2="286.29352" gradientUnits="userSpaceOnUse" id="color-7"><stop offset="0" stop-color="#cc3333"/><stop offset="1" stop-color="#bf0000"/></linearGradient><linearGradient x1="128.74875" y1="94.42286" x2="128.74875" y2="199.17451" gradientUnits="userSpaceOnUse" id="color-8"><stop offset="0" stop-color="#80caff" stop-opacity="0.8"/><stop offset="1" stop-color="#80ddff" stop-opacity="0.8"/></linearGradient><linearGradient x1="315.65182" y1="94.42286" x2="315.65182" y2="199.17451" gradientUnits="userSpaceOnUse" id="color-9"><stop offset="0" stop-color="#80caff" stop-opacity="0.8"/><stop offset="1" stop-color="#80ddff" stop-opacity="0.8"/></linearGradient><linearGradient x1="223.57988" y1="215.26014" x2="223.57988" y2="220.42248" gradientUnits="userSpaceOnUse" id="color-10"><stop offset="0" stop-color="#000000"/><stop offset="1" stop-color="#000000" stop-opacity="0"/></linearGradient><linearGradient x1="93.41323" y1="150.93438" x2="93.41323" y2="227.59968" gradientUnits="userSpaceOnUse" id="color-11"><stop offset="0" stop-color="#b37d59"/><stop offset="1" stop-color="#805a40"/></linearGradient><linearGradient x1="143.67514" y1="229.67492" x2="143.67514" y2="279.83914" gradientUnits="userSpaceOnUse" id="color-12"><stop offset="0" stop-color="#b37d59"/><stop offset="1" stop-color="#805a40"/></linearGradient><linearGradient x1="143.67514" y1="228.87918" x2="143.67514" y2="232.73128" gradientUnits="userSpaceOnUse" id="color-13"><stop offset="0" stop-color="#000000"/><stop offset="1" stop-color="#000000" stop-opacity="0"/></linearGradient><linearGradient x1="91.00851" y1="229.67492" x2="91.00851" y2="279.83914" gradientUnits="userSpaceOnUse" id="color-14"><stop offset="0" stop-color="#b37d59"/><stop offset="1" stop-color="#805a40"/></linearGradient><linearGradient x1="91.00851" y1="228.87918" x2="91.00851" y2="232.73128" gradientUnits="userSpaceOnUse" id="color-15"><stop offset="0" stop-color="#000000"/><stop offset="1" stop-color="#000000" stop-opacity="0"/></linearGradient><linearGradient x1="299.44211" y1="153.79152" x2="299.44211" y2="230.45682" gradientUnits="userSpaceOnUse" id="color-16"><stop offset="0" stop-color="#b37d59"/><stop offset="1" stop-color="#805a40"/></linearGradient><linearGradient x1="246.32299" y1="229.67493" x2="246.32299" y2="279.83914" gradientUnits="userSpaceOnUse" id="color-17"><stop offset="0" stop-color="#b37d59"/><stop offset="1" stop-color="#805a40"/></linearGradient><linearGradient x1="246.32299" y1="228.87919" x2="246.32299" y2="232.73129" gradientUnits="userSpaceOnUse" id="color-18"><stop offset="0" stop-color="#000000"/><stop offset="1" stop-color="#000000" stop-opacity="0"/></linearGradient><linearGradient x1="298.98974" y1="229.67493" x2="298.98974" y2="279.83914" gradientUnits="userSpaceOnUse" id="color-19"><stop offset="0" stop-color="#b37d59"/><stop offset="1" stop-color="#805a40"/></linearGradient><linearGradient x1="298.98974" y1="228.87919" x2="298.98974" y2="232.73129" gradientUnits="userSpaceOnUse" id="color-20"><stop offset="0" stop-color="#000000"/><stop offset="1" stop-color="#000000" stop-opacity="0"/></linearGradient><linearGradient x1="-119.08499" y1="216.06283" x2="-108.49237" y2="216.06283" gradientUnits="userSpaceOnUse" id="color-21"><stop offset="0" stop-color="#cccca3"/><stop offset="1" stop-color="#ccb627"/></linearGradient><linearGradient x1="-115.30791" y1="218.78915" x2="-100.96423" y2="218.78915" gradientUnits="userSpaceOnUse" id="color-22"><stop offset="0" stop-color="#ccb310"/><stop offset="1" stop-color="#cca123"/></linearGradient><linearGradient x1="526.7723" y1="214.75848" x2="537.36493" y2="214.75848" gradientUnits="userSpaceOnUse" id="color-23"><stop offset="0" stop-color="#ffffcc"/><stop offset="1" stop-color="#ffe530"/></linearGradient><linearGradient x1="530.54941" y1="217.4848" x2="544.89307" y2="217.4848" gradientUnits="userSpaceOnUse" id="color-24"><stop offset="0" stop-color="#ffe115"/><stop offset="1" stop-color="#ffca2b"/></linearGradient><linearGradient x1="478.16918" y1="274.05503" x2="478.16918" y2="286.29352" gradientUnits="userSpaceOnUse" id="color-25"><stop offset="0" stop-color="#cc3333"/><stop offset="1" stop-color="#bf0000"/></linearGradient></defs><g transform="translate(126.34136,-24.23276)"><g data-paper-data="{&quot;isPaintingLayer&quot;:true}" fill-rule="nonzero" stroke-linejoin="miter" stroke-dasharray="" stroke-dashoffset="0" style="mix-blend-mode: normal"><path d="M310.18728,112.13098c0,-4.13685 3.35358,-7.49043 7.49043,-7.49043c4.13685,0 7.49043,3.35358 7.49043,7.49043c0,4.13685 -3.35358,7.49043 -7.49043,7.49043c-4.13685,0 -7.49043,-3.35358 -7.49043,-7.49043z" fill="#cccccc" stroke="none" stroke-width="0" stroke-linecap="butt" stroke-miterlimit="10"/><path d="M310.02725,114.50979l0.23225,-9.29217l15.00131,0.37495l-0.23225,9.29218z" data-paper-data="{&quot;index&quot;:null}" fill="url(#color-1)" stroke="none" stroke-width="0" stroke-linecap="butt" stroke-miterlimit="10"/><path d="M310.15934,160.62511v-49.17409h15.006v49.17409z" data-paper-data="{&quot;index&quot;:null}" fill="#cccccc" stroke="none" stroke-width="0" stroke-linecap="butt" stroke-miterlimit="10"/><path d="M264.60913,110.75923v-49h107v49z" fill="#d8d8d8" stroke="none" stroke-width="0" stroke-linecap="butt" stroke-miterlimit="10"/><g data-paper-data="{&quot;index&quot;:null}" stroke="none" stroke-linecap="butt" stroke-miterlimit="10"><path d="M541.51591,158.54956h53.2997v123.45642h-53.2997z" fill="#2e385a" stroke-width="0.39947"/><g fill="none" stroke-width="1" font-family="sans-serif" font-weight="normal" font-size="12" text-anchor="start"/></g><g stroke="none" stroke-width="0.71932" stroke-linecap="butt"><g><g fill="#ffffff" stroke-miterlimit="10"><path d="M359.04787,200.01615v-21.48022h21.48022v21.48022z"/></g><g fill="#f5f5f5" stroke-miterlimit="4"><path d="M380.52809,200.01615h-21.48022v-21.48022c21.48022,21.48022 0,0 21.48022,21.48022z"/></g></g><g><g fill="#c87137" stroke-miterlimit="10"><path d="M337.56767,178.53593v-21.48022h21.48021v21.48022z"/></g><g fill="#a05a2c" stroke-miterlimit="4"><path d="M359.04787,178.53593h-21.48021v-21.48022c21.48022,21.48022 0,0 21.48021,21.48022z"/></g></g><g><g fill="#c87137" stroke-miterlimit="10"><path d="M316.08744,178.53593v-21.48022h21.48022v21.48022z"/></g><g fill="#a05a2c" stroke-miterlimit="4"><path d="M337.56767,178.53593h-21.48022v-21.48022c21.48022,21.48022 0,0 21.48022,21.48022z"/></g></g><g><g fill="#c87137" stroke-miterlimit="10"><path d="M294.60722,178.53593v-21.48022h21.48022v21.48022z"/></g><g fill="#a05a2c" stroke-miterlimit="4"><path d="M316.08744,178.53593h-21.48022v-21.48022c21.48022,21.48022 0,0 21.48022,21.48022z"/></g></g><g><g fill="#c87137" stroke-miterlimit="10"><path d="M273.12694,178.53593v-21.48022h21.48021v21.48022z"/></g><g fill="#a05a2c" stroke-miterlimit="4"><path d="M294.60722,178.53593h-21.48021v-21.48022c21.48022,21.48022 0,0 21.48021,21.48022z"/></g></g><g><g fill="#ffffff" stroke-miterlimit="10"><path d="M316.08744,200.01615v-21.48022h21.48022v21.48022z"/></g><g fill="#f5f5f5" stroke-miterlimit="4"><path d="M337.56767,200.01615h-21.48022v-21.48022c21.48022,21.48022 0,0 21.48022,21.48022z"/></g></g><g><g fill="#ffffff" stroke-miterlimit="10"><path d="M337.56767,200.01615v-21.48022h21.48021v21.48022z"/></g><g fill="#f5f5f5" stroke-miterlimit="4"><path d="M359.04787,200.01615h-21.48021v-21.48022c21.48022,21.48022 0,0 21.48021,21.48022z"/></g></g><g><g fill="#ffffff" stroke-miterlimit="10"><path d="M273.12694,200.01615v-21.48022h21.48021v21.48022z"/></g><g fill="#f5f5f5" stroke-miterlimit="4"><path d="M294.60722,200.01615h-21.48021v-21.48022c21.48022,21.48022 0,0 21.48021,21.48022z"/></g></g><g><g fill="#ffffff" stroke-miterlimit="10"><path d="M294.60722,200.01615v-21.48022h21.48022v21.48022z"/></g><g fill="#f5f5f5" stroke-miterlimit="4"><path d="M316.08744,200.01615h-21.48022v-21.48022c21.48022,21.48022 0,0 21.48022,21.48022z"/></g></g><g><g fill="#ffffff" stroke-miterlimit="10"><path d="M251.64666,200.01615v-21.48022h21.48022v21.48022z"/></g><g fill="#f5f5f5" stroke-miterlimit="4"><path d="M273.12694,200.01615h-21.48022v-21.48022c21.48022,21.48022 0,0 21.48022,21.48022z"/></g></g><g><g fill="#c87137" stroke-miterlimit="10"><path d="M359.04787,178.53593v-21.48022h21.48022v21.48022z"/></g><g fill="#a05a2c" stroke-miterlimit="4"><path d="M380.52809,178.53593h-21.48022v-21.48022c21.48022,21.48022 0,0 21.48022,21.48022z"/></g></g><g><g fill="#c87137" stroke-miterlimit="10"><path d="M251.64666,178.53593v-21.48022h21.48022v21.48022z"/></g><g fill="#a05a2c" stroke-miterlimit="4"><path d="M273.12694,178.53593h-21.48022v-21.48022c21.48022,21.48022 0,0 21.48022,21.48022z"/></g></g></g><path d="M440.68824,289.42099l-0.1043,-264.5061c0,0 113.30244,92.48938 113.30244,108.48556c0,42.32193 -0.5,156.02054 -0.5,156.02054z" fill="url(#color-2)" stroke="none" stroke-width="0" stroke-linecap="butt" stroke-miterlimit="10"/><path d="M-102.75566,289.42099c0,0 1.10211,-137.90142 1.10211,-178.54162c0,-14.16562 105.80244,-85.96448 105.80244,-85.96448l0.26437,264.5061z" fill="url(#color-3)" stroke="none" stroke-width="0" stroke-linecap="butt" stroke-miterlimit="10"/><path d="M258.57132,288.51436l0.35601,-87.59081l113.92515,-0.35333l-1.24828,-107.25245l-110.79338,0.0408l-2.38016,-68.21858h182.34437l1.05937,264.5061z" data-paper-data="{&quot;index&quot;:null}" fill="url(#color-4)" stroke="none" stroke-width="0" stroke-linecap="butt" stroke-miterlimit="10"/><path d="M3.08942,289.42099l1.05937,-264.5061h182.34437l-2.38016,68.21858l-110.79338,-0.0408l-1.24828,107.25245l113.92515,0.35333l0.35601,87.59081z" fill="url(#color-5)" stroke="none" stroke-width="0" stroke-linecap="butt" stroke-miterlimit="10"/><path d="M183.85343,288.73886l0.19001,-264.5061h78.27871l0.39781,264.5061z" fill="url(#color-6)" stroke="none" stroke-width="0" stroke-linecap="butt" stroke-miterlimit="10"/><path d="M200.63275,174.26466l-3.76377,-64.43562l46.73851,-2.73006l3.76377,64.43562z" fill="#e6e6e6" stroke="#a7a7a7" stroke-width="0" stroke-linecap="butt" stroke-miterlimit="10"/><text transform="translate(198.99019,117.08861) rotate(-3.90017) scale(0.16003,0.16003)" font-size="40" xml:space="preserve" fill="#1b1b1b" fill-rule="nonzero" stroke="none" stroke-width="1" stroke-linecap="butt" stroke-linejoin="miter" stroke-miterlimit="10" stroke-dasharray="" stroke-dashoffset="0" font-family="Sans Serif" font-weight="normal" text-anchor="start" style="mix-blend-mode: normal"><tspan x="0" dy="0">To do</tspan><tspan x="0" dy="46.15px"> </tspan><tspan x="0" dy="46.15px">Check on the</tspan><tspan x="0" dy="46.15px">wall</tspan><tspan x="0" dy="46.15px"> </tspan><tspan x="0" dy="46.15px">Make sure it</tspan><tspan x="0" dy="46.15px">is sturdy</tspan></text><path d="M217.25405,108.75926c0,-2.00331 1.62401,-3.62731 3.62731,-3.62731c2.00331,0 3.62731,1.62401 3.62731,3.62731c0,2.00331 -1.62401,3.62731 -3.62731,3.62731c-2.00331,0 -3.62731,-1.62401 -3.62731,-3.62731z" fill="#ff4848" stroke="none" stroke-width="0" stroke-linecap="butt" stroke-miterlimit="10"/><path d="M6.59307,277.83914v-95.43818h15.006v95.43818z" fill="#bfbfbf" stroke="none" stroke-width="0" stroke-linecap="butt" stroke-miterlimit="10"/><path d="M186.16148,82.97453z" fill="#ff0000" stroke="none" stroke-width="0" stroke-linecap="butt" stroke-miterlimit="10"/><path d="M6.21404,284.07163v-8.47683h430.95001v8.47683z" fill="#bfbfbf" stroke="none" stroke-width="0" stroke-linecap="butt" stroke-miterlimit="10"/><path d="M-61.15096,286.29352v-12.23848h83.37468v12.23848z" data-paper-data="{&quot;index&quot;:null}" fill="url(#color-7)" stroke="none" stroke-width="0" stroke-linecap="butt" stroke-miterlimit="10"/><path d="M-17.44155,187.50341v-12.96043h64.80219v12.96043z" fill="#bfbfbf" stroke="none" stroke-width="0" stroke-linecap="butt" stroke-miterlimit="10"/><path d="M-15.42392,171.94506l12.11683,-43.97962l13.30962,3.66694l-12.11683,43.97962z" fill="#cccccc" stroke="none" stroke-width="0" stroke-linecap="butt" stroke-miterlimit="10"/><path d="M2.58941,174.79592v-10.80432h40.81633v10.80432z" fill="#cccccc" stroke="none" stroke-width="0" stroke-linecap="butt" stroke-miterlimit="10"/><path d="M5.18849,162.9892v-10.80433h40.81633v10.80433z" fill="#cccccc" stroke="none" stroke-width="0" stroke-linecap="butt" stroke-miterlimit="10"/><path d="M7.78754,151.78271v-10.80433h28.81153v10.80433z" fill="#cccccc" stroke="none" stroke-width="0" stroke-linecap="butt" stroke-miterlimit="10"/><path d="M396.32204,276.98066v-100.43888h64.80219v100.43888z" data-paper-data="{&quot;index&quot;:null}" fill="#bfbfbf" stroke="none" stroke-width="0" stroke-linecap="butt" stroke-miterlimit="10"/><path d="M449.88302,153.84623l-45.61258,-0.71937l0.21771,-13.8038l45.61257,0.71937z" data-paper-data="{&quot;index&quot;:null}" fill="#cccccc" stroke="none" stroke-width="0" stroke-linecap="butt" stroke-miterlimit="10"/><path d="M400.27691,176.79472v-10.80433h40.81633v10.80433z" data-paper-data="{&quot;index&quot;:null}" fill="#cccccc" stroke="none" stroke-width="0" stroke-linecap="butt" stroke-miterlimit="10"/><path d="M397.67786,164.98799v-10.80432h40.81633v10.80432z" data-paper-data="{&quot;index&quot;:null}" fill="#cccccc" stroke="none" stroke-width="0" stroke-linecap="butt" stroke-miterlimit="10"/><path d="M73.92534,199.17451v-104.75165h109.64658v104.75165z" fill="url(#color-8)" stroke="#a7a7a7" stroke-width="5" stroke-linecap="butt" stroke-miterlimit="10"/><path d="M260.82849,199.17451v-104.75165h109.64658v104.75165z" fill="url(#color-9)" stroke="#a7a7a7" stroke-width="5" stroke-linecap="butt" stroke-miterlimit="10"/><g stroke="none" stroke-width="0" stroke-linecap="butt" stroke-miterlimit="10"><path d="M215.47663,283.55343v-67.22689h16.20648v67.22689z" fill="#804419"/><path d="M215.47663,220.42248v-5.16233h16.20648v5.16233z" fill="url(#color-10)"/><path d="M268.29778,197.11885v20.40816h-88.83553v-20.40816z" fill="#b36025"/></g><path d="M102.68313,150.93438v76.6653h-18.53981v-76.6653z" fill="url(#color-11)" stroke="none" stroke-width="0" stroke-linecap="butt" stroke-miterlimit="10"/><g stroke="none" stroke-width="0" stroke-linecap="butt" stroke-miterlimit="10"><path d="M135.57191,279.83914v-50.16422h16.20648v50.16422z" fill="url(#color-12)"/><path d="M135.57191,232.73128v-3.8521h16.20648v3.8521z" fill="url(#color-13)"/></g><g stroke="none" stroke-width="0" stroke-linecap="butt" stroke-miterlimit="10"><path d="M82.9052,279.83914v-50.16422h16.20648v50.16422z" fill="url(#color-14)"/><path d="M82.9052,232.73128v-3.8521h16.20648v3.8521z" fill="url(#color-15)"/></g><path d="M154.75018,221.45219v14.07483h-74.5022v-14.07483z" fill="#b37e59" stroke="none" stroke-width="0" stroke-linecap="butt" stroke-miterlimit="10"/><path d="M308.712,153.79152v76.6653h-18.53981v-76.6653z" fill="url(#color-16)" stroke="none" stroke-width="0" stroke-linecap="butt" stroke-miterlimit="10"/><g data-paper-data="{&quot;index&quot;:null}" stroke="none" stroke-width="0" stroke-linecap="butt" stroke-miterlimit="10"><path d="M238.21974,279.83914v-50.16421h16.20648v50.16421z" fill="url(#color-17)"/><path d="M238.21974,232.73129v-3.8521h16.20648v3.8521z" fill="url(#color-18)"/></g><g data-paper-data="{&quot;index&quot;:null}" stroke="none" stroke-width="0" stroke-linecap="butt" stroke-miterlimit="10"><path d="M290.88642,279.83914v-50.16421h16.20648v50.16421z" fill="url(#color-19)"/><path d="M290.88642,232.73129v-3.8521h16.20648v3.8521z" fill="url(#color-20)"/></g><g stroke="none" stroke-linecap="butt" stroke-miterlimit="10"><path d="M-95.34135,159.85391h44.2997v123.45642h-44.2997z" fill="#7f5a40" stroke-width="0.39947"/><g fill="none" stroke-width="1" font-family="sans-serif" font-weight="normal" font-size="12" text-anchor="start"/></g><path d="M310.10733,221.45219v14.07483h-74.5022v-14.07483z" data-paper-data="{&quot;index&quot;:null}" fill="#b27f5a" stroke="none" stroke-width="0" stroke-linecap="butt" stroke-miterlimit="10"/><g stroke="none" stroke-miterlimit="10"><path d="M-126.34135,159.85391h65.2997v123.45642h-65.2997z" fill="#b37f5a" stroke-width="0.39947" stroke-linecap="butt"/><path d="M-119.74195,167.03483l51.73996,-0.70652l-0.65218,17.1347l-51.35952,0.97826z" fill="#ffffcc" stroke-width="0.56488" stroke-linecap="butt"/><path d="M-118.72177,259.57684l52.54322,0.16304l-0.27173,14.97929h-52.27148z" fill="#ffffcc" stroke-width="0.39947" stroke-linecap="butt"/><g><path d="M-119.08499,216.06283l10.59262,0.60891v17.65488h-8.52273z" fill="url(#color-21)" stroke-width="0.4767" stroke-linecap="round"/><path d="M-115.30791,218.78915h14.34366v6.94017h-14.34366z" fill="url(#color-22)" stroke-width="0.16947" stroke-linecap="butt"/><path d="M-115.58072,227.15658l4.13979,0.24316v5.47919h-3.04405z" fill="#8b7531" stroke-width="0.4767" stroke-linecap="round"/></g></g><g data-paper-data="{&quot;index&quot;:null}" stroke="none" stroke-miterlimit="10"><path d="M519.51591,158.54956h65.2997v123.45642h-65.2997z" fill="#1f263d" stroke-width="0.39947" stroke-linecap="butt"/><path d="M526.11538,173.33918h22.44648v38.87383h-22.44648z" fill="#ffffcc" stroke-width="0.56488" stroke-linecap="butt"/><path d="M552.64343,173.425h25.50739v55.09633h-25.50739z" fill="#ffffcc" stroke-width="0.39947" stroke-linecap="butt"/><path d="M527.13555,235.66379h23.46713v37.75102h-23.46713z" fill="#ffffcc" stroke-width="0.39947" stroke-linecap="butt"/><path d="M554.1759,232.60288h23.46662v18.36545h-23.46662z" fill="#ffffcc" stroke-width="0.39947" stroke-linecap="butt"/><path d="M555.1976,254.82409h23.46662v18.36545h-23.46662z" fill="#ffffcc" stroke-width="0.39947" stroke-linecap="butt"/><g><path d="M526.7723,214.75848l10.59262,0.60891v17.65488h-8.52273z" fill="url(#color-23)" stroke-width="0.4767" stroke-linecap="round"/><path d="M530.54941,217.4848h14.34366v6.94017h-14.34366z" fill="url(#color-24)" stroke-width="0.16947" stroke-linecap="butt"/><path d="M530.27667,225.85223l4.13979,0.24316v5.47919h-3.04405z" fill="#9c7b1a" stroke-width="0.4767" stroke-linecap="round"/></g></g><path d="M436.48186,286.29352v-12.23849h83.37468v12.23849z" fill="url(#color-25)" stroke="none" stroke-width="0" stroke-linecap="butt" stroke-miterlimit="10"/><path d="M401.75959,242.52711v-28.10233h8.69148v28.10233z" data-paper-data="{&quot;index&quot;:null}" fill="#cccccc" stroke="none" stroke-width="0" stroke-linecap="butt" stroke-miterlimit="10"/><path d="M234.64275,129.01927c0.2055,1.23299 -1.02749,1.43849 -1.02749,1.43849l-0.92198,0.15178c-6.3222,0.69346 -12.80441,-0.13645 -19.14339,-0.13477c-4.35546,0.00116 -8.50304,-0.27497 -12.48003,1.71948c0,0 -1.11804,0.55902 -1.67706,-0.55901c-0.55901,-1.11803 0.55902,-1.67705 0.55902,-1.67705c9.67424,-4.82394 22.09916,-0.66511 32.46538,-1.83336l0.78706,-0.13306c0,0 1.23299,-0.20549 1.43849,1.0275z" fill="#ff0000" stroke="none" stroke-width="0.5" stroke-linecap="butt" stroke-miterlimit="10"/><path d="M213.72408,135.77607c0,1.25 -1.25,1.25 -1.25,1.25h-0.14242c-3.49193,-0.00551 -7.59418,0.04978 -10.97998,0.82475c0,0 -1.22024,0.27116 -1.4914,-0.94907c-0.27116,-1.22024 0.94907,-1.4914 0.94907,-1.4914c3.60127,-0.78084 7.82157,-0.87904 11.52231,-0.88428h0.14242c0,0 1.25,0 1.25,1.25z" fill="#ff0000" stroke="none" stroke-width="0.5" stroke-linecap="butt" stroke-miterlimit="10"/><path d="M239.07477,150.44529c0,1.25 -1.25,1.25 -1.25,1.25h-0.42726c-10.75706,0 -22.87279,-1.52042 -33.21573,1.92973c0,0 -1.18585,0.39529 -1.58113,-0.79057c-0.39529,-1.18586 0.79056,-1.58114 0.79056,-1.58114c10.62414,-3.53889 22.96086,-2.05802 34.0063,-2.05802h0.42726c0,0 1.25,0 1.25,1.25z" fill="#ff0000" stroke="none" stroke-width="0.5" stroke-linecap="butt" stroke-miterlimit="10"/><path d="M227.34827,157.65012c0.3434,1.20191 -0.8585,1.54531 -0.8585,1.54531l-1.34034,0.33293c-7.31038,-0.00408 -14.55249,1.2686 -21.7902,1.28178c0,0 -1.25,0 -1.25,-1.25c0,-1.25 1.25,-1.25 1.25,-1.25c2.46553,0.00504 4.81323,-0.52188 7.23541,-0.84285c4.73048,-0.62685 9.79384,-0.43644 14.55479,-0.43893l0.65354,-0.23674c0,0 1.2019,-0.3434 1.5453,0.8585z" fill="#ff0000" stroke="none" stroke-width="0.5" stroke-linecap="butt" stroke-miterlimit="10"/><path d="M201.75919,141.08934c0.39832,1.28752 0.8466,2.5622 1.05805,3.82071c0,0 0.1233,0.73979 -0.6165,0.86309c-0.73979,0.1233 -0.86309,-0.61649 -0.86309,-0.61649c-0.48334,-2.92629 -1.74142,-5.49248 -1.71924,-8.52606c0.00549,-0.75084 0.12515,-2.27561 0.79515,-2.81477c1.09715,-0.8829 4.5122,-1.06186 5.67962,-0.20238c1.05737,0.77846 1.00482,2.49554 0.98679,3.61674c-1.05471,2.19576 -2.11934,2.5817 -4.04698,3.74645l-0.57596,0.21081c0,0 -0.39797,0.13266 -0.69785,-0.09809zM201.49939,140.21194c0.1217,-0.32701 0.48331,-0.44754 0.48331,-0.44754l0.27856,-0.07403c1.59256,-0.94971 2.43758,-1.07314 3.35884,-2.80484c-0.01354,-0.47972 0.02791,-1.76751 -0.43741,-2.08004c-1.16948,-0.78548 -3.81404,-0.35715 -4.07781,1.11241c-0.25899,1.44293 -0.00138,2.87574 0.3945,4.29404z" fill="#0024ff" stroke="none" stroke-width="0.5" stroke-linecap="butt" stroke-miterlimit="10"/><path d="M207.73634,138.33962c0,-0.75 0.75,-0.75 0.75,-0.75h0.14241c0.08088,0 0.16186,-0.00044 0.24291,-0.00124c0.16005,-1.09412 0.28191,-2.13765 0.44594,-2.95677c0.09377,-0.46829 0.47331,-3.07088 0.88178,-3.25389c0.54539,-0.24436 1.18499,0.3837 1.59526,0.81825c1.53641,1.62732 1.45414,4.8314 2.73372,6.73378c0.71022,1.13773 1.41556,2.3014 1.91772,3.54633l-1.30157,0.45125l-0.09114,0.10584c-0.00862,-0.02176 -0.01731,-0.04349 -0.02608,-0.0652l-0.09274,0.03215c0,0 -0.32467,-0.32467 -0.21192,-0.71997c-0.42114,-0.87743 -0.94163,-1.71734 -1.45445,-2.53679c-0.09584,-0.14489 -0.18585,-0.29121 -0.2708,-0.43884c-0.93089,-0.29952 -1.96411,-0.29011 -2.97943,-0.25407c-0.34704,1.99042 -0.84367,4.03199 -2.14065,5.37386c0,0 -0.53033,0.53033 -1.06066,0c-0.53033,-0.53033 0,-1.06066 0,-1.06066c0.97708,-0.93122 1.48074,-2.56912 1.80666,-4.27403h-0.13697c0,0 -0.75,0 -0.75,-0.75zM211.34259,135.0371c-0.04384,-0.12257 -0.16081,-0.48012 -0.28139,-0.87652c-0.12864,0.80695 -0.4892,1.71342 -0.57425,2.13866c-0.0804,0.40198 -0.15237,0.82528 -0.22354,1.26104c0.65916,-0.01109 1.31669,-0.00614 1.96328,0.06981c-0.31654,-0.84355 -0.56963,-1.71368 -0.8841,-2.59299z" fill="#0024ff" stroke="none" stroke-width="0.5" stroke-linecap="butt" stroke-miterlimit="10"/><path d="M225.53541,142.94762c-0.33541,0.67082 -1.00623,0.33541 -1.00623,0.33541l-0.47976,-0.28291c-1.13442,-1.1458 -6.59307,-3.84274 -5.71339,-5.95288c0.67034,-1.60799 7.59625,-0.65823 5.20254,-3.67874c-0.75853,-0.36486 -1.46946,-0.82583 -2.23664,-1.17211c-1.37683,-0.62146 -3.45622,-0.36651 -3.67251,1.4211c-0.31103,2.5705 1.28632,6.20567 2.23475,8.57376c0,0 0.27855,0.69635 -0.41781,0.9749c-0.69636,0.27855 -0.9749,-0.41781 -0.9749,-0.41781c-1.03607,-2.59325 -2.72163,-6.55857 -2.32268,-9.37111c0.39333,-2.77285 3.43713,-3.54297 5.72717,-2.56665c0.90574,0.38615 1.73038,0.9404 2.60563,1.39144c1.28809,1.60263 1.64158,3.21599 -0.39912,4.37594c-0.26655,0.15151 -3.17262,1.0479 -4.0918,1.12531c0.17509,0.19509 0.39433,0.52383 0.54824,0.6623c0.33611,0.30241 0.73211,0.53112 1.08801,0.80998c1.15886,0.90803 2.44102,1.73037 3.48318,2.76392l0.08992,0.00192c0,0 0.67082,0.33542 0.33541,1.00624z" fill="#0024ff" stroke="none" stroke-width="0.5" stroke-linecap="butt" stroke-miterlimit="10"/><path d="M222.28553,129.97635c-0.1819,-0.72761 0.5457,-0.90951 0.5457,-0.90951l0.51441,-0.12633c2.83074,-0.93618 5.92421,-0.92779 8.86517,-0.60358c0,0 0.74542,0.08282 0.66259,0.82823c-0.08283,0.74542 -0.82824,0.66259 -0.82824,0.66259c-1.26041,-0.14122 -2.56189,-0.22502 -3.85595,-0.18623c1.60835,3.28778 2.32191,6.66603 4.16296,9.89307l0.37581,0.49132c0,0 0.45,0.6 -0.15,1.05c-0.6,0.45 -1.05,-0.15 -1.05,-0.15l-0.4787,-0.64803c-1.89142,-3.31555 -2.61026,-6.78461 -4.29197,-10.14803c0,0 -0.08516,-0.17032 -0.08383,-0.38223c-0.97352,0.11017 -1.93178,0.30593 -2.8535,0.61592l-0.62495,0.15851c0,0 -0.7276,0.1819 -0.9095,-0.5457z" fill="#0024ff" stroke="none" stroke-width="0.5" stroke-linecap="butt" stroke-miterlimit="10"/><path d="M236.3959,142.63555c-0.73543,-0.14709 -0.58835,-0.88252 -0.58835,-0.88252l0.12786,-0.56502c0,-1.71169 0.0276,-3.38989 -0.08975,-5.07421c-0.17183,0.02242 -0.36279,0.00227 -0.57504,-0.06739c-0.83953,-0.27554 -1.85804,-4.74543 -2.36156,-5.58125c0,0 -0.38588,-0.64312 0.25724,-1.02899c0.64312,-0.38587 1.029,0.25725 1.029,0.25725c0.2893,0.48391 1.1149,1.83129 1.55491,3.0311c0.02034,-0.15588 0.0364,-0.2959 0.04393,-0.40798c0.07826,-1.16589 0.00251,-2.30169 0.14706,-3.46963l-0.00579,-0.33423c0,0 0,-0.75 0.75,-0.75c0.75,0 0.75,0.75 0.75,0.75l-0.0058,0.52028c-0.09133,0.72289 0.07623,3.26931 -0.28189,5.1035c0.33289,2.3555 0.28768,4.67183 0.28768,7.05155l-0.15699,0.85918c0,0 -0.14709,0.73544 -0.88252,0.58835z" fill="#0024ff" stroke="none" stroke-width="0.5" stroke-linecap="butt" stroke-miterlimit="10"/><path d="M240.3692,137.5128c-0.73979,0.1233 -0.86309,-0.61649 -0.86309,-0.61649l-0.15007,-0.91596c-0.00325,-2.35342 -0.32959,-4.728 -0.83922,-7.02014c0,0 -0.16269,-0.73213 0.56945,-0.89484c0.73214,-0.1627 0.89484,0.56944 0.89484,0.56944c0.5226,2.3529 0.87331,4.80539 0.86983,7.22182l0.13477,0.79308c0,0 0.1233,0.73979 -0.6165,0.86309z" fill="#0024ff" stroke="none" stroke-width="0.5" stroke-linecap="butt" stroke-miterlimit="10"/><path d="M238.92622,140.76075c0,-0.41422 0.33578,-0.75 0.75,-0.75c0.41422,0 0.75,0.33578 0.75,0.75c0,0.41422 -0.33578,0.75 -0.75,0.75c-0.41422,0 -0.75,-0.33578 -0.75,-0.75z" fill="#0024ff" stroke="none" stroke-width="0.5" stroke-linecap="butt" stroke-miterlimit="10"/><path d="M239.42929,127.08848c0,0.5999 -0.47984,0.71995 -0.6719,0.74398c-0.64107,0.40006 -1.24589,0.88478 -1.71222,1.47575c-2.45941,3.1167 -0.78244,2.93704 1.39568,4.03341l0.10663,-0.24878l0.98105,0.42045c0.27576,0.11084 0.47045,0.38077 0.47045,0.69617c0,0.41422 -0.33578,0.75 -0.75,0.75h-0.99694c-2.04674,-0.00214 -4.12894,0.04234 -6.19878,0.12587c2.71438,0.58107 6.45316,0.96334 8.76029,2.49406c0.57312,0.38025 2.01289,2.06691 2.02161,2.31923c0.02803,0.81118 -1.67844,0.93163 -2.16135,1.02868c-0.58827,0.11823 -1.25695,0.27438 -1.96888,0.4323c0.25929,0.11806 0.43954,0.37945 0.43954,0.68293c0,0.24291 -0.11549,0.45885 -0.29454,0.59591l-0.71016,0.55433c-3.7688,3.34883 -8.595,5.36865 -12.35402,8.67147c0,0 -0.56443,0.49388 -1.05831,-0.07056c-0.49388,-0.56444 0.07055,-1.05831 0.07055,-1.05831c3.39553,-2.95982 7.62049,-4.90446 11.18247,-7.6964c-1.59377,0.00673 -3.83634,-0.53383 -4.62641,-0.53383l-0.05748,-0.03142l-0.00396,0.02377l-0.84235,-0.14039c-0.36151,-0.0537 -0.63887,-0.36537 -0.63887,-0.74182c0,-0.34518 0.23319,-0.6359 0.55063,-0.72321l1.3125,-0.39375c-0.01252,0.00232 -0.02515,0.00431 -0.03788,0.006l-0.96472,0.14373l-0.03667,-0.24614c-2.26194,0.59239 -4.72121,0.21205 -7.1095,0.03362c-4.30652,-0.32175 -8.65423,-0.59376 -12.98372,-0.51984c0.45496,0.17516 0.8568,0.33335 1.12732,0.40494c4.85397,1.28447 9.83688,2.06683 14.76912,2.98086l1.29482,0.28761c0,0 0.73214,0.1627 0.56944,0.89484c-0.1627,0.73214 -0.89484,0.56945 -0.89484,0.56945l-1.26873,-0.28206c-4.47292,-0.82771 -8.93635,-1.63411 -13.36904,-2.65765c-2.02088,-0.46663 -4.15445,-0.80628 -5.8214,-1.92341l-0.13,0.21667l-0.70031,-0.42019c-0.22468,-0.12955 -0.37592,-0.37221 -0.37592,-0.65019c0,-0.40118 0.31499,-0.7288 0.71115,-0.74901l0.91853,-0.05403c3.0268,-0.17733 6.06047,-0.15081 9.09169,-0.02474c-0.73702,-0.11246 -1.47343,-0.23106 -2.20911,-0.35767c-2.58544,-0.44494 -5.08535,-0.7741 -7.38133,-1.81052l-0.08207,0.22569l-1.39325,-0.50664c-0.29657,-0.10004 -0.51013,-0.3805 -0.51013,-0.71082c0,-0.41422 0.33578,-0.75 0.75,-0.75h0.77872c5.55014,0 11.08535,0.03131 16.63239,0.22927c0.2101,0.0075 0.42498,0.0083 0.64352,0.00441c0.0065,-0.05488 0.0189,-0.10793 0.03659,-0.15852c-5.61934,-0.78682 -11.28503,-1.3998 -16.79826,-2.67208c-0.26585,-0.06926 -3.42106,-0.42088 -2.43861,-2.01388c0.29813,-0.4834 1.19204,-0.70934 2.24524,-0.80545c-0.00556,-0.07076 -0.00169,-0.14908 0.01422,-0.2357c0.13549,-0.73766 0.87315,-0.60217 0.87315,-0.60217c1.45453,0.26716 2.92187,0.55545 4.39813,0.84624c5.687,-0.05652 13.02296,-0.49859 18.20328,2.11333l0.08525,-0.20837l1.37219,0.56135c0.28194,0.10783 0.48216,0.38092 0.48216,0.70076c0,0.41422 -0.33578,0.75 -0.75,0.75h-1.06356c-6.1259,-0.00744 -12.35092,-1.2217 -18.43955,-2.41354c-0.25025,0.0007 -0.49963,0.0013 -0.74804,0.00166c-0.54282,0.00079 -1.37182,0.12528 -2.23204,0.20807c6.13398,1.27011 12.43251,1.83098 18.62079,2.82416c2.34128,-0.3975 4.95804,-0.38073 7.37057,-0.32794c-0.65265,-0.5974 -1.04593,-1.39853 -0.81287,-2.23954c0.52518,-1.89518 2.4428,-3.73644 4.03731,-4.71399l0.5308,-0.1084c0,0 0.75,0 0.75,0.75zM231.85596,140.75599c1.58566,-0.47228 3.05139,-0.39691 5.04694,-0.59978c1.16146,-0.11808 2.34222,-0.47401 3.4848,-0.70136c0.08428,-0.01677 0.21324,-0.01216 0.35194,0.00361c-0.51126,-0.27036 -0.8864,-0.78567 -1.46604,-0.98511c-1.16668,-0.40141 -2.4622,-0.68523 -3.64867,-1.0266c-1.33584,-0.38434 -2.72272,-0.63539 -4.0791,-0.93685c-0.71113,-0.1423 -1.42157,-0.26316 -2.13311,-0.36999l-0.14725,0.05123l-0.02682,-0.07708c-0.19942,-0.0293 -0.39895,-0.05756 -0.5986,-0.08492c-2.25441,0.58263 -4.63846,0.33374 -7.14333,0.24472c-3.26593,-0.11607 -6.52887,-0.15521 -9.79344,-0.16839c0.4652,0.12826 0.91246,0.24155 1.3276,0.31294c5.69334,0.97915 11.41414,1.57191 17.12761,2.38782l1.47401,0.21057c0.36929,0.04675 0.65485,0.36204 0.65485,0.74402c0,0.33254 -0.21642,0.61453 -0.5161,0.71281z" fill="#1f1f1f" stroke="none" stroke-width="0.5" stroke-linecap="butt" stroke-miterlimit="10"/><path d="M197.75051,143.02823c-0.41603,-0.62404 0.20801,-1.04006 0.20801,-1.04006l0.76046,-0.40621c1.87363,-0.20655 3.75462,-0.20338 5.63372,-0.38811c-1.75896,-0.50826 -4.81546,-1.73221 -4.57873,-2.85155c0.22518,-1.06473 4.47753,-1.28034 6.01868,-1.05753c-0.48585,-0.15527 -1.16938,-0.39423 -1.48492,-0.55197c-0.94321,-0.47154 -1.80181,-0.92962 -2.60776,-1.50843l-0.04348,0.1087l-0.69588,-0.27835c-0.28484,-0.10636 -0.48768,-0.38091 -0.48768,-0.70285c0,-0.41421 0.33579,-0.75 0.75,-0.75h0.85452v0.03257l0.0786,-0.02844c0.15754,0.03297 0.33729,0.06238 0.53121,0.09168c-0.32198,-0.29283 -0.62209,-0.61248 -0.90446,-0.97547l-0.1391,0.11592l-0.70895,-0.85074c-0.11042,-0.13061 -0.17699,-0.29949 -0.17699,-0.48392c0,-0.41421 0.33579,-0.75 0.75,-0.75h1.06355c2.41338,0.00209 4.77776,0.42799 7.19678,0.42726c0,0 0.75,0 0.75,0.75c0,0.75 -0.75,0.75 -0.75,0.75c-2.1536,-0.00063 -4.26521,-0.34053 -6.40442,-0.41356c1.05914,0.61585 2.29383,1.70006 3.08052,2.1496l0.00527,0.00672l0.00159,-0.00265l0.70031,0.42019c0.22468,0.12955 0.37592,0.37221 0.37592,0.65019c0,0.41421 -0.33579,0.75 -0.75,0.75c-0.03156,0 -0.06267,-0.00195 -0.09321,-0.00574c0.715,0.56314 1.15444,1.15759 0.94374,1.63917c-0.56148,1.28332 -3.30228,1.08795 -4.51726,1.07315c1.44132,0.47236 3.90347,1.28251 3.97777,1.96581c0.14169,1.30302 -1.43887,1.50333 -2.15997,1.72235c-2.01546,0.22772 -4.03467,0.21171 -6.04374,0.43681l-0.09406,0.16346c0,0 -0.62404,0.41603 -1.04006,-0.20801z" fill="#1f1f1f" stroke="none" stroke-width="0.5" stroke-linecap="butt" stroke-miterlimit="10"/></g></g></svg>