<svg version="1.1" xmlns="http://www.w3.org/2000/svg" xmlns:xlink="http://www.w3.org/1999/xlink" width="94.35937" height="134" viewBox="0,0,94.35937,134"><g transform="translate(-226.5,-78)"><g data-paper-data="{&quot;isPaintingLayer&quot;:true}" fill-rule="nonzero" stroke-linecap="butt" stroke-linejoin="miter" stroke-miterlimit="10" stroke-dasharray="" stroke-dashoffset="0" style="mix-blend-mode: normal"><path d="M246.78711,127.16797h8.54492l0.24414,5.85938c3.8737,-4.55729 9.09831,-6.83594 15.67383,-6.83594c7.38932,0 12.41862,2.83203 15.08789,8.49609c1.75781,-2.53906 4.0446,-4.58984 6.86035,-6.15234c2.81576,-1.5625 6.14421,-2.34375 9.98535,-2.34375c11.58854,0 17.48047,6.13607 17.67578,18.4082v35.40039h-9.0332v-34.86328c0,-3.77604 -0.86263,-6.59993 -2.58789,-8.47168c-1.72526,-1.87174 -4.6224,-2.80762 -8.69141,-2.80762c-3.35286,0 -6.13607,1.00098 -8.34961,3.00293c-2.21354,2.00195 -3.49935,4.69564 -3.85742,8.08105v35.05859h-9.08203v-34.61914c0,-7.68229 -3.75977,-11.52344 -11.2793,-11.52344c-5.92448,0 -9.97721,2.52279 -12.1582,7.56836v38.57422h-9.0332z" fill="#ff0000" stroke="none" stroke-width="1"/><path d="M226.5,212v-134h90v134z" fill="none" stroke="#000000" stroke-width="0"/></g></g></svg>