<svg version="1.1" xmlns="http://www.w3.org/2000/svg" xmlns:xlink="http://www.w3.org/1999/xlink" width="90" height="134" viewBox="0,0,90,134"><g transform="translate(-226.5,-78)"><g data-paper-data="{&quot;isPaintingLayer&quot;:true}" fill-rule="nonzero" stroke-linecap="butt" stroke-linejoin="miter" stroke-miterlimit="10" stroke-dasharray="" stroke-dashoffset="0" style="mix-blend-mode: normal"><path d="M289.02344,127.46094c0,3.54818 -0.93587,6.70573 -2.80762,9.47266c-1.87174,2.76693 -4.40267,4.93164 -7.59277,6.49414c3.71094,1.59505 6.64876,3.92253 8.81348,6.98242c2.16471,3.0599 3.24707,6.52669 3.24707,10.40039c0,6.15234 -2.0752,11.05143 -6.22559,14.69727c-4.15039,3.64583 -9.611,5.46875 -16.38184,5.46875c-6.83594,0 -12.31283,-1.83105 -16.43066,-5.49316c-4.11784,-3.66211 -6.17676,-8.55306 -6.17676,-14.67285c0,-3.84115 1.0498,-7.30794 3.14941,-10.40039c2.09961,-3.09245 5.00488,-5.4362 8.71582,-7.03125c-3.15755,-1.5625 -5.64779,-3.72721 -7.4707,-6.49414c-1.82292,-2.76693 -2.73437,-5.9082 -2.73437,-9.42383c0,-5.98958 1.92057,-10.74219 5.76172,-14.25781c3.84115,-3.51562 8.90299,-5.27344 15.18555,-5.27344c6.25,0 11.30371,1.75781 15.16113,5.27344c3.85742,3.51563 5.78613,8.26823 5.78613,14.25781zM281.65039,160.61523c0,-3.97135 -1.26139,-7.21029 -3.78418,-9.7168c-2.52279,-2.50651 -5.81868,-3.75977 -9.8877,-3.75977c-4.06901,0 -7.33236,1.23698 -9.79004,3.71094c-2.45768,2.47396 -3.68652,5.72917 -3.68652,9.76563c0,4.03646 1.19629,7.21029 3.58887,9.52148c2.39258,2.3112 5.72103,3.4668 9.98535,3.4668c4.23177,0 7.55208,-1.16374 9.96094,-3.49121c2.40885,-2.32747 3.61328,-5.49316 3.61328,-9.49707zM268.07617,115.35156c-3.54818,0 -6.4209,1.09863 -8.61816,3.2959c-2.19727,2.19727 -3.2959,5.18392 -3.2959,8.95996c0,3.61328 1.08236,6.53483 3.24707,8.76465c2.16471,2.22982 5.05371,3.34473 8.66699,3.34473c3.61328,0 6.50228,-1.11491 8.66699,-3.34473c2.16471,-2.22982 3.24707,-5.15137 3.24707,-8.76465c0,-3.61328 -1.12305,-6.55924 -3.36914,-8.83789c-2.24609,-2.27865 -5.0944,-3.41797 -8.54492,-3.41797z" fill="#ff0000" stroke="none" stroke-width="1"/><path d="M226.5,212v-134h90v134z" fill="none" stroke="#000000" stroke-width="0"/></g></g></svg>