<svg version="1.1" xmlns="http://www.w3.org/2000/svg" xmlns:xlink="http://www.w3.org/1999/xlink" width="90" height="134" viewBox="0,0,90,134"><g transform="translate(-226.5,-78)"><g data-paper-data="{&quot;isPaintingLayer&quot;:true}" fill-rule="nonzero" stroke-linecap="butt" stroke-linejoin="miter" stroke-miterlimit="10" stroke-dasharray="" stroke-dashoffset="0" style="mix-blend-mode: normal"><path d="M270.85938,197.8711c-5.76172,-1.6276 -10.09929,-4.30501 -13.0127,-8.03223c-2.91341,-3.72722 -4.37011,-8.65071 -4.37011,-14.7705v-9.7168c0,-7.91016 -3.45052,-11.86523 -10.35156,-11.86523v-7.08008c6.90104,0 10.35156,-3.9388 10.35156,-11.81641v-10.15625c0.0651,-5.95703 1.52181,-10.7666 4.37011,-14.42871c2.8483,-3.66211 7.18587,-6.32324 13.0127,-7.9834l1.85547,5.61523c-6.80338,2.18099 -10.20508,7.86133 -10.20508,17.04102v9.86328c0,7.38933 -2.7181,12.53256 -8.1543,15.42969c5.4362,2.92969 8.1543,8.12175 8.1543,15.57617v10.05859c0.09765,8.95183 3.49935,14.50196 10.20508,16.65039z" fill="#ff0000" stroke="none" stroke-width="1"/><path d="M226.5,212v-134h90v134z" fill="none" stroke="#000000" stroke-width="0"/></g></g></svg>