<svg version="1.1" xmlns="http://www.w3.org/2000/svg" xmlns:xlink="http://www.w3.org/1999/xlink" width="14.13403" height="39.113" viewBox="0,0,14.13403,39.113"><defs><linearGradient x1="313.48485" y1="213.40909" x2="313.48485" y2="264.31818" gradientUnits="userSpaceOnUse" id="color-1"><stop offset="0" stop-color="#3d8613"/><stop offset="1" stop-color="#5ecb1e"/></linearGradient><linearGradient x1="239.08525" y1="165.8692" x2="239.08525" y2="204.9822" gradientUnits="userSpaceOnUse" id="color-2"><stop offset="0" stop-color="#387c11"/><stop offset="1" stop-color="#8bc61c"/></linearGradient></defs><g transform="translate(-232.01823,-165.8692)"><g data-paper-data="{&quot;isPaintingLayer&quot;:true}" fill-rule="nonzero" stroke="none" stroke-linecap="butt" stroke-linejoin="miter" stroke-miterlimit="10" stroke-dasharray="" stroke-dashoffset="0" style="mix-blend-mode: normal"><path d="" fill="url(#color-1)" stroke-width="0"/><path d="M241.68953,204.80588c-2.01079,0.51181 -6.58614,-0.16313 -7.44168,-1.09352c-1.1191,-1.217 -1.69339,-3.21956 -2.11431,-5.07636c-0.28032,-1.23659 0.02383,-6.99369 0.14109,-8.4369c0.43638,-5.37085 0.50701,-12.61418 2.34789,-17.50468l0.55569,-4.00814c0.19851,-1.59885 1.22675,-2.81708 2.46538,-2.81708c1.38071,0 2.5,1.51375 2.5,3.38106c0,0.09983 -0.0032,0.19865 -0.00947,0.29628l-0.18468,3.247c-0.0004,5.27889 -0.20092,11.33763 1.02037,16.42602c0.77518,3.22968 2.96936,6.05492 4.53346,8.51992c0,0 1.62698,2.56709 -0.27116,4.76745c-0.27125,0.31444 -0.53697,0.53152 -0.79319,0.67265c-0.06579,0.1425 -0.14141,0.28688 -0.22777,0.43288c-0.85094,1.43854 -1.81779,1.46621 -2.52161,1.19342z" data-paper-data="{&quot;index&quot;:null}" fill="url(#color-2)" stroke-width="0.5"/></g></g></svg>