<svg version="1.1" xmlns="http://www.w3.org/2000/svg" xmlns:xlink="http://www.w3.org/1999/xlink" width="90" height="134" viewBox="0,0,90,134"><g transform="translate(-226.5,-78)"><g data-paper-data="{&quot;isPaintingLayer&quot;:true}" fill-rule="nonzero" stroke-linecap="butt" stroke-linejoin="miter" stroke-miterlimit="10" stroke-dasharray="" stroke-dashoffset="0" style="mix-blend-mode: normal"><path d="M268.75977,180.97656c-7.16146,0 -12.98828,-2.35189 -17.48047,-7.05566c-4.49219,-4.70378 -6.73828,-10.99447 -6.73828,-18.87207v-1.66016c0,-5.24089 1.00098,-9.92025 3.00293,-14.03809c2.00195,-4.11784 4.80143,-7.34049 8.39844,-9.66797c3.59701,-2.32747 7.49512,-3.49121 11.69434,-3.49121c6.86849,0 12.20703,2.26237 16.01563,6.78711c3.80859,4.52474 5.71289,11.0026 5.71289,19.43359v3.75977h-35.79102c0.13021,5.20833 1.65202,9.41569 4.56543,12.62207c2.91341,3.20638 6.61621,4.80957 11.1084,4.80957c3.1901,0 5.89193,-0.65104 8.10547,-1.95312c2.21354,-1.30208 4.15039,-3.02734 5.81055,-5.17578l5.51758,4.29688c-4.42708,6.80339 -11.06771,10.20508 -19.92187,10.20508zM267.63672,133.61328c-3.64583,0 -6.70573,1.3265 -9.17969,3.97949c-2.47396,2.65299 -4.00391,6.37207 -4.58984,11.15723h26.46484v-0.68359c-0.26042,-4.58984 -1.4974,-8.14616 -3.71094,-10.66895c-2.21354,-2.52279 -5.20833,-3.78418 -8.98437,-3.78418z" fill="#ff0000" stroke="none" stroke-width="1"/><path d="M226.5,212v-134h90v134z" fill="none" stroke="#000000" stroke-width="0"/></g></g></svg>