<svg version="1.1" xmlns="http://www.w3.org/2000/svg" xmlns:xlink="http://www.w3.org/1999/xlink" width="1072.31844" height="778.88136" viewBox="0,0,1072.31844,778.88136"><defs><linearGradient x1="240.00002" y1="288.65801" x2="240.00002" y2="569.44068" gradientUnits="userSpaceOnUse" id="color-1"><stop offset="0" stop-color="#e6e6e6" stop-opacity="0"/><stop offset="1" stop-color="#e6e6e6"/></linearGradient><linearGradient x1="240.00002" y1="-209.44069" x2="240.00002" y2="567.99807" gradientUnits="userSpaceOnUse" id="color-2"><stop offset="0" stop-color="#000000"/><stop offset="1" stop-color="#000000" stop-opacity="0.8549"/></linearGradient></defs><g transform="translate(296.15922,209.44068)"><g data-paper-data="{&quot;isPaintingLayer&quot;:true}" fill-rule="nonzero" stroke="none" stroke-width="0" stroke-linecap="butt" stroke-linejoin="miter" stroke-miterlimit="10" stroke-dasharray="" stroke-dashoffset="0" style="mix-blend-mode: normal"><path d="M-296.15922,569.44068v-280.78261h1072.31844v280.78261z" fill="url(#color-1)"/><path d="M-296.15922,567.99807v-777.43875h1072.31844v777.43875z" fill="url(#color-2)"/><path d="M-39.91107,447.62942v-369.41169h60.39156v369.4117z" fill="#252525"/><path d="M-128.28896,90.00143v-55.97268h235.67439v55.97268z" fill="#252525"/><path d="M160.86959,448.43826v-515.53771h205.50829v515.53771z" fill="#252525"/><path d="M421.24233,449.20413v-294.59298h147.29648v294.59298z" fill="#252525"/><g><path d="M181.03368,13.91361v-66.28343h44.18894v66.28343z" fill="#333333"/><path d="M239.95228,13.91361v-66.28343h44.18894v66.28343z" fill="#3f3f3f"/><path d="M298.87084,13.91361v-66.28343h44.18896v66.28343z" fill="#3f3f3f"/></g><g><path d="M181.03368,94.92666v-66.28341h44.18894v66.28341z" fill="#3f3f3f"/><path d="M239.95228,94.92666v-66.28341h44.18894v66.28343z" fill="#333333"/><path d="M298.87084,94.92666v-66.28341h44.18896v66.28343z" fill="#333333"/></g><g><path d="M181.03368,175.93974v-66.28341h44.18894v66.28341z" fill="#333333"/><path d="M239.95228,175.93974v-66.28343h44.18894v66.28343z" fill="#333333"/><path d="M298.87084,175.93974v-66.28343h44.18896v66.28343z" fill="#3f3f3f"/></g><g><path d="M181.03368,256.95282v-66.28341h44.18894v66.28341z" fill="#3f3f3f"/><path d="M239.95228,256.95282v-66.28341h44.18894v66.28341z" fill="#333333"/><path d="M298.87084,256.95282v-66.28341h44.18896v66.28341z" fill="#333333"/></g><g><path d="M181.03368,337.96588v-66.28341h44.18894v66.28341z" fill="#3f3f3f"/><path d="M239.95228,337.96588v-66.28343h44.18894v66.28343z" fill="#333333"/><path d="M298.87084,337.96588v-66.28343h44.18896v66.28343z" fill="#333333"/></g><path d="M181.03368,418.97896v-66.28343h44.18894v66.28343z" fill="#333333"/><path d="M239.95228,452.93914v-100.2436h44.18894v100.2436z" fill="#333333"/><path d="M298.87084,418.97896v-66.28343h44.18896v66.28343z" fill="#333333"/><path d="M442.22345,369.9315v-198.85027h44.18894v198.85027z" fill="#333333"/><path d="M501.14203,237.36465v-66.28343h44.18894v66.28343z" fill="#3f3f3f"/><path d="M501.14203,450.94525v-198.85025h44.18894v198.85025z" fill="#333333"/><path d="M442.22345,450.94525v-66.28341h44.18894v66.28341z" fill="#333333"/><path d="M-265.18706,440.61801v-283.39521h123.53215v283.39522z" fill="#252525"/><path d="M626.34185,446.38842v-167.98694h123.53215v167.98694z" fill="#252525"/></g></g></svg>