<svg version="1.1" xmlns="http://www.w3.org/2000/svg" xmlns:xlink="http://www.w3.org/1999/xlink" width="90" height="134" viewBox="0,0,90,134"><g transform="translate(-226.5,-78)"><g data-paper-data="{&quot;isPaintingLayer&quot;:true}" fill-rule="nonzero" stroke-linecap="butt" stroke-linejoin="miter" stroke-miterlimit="10" stroke-dasharray="" stroke-dashoffset="0" style="mix-blend-mode: normal"><path d="M292.49023,172.62695v7.37305h-46.58203v-6.49414l24.60938,-27.34375c3.64583,-4.13411 6.16048,-7.49512 7.54395,-10.08301c1.38346,-2.58789 2.0752,-5.2653 2.0752,-8.03223c0,-3.71094 -1.12305,-6.75456 -3.36914,-9.13086c-2.24609,-2.3763 -5.24089,-3.56445 -8.98437,-3.56445c-4.49219,0 -7.9834,1.27767 -10.47363,3.83301c-2.49023,2.55534 -3.73535,6.11165 -3.73535,10.66895h-9.0332c0,-6.54297 2.10775,-11.83268 6.32324,-15.86914c4.21549,-4.03646 9.85514,-6.05469 16.91895,-6.05469c6.60807,0 11.83268,1.7334 15.67383,5.2002c3.84115,3.4668 5.76172,8.08105 5.76172,13.84277c0,6.9987 -4.45964,15.33203 -13.37891,25l-19.04297,20.6543z" fill="#ff0000" stroke="none" stroke-width="1"/><path d="M226.5,212v-134h90v134z" fill="none" stroke="#000000" stroke-width="0"/></g></g></svg>