<svg version="1.1" xmlns="http://www.w3.org/2000/svg" xmlns:xlink="http://www.w3.org/1999/xlink" width="743.32176" height="453.13803" viewBox="0,0,743.32176,453.13803"><defs><radialGradient cx="356.68727" cy="286.81892" r="115.8237" gradientUnits="userSpaceOnUse" id="color-1"><stop offset="0" stop-color="#ff8b7d"/><stop offset="1" stop-color="#ff8b7d" stop-opacity="0"/></radialGradient><radialGradient cx="356.68727" cy="286.81892" r="51.24177" gradientUnits="userSpaceOnUse" id="color-2"><stop offset="0" stop-color="#ffffff"/><stop offset="1" stop-color="#ff7138"/></radialGradient><linearGradient x1="238.36458" y1="278.73323" x2="238.36458" y2="368.09144" gradientUnits="userSpaceOnUse" id="color-3"><stop offset="0" stop-color="#000427"/><stop offset="1" stop-color="#2f0065"/></linearGradient><linearGradient x1="224.12124" y1="268.063" x2="224.12124" y2="269.11256" gradientUnits="userSpaceOnUse" id="color-4"><stop offset="0" stop-color="#000000"/><stop offset="1" stop-color="#000000" stop-opacity="0"/></linearGradient><linearGradient x1="194.97627" y1="263.01348" x2="194.03544" y2="262.54838" gradientUnits="userSpaceOnUse" id="color-5"><stop offset="0" stop-color="#000000"/><stop offset="1" stop-color="#000000" stop-opacity="0"/></linearGradient><linearGradient x1="182.94079" y1="247.21832" x2="181.93219" y2="247.50865" gradientUnits="userSpaceOnUse" id="color-6"><stop offset="0" stop-color="#000000"/><stop offset="1" stop-color="#000000" stop-opacity="0"/></linearGradient><linearGradient x1="94.65832" y1="307.18411" x2="94.65832" y2="308.23367" gradientUnits="userSpaceOnUse" id="color-7"><stop offset="0" stop-color="#000000"/><stop offset="1" stop-color="#000000" stop-opacity="0"/></linearGradient><linearGradient x1="372.99943" y1="251.22356" x2="373.94026" y2="250.75846" gradientUnits="userSpaceOnUse" id="color-8"><stop offset="0" stop-color="#000000"/><stop offset="1" stop-color="#000000" stop-opacity="0"/></linearGradient><linearGradient x1="385.03491" y1="235.4284" x2="386.04351" y2="235.71873" gradientUnits="userSpaceOnUse" id="color-9"><stop offset="0" stop-color="#000000"/><stop offset="1" stop-color="#000000" stop-opacity="0"/></linearGradient><linearGradient x1="519.75552" y1="281.18116" x2="516.89933" y2="284.4821" gradientUnits="userSpaceOnUse" id="color-10"><stop offset="0" stop-color="#000000"/><stop offset="1" stop-color="#000000" stop-opacity="0"/></linearGradient><linearGradient x1="240" y1="245.14558" x2="240" y2="337.54522" gradientUnits="userSpaceOnUse" id="color-11"><stop offset="0" stop-color="#7f0000" stop-opacity="0"/><stop offset="1" stop-color="#7f0000"/></linearGradient></defs><g transform="translate(131.66089,47.00001)"><g data-paper-data="{&quot;isPaintingLayer&quot;:true}" fill-rule="nonzero" stroke-linejoin="miter" stroke-miterlimit="10" stroke-dasharray="" stroke-dashoffset="0" style="mix-blend-mode: normal"><path d="M-42.5,306.99999v-354h547v354z" fill-opacity="0.72157" fill="#000000" stroke="none" stroke-width="0" stroke-linecap="butt"/><g stroke="none" stroke-width="0" stroke-linecap="butt"><path d="M243.19861,286.81892c0,-63.96765 50.81054,-115.82367 113.48852,-115.82367c62.67802,0 113.48852,51.85602 113.48852,115.82367c0,63.96765 -50.81054,115.8237 -113.48852,115.8237c-62.67795,0 -113.48852,-51.85602 -113.48852,-115.8237z" fill="url(#color-1)"/><path d="M305.44533,286.81892c0,-28.30007 22.94173,-51.24177 51.24177,-51.24177c28.30007,0 51.2418,22.94173 51.2418,51.24177c0,28.30007 -22.94173,51.2418 -51.2418,51.2418c-28.30007,0 -51.24177,-22.94173 -51.24177,-51.2418z" fill="url(#color-2)"/></g><path d="M-123.78004,368.09144v-89.35821h724.2892v89.35821z" fill="url(#color-3)" stroke="#000000" stroke-width="0" stroke-linecap="butt"/><g stroke="none"><path d="M140.39197,317.69955l1.06353,-17.93755l4.73236,-0.53683c0,0 2.55117,1.17943 4.33861,1.31605c5.36234,0.40986 8.33988,-0.47082 8.33988,-0.47082l1.41834,7.74545l7.00618,3.79156l-0.57594,6.57512z" fill="#804040" stroke-width="0" stroke-linecap="butt"/><path d="M145.23289,310.6227c0,0 -0.56625,-2.06259 0.88431,-2.63116c1.45056,-0.56857 4.71375,-0.5565 6.62725,-0.47105c0.89503,0.03997 3.3732,-1.02643 4.57886,-1.06385c1.20566,-0.03742 2.64573,0.19632 5.43354,0.80128c1.69862,0.36861 2.93015,0.09283 3.9822,1.47644c0.71404,0.93907 1.06262,3.76907 1.06262,3.76907c0,0 -2.89799,1.0702 -5.77653,1.21062c-2.82318,0.13771 -2.57512,-1.52104 -6.52794,-2.24873c-2.30917,-0.4251 -4.79201,0.54971 -6.38041,0.41932c-1.5884,-0.1304 -3.88389,-1.26194 -3.88389,-1.26194z" fill="#804040" stroke-width="0" stroke-linecap="butt"/><path d="M140.94533,297.9455c1.30381,-0.51105 4.23688,-0.5002 5.9568,-0.4234c0.80448,0.03592 3.03194,-0.92259 4.11564,-0.95622c1.08369,-0.03364 2.37808,0.17646 4.88385,0.72022c1.52678,0.33132 2.63372,0.08344 3.57933,1.32708c0.6418,0.84407 0.95512,3.38777 0.95512,3.38777c0,0 -2.60481,0.96194 -5.19214,1.08815c-2.53757,0.12378 -2.31461,-1.36716 -5.86754,-2.02124c-2.07556,-0.3821 -4.30722,0.4941 -5.73493,0.3769c-1.42771,-0.1172 -3.49098,-1.13427 -3.49098,-1.13427c0,0 -0.50897,-1.85393 0.79485,-2.36497z" fill="#804040" stroke-width="0" stroke-linecap="butt"/><path d="M154.88171,298.98367c0,0 -2.30629,0.95679 -5.67584,0.95359c-3.56337,-0.00338 -6.51966,-0.97812 -6.51966,-0.97812l0.53047,-5.27835l3.16272,-0.31186c0,0 1.6322,0.40911 2.77578,0.4565c3.43074,0.14217 5.79924,-0.54027 5.79924,-0.54027z" fill="#804040" stroke-width="0" stroke-linecap="butt"/><path d="M152.81552,291.1707c1.78367,0.46581 3.26638,2.46164 3.26638,2.46164c0,0 -1.49601,2.12689 -2.44764,2.20502c-0.95163,0.07812 -3.04287,-1.71338 -4.42632,-1.45869c-2.36819,0.43597 -2.21958,1.42975 -3.91098,1.34724c-3.98746,-0.19451 -3.13886,-3.58267 -3.13886,-3.58267c0,0 3.21871,-0.01299 4.9095,0.03949c2.6554,0.08242 4.75764,-1.27064 5.74793,-1.01203z" data-paper-data="{&quot;index&quot;:null}" fill="#804040" stroke-width="0" stroke-linecap="butt"/><g stroke-linecap="butt"><path d="M224.12124,268.063h3.35855v1.04956h-3.35855z" fill="url(#color-4)" stroke-width="0.15952"/><path d="M223.00063,266.58888h5.54758v2.12908h-5.54758z" fill="#804040" stroke-width="0.41237"/></g><path d="M200.37262,276.68097h11.24949l-5.10554,9.70771l-1.29802,-1.12734z" fill="#804040" stroke-width="5.96727" stroke-linecap="butt"/><g fill="#804040" stroke-width="0.21955" stroke-linecap="round"><path d="M209.24685,276.62574h1.1621h1.33209l-0.55458,0.88685l-0.77751,-0.41572l-0.66328,0.41572z"/><path d="M207.12032,276.62574h1.1621h1.33206l-0.55455,0.88685l-0.77751,-0.41572l-0.66328,0.41572z"/><path d="M204.94313,276.62574h1.1621h1.33209l-0.55458,0.88685l-0.77751,-0.41572l-0.66328,0.41572z"/><path d="M202.81656,276.62574h1.1621h1.33209l-0.55458,0.88685l-0.77751,-0.41572l-0.66325,0.41572z"/></g><g fill="#804040" stroke-width="0.21955" stroke-linecap="round"><path d="M207.05701,276.65107h1.1621h1.33209l-0.55458,0.88682l-0.77751,-0.41569l-0.66325,0.41569z"/><path d="M204.93048,276.65107h1.16207h1.33209l-0.55455,0.88682l-0.77754,-0.41569l-0.66325,0.41569z"/><path d="M202.75329,276.65107h1.1621h1.33209l-0.55458,0.88682l-0.77751,-0.41569l-0.66325,0.41569z"/><path d="M200.62671,276.65107h1.1621h1.33209l-0.55458,0.88682l-0.77751,-0.41569l-0.66328,0.41569z"/></g><path d="M149.76054,269.40913h11.24949l-5.10554,9.70771l-1.29802,-1.12734z" fill="#804040" stroke-width="5.96727" stroke-linecap="butt"/><g fill="#804040" stroke-width="0.21955" stroke-linecap="round"><path d="M158.63477,269.3539h1.1621h1.33206l-0.55455,0.88685l-0.77751,-0.41572l-0.66328,0.41572z"/><path d="M156.50824,269.3539h1.1621h1.33206l-0.55455,0.88685l-0.77751,-0.41572l-0.66328,0.41572z"/><path d="M154.33105,269.3539h1.1621h1.33209l-0.55458,0.88685l-0.77751,-0.41572l-0.66328,0.41572z"/><path d="M152.20447,269.3539h1.1621h1.33209l-0.55458,0.88685l-0.77751,-0.41572l-0.66325,0.41572z"/></g><g fill="#804040" stroke-width="0.21955" stroke-linecap="round"><path d="M156.44493,269.37923h1.1621h1.33209l-0.55458,0.88682l-0.77751,-0.41569l-0.66325,0.41569z"/><path d="M154.31837,269.37923h1.16207h1.33209l-0.55455,0.88682l-0.77754,-0.41569l-0.66325,0.41569z"/><path d="M152.14116,269.37923h1.1621h1.33209l-0.55458,0.88682l-0.77751,-0.41569l-0.66325,0.41569z"/><path d="M150.01463,269.37923h1.1621h1.33209l-0.55458,0.88682l-0.77751,-0.41569l-0.66328,0.41569z"/></g><g stroke-linecap="butt"><path d="M194.25117,262.70751l-1.48834,3.01075l-5.03852,-2.49078l1.48834,-3.01075z" fill="#804040" stroke-width="0.47862"/><g><path d="M194.97627,263.01348l-1.48834,3.01075l-0.94089,-0.46511l1.48837,-3.01075z" fill="url(#color-5)" stroke-width="0.15952"/><path d="M196.79436,262.66219l-2.45844,4.97307l-1.9086,-0.94351l2.45844,-4.9731z" fill="#804040" stroke-width="0.41237"/></g><path d="M164.95429,306.039l-1.54952,-44.25505l6.33793,-2.04991c0,0 3.6816,1.0051 6.10708,0.79029c7.27644,-0.64442 10.8569,-2.318 10.8569,-2.318c0,0 8.99821,-2.96997 9.35847,-0.96123c0.30648,1.70887 -7.9565,8.77825 -7.65002,10.48712c2.00023,11.1528 6.52434,36.37814 6.52434,36.37814z" data-paper-data="{&quot;index&quot;:null,&quot;origRot&quot;:0}" fill="#804040" stroke-width="0"/><path d="M165.37851,258.44886c1.63286,-0.9704 2.61939,-0.86309 4.94103,-1.14261c1.08594,-0.13074 5.66069,-1.73932 7.10521,-2.02474c1.44451,-0.28541 13.75844,-1.08118 17.23729,-0.91299c3.47885,0.16819 2.51026,4.11515 2.51026,4.11515c0,0 -10.80792,2.99603 -13.28466,3.57262c-2.47674,0.57659 -1.44136,1.64698 -6.34792,1.56429c-4.2449,-0.07154 -2.81364,-0.09409 -3.61659,0.13321c-0.26765,0.07576 -5.01532,0.29556 -5.29253,0.31855c-1.93913,0.16081 -6.73496,0.03879 -6.73496,0.03879c0,0 -0.15221,-2.32588 0.59854,-3.6135c0.57063,-0.9787 1.25147,-1.07837 2.88434,-2.04877z" data-paper-data="{&quot;index&quot;:null,&quot;origRot&quot;:0}" fill="#804040" stroke-width="0"/><path d="M182.2958,247.43238l0.92905,3.22751l-5.40124,1.55478l-0.38843,6.6303l-2.94172,0.34794l-0.53954,-9.23711l2.94065,-0.96861z" fill="#804040" stroke-width="0.47862"/><path d="M182.94079,247.21832l0.92905,3.22748l-1.00861,0.29035l-0.92905,-3.22751z" fill="url(#color-6)" stroke-width="0.15952"/><path d="M184.04742,245.73365l1.53459,5.33108l-2.04598,0.58896l-1.53462,-5.33108z" fill="#804040" stroke-width="0.41237"/><path d="M174.66197,259.26368l-9.79597,1.59512l-0.19547,-1.03118l9.60204,-1.54663z" data-paper-data="{&quot;origRot&quot;:0}" fill="#804040" stroke-width="0.15952"/></g><g fill="#804040"><path d="M196.88212,236.83125h11.24949l-5.10554,9.70771l-1.29802,-1.12734z" stroke-width="5.96727" stroke-linecap="butt"/><g stroke-width="0.21955" stroke-linecap="round"><path d="M205.75636,236.776h1.1621h1.33209l-0.55458,0.88682l-0.77751,-0.41569l-0.66328,0.41569z"/><path d="M203.62982,236.776h1.1621h1.33206l-0.55455,0.88682l-0.77751,-0.41569l-0.66328,0.41569z"/><path d="M201.45263,236.776h1.1621h1.33206l-0.55455,0.88682l-0.77751,-0.41569l-0.66328,0.41569z"/><path d="M199.3261,236.776h1.1621h1.33209l-0.55458,0.88682l-0.77751,-0.41569l-0.66325,0.41569z"/></g><g stroke-width="0.21955" stroke-linecap="round"><path d="M203.56651,236.80133h1.1621h1.33209l-0.55458,0.88682l-0.77751,-0.41569l-0.66325,0.41569z"/><path d="M201.43998,236.80133h1.16207h1.33209l-0.55455,0.88682l-0.77754,-0.41569l-0.66325,0.41569z"/><path d="M199.26279,236.80133h1.1621h1.33209l-0.55458,0.88682l-0.77751,-0.41569l-0.66325,0.41569z"/><path d="M197.13621,236.80133h1.1621h1.33209l-0.55458,0.88682l-0.77751,-0.41569l-0.66328,0.41569z"/></g></g><g fill="#804040"><path d="M228.29652,251.08407h11.24949l-5.10554,9.70771l-1.29802,-1.12734z" stroke-width="5.96727" stroke-linecap="butt"/><path d="M237.17075,251.02883h1.1621h1.33209l-0.55458,0.88682l-0.77751,-0.41569l-0.66328,0.41569z" stroke-width="0.21955" stroke-linecap="round"/><path d="M235.04422,251.02883h1.1621h1.33206l-0.55455,0.88682l-0.77751,-0.41569l-0.66328,0.41569z" stroke-width="0.21955" stroke-linecap="round"/><path d="M232.86703,251.02883h1.1621h1.33209l-0.55458,0.88682l-0.77751,-0.41569l-0.66325,0.41569z" stroke-width="0.21955" stroke-linecap="round"/><path d="M230.74046,251.02883h1.1621h1.33209l-0.55458,0.88682l-0.77751,-0.41569l-0.66325,0.41569z" stroke-width="0.21955" stroke-linecap="round"/><path d="M234.98091,251.05417h1.1621h1.33209l-0.55458,0.88682l-0.77751,-0.41569l-0.66325,0.41569z" stroke-width="0.21955" stroke-linecap="round"/><path d="M232.85438,251.05417h1.16207h1.33209l-0.55458,0.88682l-0.77751,-0.41569l-0.66325,0.41569z" stroke-width="0.21955" stroke-linecap="round"/><path d="M230.67719,251.05417h1.1621h1.33209l-0.55458,0.88682l-0.77751,-0.41569l-0.66325,0.41569z" stroke-width="0.21955" stroke-linecap="round"/><path d="M228.55061,251.05417h1.1621h1.33209l-0.55458,0.88682l-0.77751,-0.41569l-0.66328,0.41569z" stroke-width="0.21955" stroke-linecap="round"/></g><g fill="#804040" stroke-linecap="butt"><path d="M208.04039,299.27573l-0.57594,-6.57512l7.00618,-3.79156l1.41834,-7.74545c0,0 2.97754,0.88068 8.33988,0.47082c1.78744,-0.13662 4.33861,-1.31605 4.33861,-1.31605l4.73236,0.53683l1.06353,17.93755z" stroke-width="0"/><path d="M229.52247,291.71589c0,0 -2.2955,1.13155 -3.88389,1.26194c-1.5884,0.1304 -4.07124,-0.84442 -6.38041,-0.41932c-3.95283,0.72769 -3.70477,2.38644 -6.52794,2.24873c-2.87854,-0.14042 -5.77653,-1.21062 -5.77653,-1.21062c0,0 0.34859,-2.83 1.06262,-3.76907c1.05205,-1.38361 2.28358,-1.10784 3.9822,-1.47644c2.7878,-0.60496 4.22787,-0.8387 5.43354,-0.80128c1.20566,0.03742 3.68383,1.10382 4.57886,1.06385c1.9135,-0.08544 5.17668,-0.09751 6.62725,0.47105c1.45056,0.56857 0.88431,2.63116 0.88431,2.63116z" stroke-width="0"/><path d="M234.60485,281.40368c0,0 -2.06327,1.01707 -3.49098,1.13427c-1.42771,0.1172 -3.65937,-0.75899 -5.73493,-0.3769c-3.55293,0.65407 -3.32997,2.14502 -5.86754,2.02124c-2.58733,-0.12621 -5.19214,-1.08815 -5.19214,-1.08815c0,0 0.31332,-2.5437 0.95512,-3.38777c0.94562,-1.24364 2.05256,-0.99576 3.57933,-1.32708c2.50577,-0.54376 3.80016,-0.75385 4.88385,-0.72022c1.08369,0.03364 3.31115,0.99215 4.11564,0.95622c1.71992,-0.0768 4.65298,-0.08765 5.9568,0.4234c1.30381,0.51105 0.79485,2.36497 0.79485,2.36497z" stroke-width="0"/><path d="M219.87365,280.07686l-0.07271,-5.69851c0,0 2.3685,0.68244 5.79924,0.54027c1.14358,-0.04739 2.77578,-0.4565 2.77578,-0.4565l3.16272,0.31186l0.53047,5.27835c0,0 -2.9563,0.97474 -6.51966,0.97812c-3.36954,0.0032 -5.67584,-0.95359 -5.67584,-0.95359z" stroke-width="0"/><path d="M221.93984,272.26389c0.99029,-0.25861 3.09253,1.09445 5.74793,1.01203c1.69079,-0.05248 4.9095,-0.03949 4.9095,-0.03949c0,0 0.8486,3.38816 -3.13886,3.58267c-1.6914,0.08251 -1.54279,-0.91127 -3.91098,-1.34724c-1.38345,-0.25469 -3.4747,1.53682 -4.42632,1.45869c-0.95163,-0.07812 -2.44764,-2.20502 -2.44764,-2.20502c0,0 1.4827,-1.99583 3.26638,-2.46164z" data-paper-data="{&quot;index&quot;:null}" stroke-width="0"/><path d="M224.16832,268.84861h3.35855v5.62056h-3.35855z" stroke-width="0.47862"/><path d="M224.23811,274.44018l-4.88171,1.11032l-0.64967,-0.74033l5.49409,-1.35271z" data-paper-data="{&quot;origRot&quot;:0}" stroke-width="0.15952"/></g><g fill="#804040" stroke-linecap="butt"><path d="M256.57961,313.01997l-0.96777,-23.02125l6.33793,-2.04991c0,0 3.6816,1.0051 6.10708,0.79029c7.27644,-0.64442 10.8569,-2.318 10.8569,-2.318l4.45143,24.37935z" data-paper-data="{&quot;index&quot;:null,&quot;origRot&quot;:0}" stroke-width="0"/><path d="M257.58556,286.66364c1.63286,-0.9704 2.61939,-0.86309 4.94103,-1.14261c1.08594,-0.13074 5.66069,-1.73932 7.10521,-2.02474c1.44451,-0.28541 4.74134,0.37319 8.2202,0.54138c3.47885,0.16819 3.67376,3.5334 3.67376,3.5334c0,0 -2.95433,2.12341 -5.43107,2.69999c-2.47674,0.57659 0.59476,-1.55263 -4.3118,-1.63533c-4.2449,-0.07154 -4.84976,3.10553 -5.65271,3.33282c-0.26765,0.07576 -5.01532,0.29556 -5.29253,0.31855c-1.93913,0.16081 -6.73496,0.03879 -6.73496,0.03879c0,0 -0.15221,-2.32588 0.59854,-3.6135c0.57063,-0.9787 1.25147,-1.07837 2.88434,-2.04877z" data-paper-data="{&quot;index&quot;:null,&quot;origRot&quot;:0}" stroke-width="0"/><path d="M278.11825,292.02769c2.4084,0.62895 4.41043,3.32383 4.41043,3.32383c0,0 -2.83518,1.24145 -4.12012,1.34693c-1.28494,0.10549 -3.29343,-0.6831 -5.16144,-0.33921c-3.19765,0.58867 -5.5887,-2.82806 -3.30571,-2.75719c3.58545,0.11129 6.83972,-1.92354 8.17685,-1.57435z" data-paper-data="{&quot;index&quot;:null}" stroke-width="0"/><path d="M268.49433,282.38153l3.29691,-0.64056l1.07199,5.51736l-3.29688,0.64059z" stroke-width="0.47862"/><g><path d="M268.29827,281.61928l3.29691,-0.64056l0.20018,1.0303l-3.29688,0.64056z" stroke-width="0.15952"/><path d="M266.91708,280.38599l5.44571,-1.05808l0.40609,2.08999l-5.44574,1.05808z" stroke-width="0.41237"/></g><path d="M269.5521,287.86191l-4.88171,1.11035l-0.25489,-0.92734l4.91234,-1.24884z" data-paper-data="{&quot;origRot&quot;:0}" stroke-width="0.15952"/></g><path d="M162.26603,316.19757v-41.12627h17.92697v41.12628z" fill="#7f5f5f" stroke-width="0" stroke-linecap="butt"/><path d="M323.70108,322.88767v-33.87142h24.90794v33.87142z" fill="#7f5f5f" stroke-width="0" stroke-linecap="butt"/><g fill="#7f5f5f" stroke-width="0" stroke-linecap="butt"><path d="M211.25059,320.17115l-14.90647,-53.16576l8.69156,-2.43692l14.90648,53.16576z"/><path d="M184.10028,272.26752l-2.25861,-8.05559l33.91828,-9.50992l2.25861,8.05559z"/></g><g stroke-width="0" stroke-linecap="butt"><path d="M211.80296,308.51893l56.16267,-11.02604l4.3953,22.38807l-56.16267,11.02604z" fill="#7f5f5f"/><g fill="#8c6969"><path d="M259.57133,301.42222l7.22092,-1.41764l0.94509,4.81394l-7.22092,1.41764z"/><path d="M260.83146,307.84081l7.22092,-1.41764l0.94509,4.81394l-7.22092,1.41764z"/><path d="M262.09157,314.2594l7.22092,-1.41764l0.94509,4.81395l-7.22092,1.41764z"/></g><g fill="#8c6969"><path d="M250.74577,303.15488l7.22091,-1.41764l0.94509,4.81394l-7.22091,1.41764z"/><path d="M252.0059,309.57348l7.22091,-1.41764l0.94509,4.81394l-7.22092,1.41764z"/><path d="M253.26603,315.99207l7.22091,-1.41764l0.94509,4.81395l-7.22092,1.41764z"/></g><g fill="#8c6969"><path d="M241.92021,304.88755l7.22091,-1.41764l0.94509,4.81394l-7.22091,1.41764z"/><path d="M243.18034,311.30614l7.22092,-1.41764l0.94509,4.81394l-7.22092,1.41764z"/><path d="M244.44045,317.72473l7.22092,-1.41764l0.94509,4.81395l-7.22092,1.41764z"/></g><g fill="#8c6969"><path d="M233.09465,306.62021l7.22091,-1.41764l0.94509,4.81394l-7.22091,1.41764z"/><path d="M234.35476,313.0388l7.22091,-1.41764l0.94509,4.81394l-7.22091,1.41764z"/><path d="M235.61488,319.45739l7.22091,-1.41764l0.94509,4.81395l-7.22091,1.41764z"/></g><g fill="#8c6969"><path d="M224.26909,308.35288l7.22091,-1.41764l0.94509,4.81394l-7.22091,1.41764z"/><path d="M225.5292,314.77147l7.22092,-1.41764l0.94509,4.81394l-7.22092,1.41764z"/><path d="M226.78931,321.19006l7.22092,-1.41764l0.94509,4.81395l-7.22092,1.41764z"/></g><path d="M215.44354,310.08554l7.22092,-1.41764l0.94509,4.81394l-7.22092,1.41764z" fill="#8c6969"/><path d="M213.00403,317.23046l10.92054,-2.14396l0.94509,4.81394l-10.92054,2.14396z" fill="#8c6969"/><path d="M217.96375,322.92272l7.22092,-1.41764l0.94509,4.81395l-7.22092,1.41764z" fill="#8c6969"/></g><g stroke-width="0" stroke-linecap="butt"><path d="M292.97107,327.42405l-12.22482,-38.29768l19.14884,-6.11241l12.22482,38.29768z" fill="#7f5f5f"/><path d="M292.40904,316.24778l-8.25176,-25.85093l5.74465,-1.83372l8.25176,25.85093z" fill="#8c6969"/><path d="M294.56741,296.56886l-2.75059,-8.61698l5.74465,-1.83372l2.75059,8.61698z" fill="#8c6969"/><path d="M303.43043,324.33476l-8.25176,-25.85093l5.74465,-1.83372l8.25176,25.85093z" fill="#8c6969"/><path d="M295.77092,326.77973l-2.75059,-8.61698l5.74465,-1.83372l2.75059,8.61698z" fill="#8c6969"/></g></g><path d="M611.66085,336.83095v69.30707h-743.32174v-69.30708z" fill="#7f0000" stroke="none" stroke-width="0" stroke-linecap="butt"/><path d="M110.7999,298.88993l-0.57594,-6.57512l7.00618,-3.79156l1.41834,-7.74545c0,0 2.97754,0.88068 8.33988,0.47082c1.78744,-0.13662 4.33861,-1.31605 4.33861,-1.31605l4.73236,0.53683l1.06353,17.93755z" fill="#804040" stroke="none" stroke-width="0" stroke-linecap="butt"/><path d="M132.28193,291.3301c0,0 -2.29549,1.13154 -3.88389,1.26194c-1.5884,0.13039 -4.07124,-0.84442 -6.38041,-0.41932c-3.95282,0.72769 -3.70476,2.38644 -6.52794,2.24873c-2.87854,-0.14042 -5.77653,-1.21062 -5.77653,-1.21062c0,0 0.34858,-2.83 1.06262,-3.76907c1.05205,-1.38361 2.28358,-1.10783 3.9822,-1.47644c2.78781,-0.60496 4.22788,-0.8387 5.43354,-0.80128c1.20566,0.03742 3.68383,1.10382 4.57886,1.06385c1.9135,-0.08545 5.17669,-0.09752 6.62725,0.47105c1.45056,0.56857 0.88431,2.63116 0.88431,2.63116z" fill="#804040" stroke="none" stroke-width="0" stroke-linecap="butt"/><path d="M136.5695,278.65292c1.30382,0.51104 0.79485,2.36497 0.79485,2.36497c0,0 -2.06327,1.01707 -3.49098,1.13427c-1.42771,0.1172 -3.65937,-0.759 -5.73493,-0.3769c-3.55293,0.65408 -3.32997,2.14502 -5.86754,2.02124c-2.58733,-0.12621 -5.19214,-1.08815 -5.19214,-1.08815c0,0 0.31332,-2.5437 0.95512,-3.38777c0.94561,-1.24364 2.05255,-0.99576 3.57933,-1.32708c2.50577,-0.54376 3.80016,-0.75386 4.88385,-0.72022c1.0837,0.03363 3.31116,0.99214 4.11564,0.95622c1.71992,-0.0768 4.65299,-0.08765 5.9568,0.4234z" fill="#804040" stroke="none" stroke-width="0" stroke-linecap="butt"/><path d="M122.56041,273.99256c0,0 2.3685,0.68244 5.79924,0.54027c1.14358,-0.04739 2.77578,-0.4565 2.77578,-0.4565l3.16272,0.31186l0.53047,5.27835c0,0 -2.95629,0.97474 -6.51966,0.97812c-3.36955,0.0032 -5.67584,-0.95359 -5.67584,-0.95359z" fill="#804040" stroke="none" stroke-width="0" stroke-linecap="butt"/><path d="M124.6993,271.8781c0.99029,-0.25861 3.09253,1.09445 5.74793,1.01203c1.69079,-0.05248 4.9095,-0.03949 4.9095,-0.03949c0,0 0.8486,3.38816 -3.13886,3.58267c-1.6914,0.08251 -1.54279,-0.91127 -3.91098,-1.34724c-1.38345,-0.25469 -3.47469,1.53681 -4.42632,1.45869c-0.95163,-0.07813 -2.44764,-2.20502 -2.44764,-2.20502c0,0 1.48271,-1.99583 3.26638,-2.46164z" data-paper-data="{&quot;index&quot;:null}" fill="#804040" stroke="none" stroke-width="0" stroke-linecap="butt"/><g stroke="none" stroke-linecap="butt"><path d="M94.65832,308.23367h-3.35855v-1.04956h3.35855z" fill="url(#color-7)" stroke-width="0.15952"/><path d="M100.27938,311.58945h-5.54758v-2.12908h5.54758z" fill="#804040" stroke-width="0.41237"/></g><path d="M72.29628,265.96874l-1.29802,1.12734l-5.10554,-9.70771h11.24949z" fill="#804040" stroke="none" stroke-width="5.96727" stroke-linecap="butt"/><g fill="#804040" stroke="none" stroke-width="0.21955" stroke-linecap="round"><path d="M67.76916,258.21999l-0.66328,-0.41572l-0.77751,0.41572l-0.55458,-0.88685h1.33209h1.1621z"/><path d="M69.89569,258.21999l-0.66328,-0.41572l-0.77751,0.41572l-0.55455,-0.88685h1.33206h1.1621z"/><path d="M72.07288,258.21999l-0.66328,-0.41572l-0.77751,0.41572l-0.55458,-0.88685h1.33209h1.1621z"/><path d="M74.19942,258.21999l-0.66325,-0.41572l-0.77751,0.41572l-0.55458,-0.88685h1.33209h1.1621z"/></g><g fill="#804040" stroke="none" stroke-width="0.21955" stroke-linecap="round"><path d="M69.95897,258.24529l-0.66325,-0.41569l-0.77751,0.41569l-0.55458,-0.88682h1.33209h1.1621z"/><path d="M72.08553,258.24529l-0.66325,-0.41569l-0.77754,0.41569l-0.55455,-0.88682h1.33209h1.16207z"/><path d="M74.26269,258.24529l-0.66325,-0.41569l-0.77751,0.41569l-0.55458,-0.88682h1.33209h1.1621z"/><path d="M76.3893,258.24529l-0.66328,-0.41569l-0.77751,0.41569l-0.55458,-0.88682h1.33209h1.1621z"/></g><path d="M122.90836,258.6969l-1.29802,1.12734l-5.10554,-9.70771h11.24949z" fill="#804040" stroke="none" stroke-width="5.96727" stroke-linecap="butt"/><g fill="#804040" stroke="none" stroke-width="0.21955" stroke-linecap="round"><path d="M118.38124,250.94815l-0.66328,-0.41572l-0.77751,0.41572l-0.55455,-0.88685h1.33206h1.1621z"/><path d="M120.50777,250.94815l-0.66328,-0.41572l-0.77751,0.41572l-0.55455,-0.88685h1.33206h1.1621z"/><path d="M122.68496,250.94815l-0.66328,-0.41572l-0.77751,0.41572l-0.55458,-0.88685h1.33209h1.1621z"/><path d="M124.81151,250.94815l-0.66325,-0.41572l-0.77751,0.41572l-0.55458,-0.88685h1.33209h1.1621z"/></g><g fill="#804040" stroke="none" stroke-width="0.21955" stroke-linecap="round"><path d="M120.57105,250.97345l-0.66325,-0.41569l-0.77751,0.41569l-0.55458,-0.88682h1.33209h1.1621z"/><path d="M122.69764,250.97345l-0.66325,-0.41569l-0.77754,0.41569l-0.55455,-0.88682h1.33209h1.16207z"/><path d="M124.87482,250.97345l-0.66325,-0.41569l-0.77751,0.41569l-0.55458,-0.88682h1.33209h1.1621z"/><path d="M127.00138,250.97345l-0.66328,-0.41569l-0.77751,0.41569l-0.55458,-0.88682h1.33209h1.1621z"/></g><g stroke="none" stroke-linecap="butt"><path d="M378.76305,248.42681l1.48834,3.01075l-5.03852,2.49078l-1.48834,-3.01075z" fill="#804040" stroke-width="0.47862"/><g><path d="M373.94029,250.75845l1.48837,3.01075l-0.94089,0.46511l-1.48834,-3.01075z" fill="url(#color-8)" stroke-width="0.15952"/><path d="M369.48958,282.18195l2.45844,4.9731l-1.9086,0.94351l-2.45844,-4.97307z" fill="#804040" stroke-width="0.41237"/></g><path d="M373.03623,292.32044c0,0 4.52411,-25.22534 6.52434,-36.37814c0.30648,-1.70887 -7.9565,-8.77825 -7.65002,-10.48712c0.36026,-2.00874 9.35847,0.96123 9.35847,0.96123c0,0 3.58046,1.67358 10.8569,2.318c2.42548,0.21481 6.10708,-0.79029 6.10708,-0.79029l6.33793,2.04991l-1.54952,44.25505z" data-paper-data="{&quot;index&quot;:null,&quot;origRot&quot;:0}" fill="#804040" stroke-width="0"/><path d="M384.9123,293.28273c1.63287,0.9704 2.31371,1.07007 2.88434,2.04877c0.75075,1.28762 0.59854,3.6135 0.59854,3.6135c0,0 -4.79583,0.12202 -6.73496,-0.03879c-0.27721,-0.02299 -5.02488,-0.24279 -5.29253,-0.31855c-0.80295,-0.2273 0.62831,-0.20475 -3.61659,-0.13321c-4.90656,0.08269 -3.87118,-0.9877 -6.34792,-1.56429c-2.47674,-0.57659 -13.28466,-3.57262 -13.28466,-3.57262c0,0 -0.96859,-3.94696 2.51026,-4.11515c3.47885,-0.16819 15.79278,0.62758 17.23729,0.91299c1.44452,0.28542 6.01927,1.894 7.10521,2.02474c2.32164,0.27952 3.30817,0.17221 4.94103,1.14261z" data-paper-data="{&quot;index&quot;:null,&quot;origRot&quot;:0}" fill="#804040" stroke-width="0"/><path d="M374.46806,305.25729l2.94065,0.96861l-0.53954,9.23711l-2.94172,-0.34794l-0.38843,-6.6303l-5.40124,-1.55478l0.92905,-3.22751z" fill="#804040" stroke-width="0.47862"/><path d="M386.04352,235.71872l-0.92905,3.22751l-1.00861,-0.29035l0.92905,-3.22748z" fill="url(#color-9)" stroke-width="0.15952"/><path d="M371.20481,301.71239l-1.53462,5.33108l-2.04598,-0.58896l1.53459,-5.33108z" fill="#804040" stroke-width="0.41237"/><path d="M382.44911,312.40746l9.60204,1.54663l-0.19547,1.03118l-9.79597,-1.59512z" data-paper-data="{&quot;origRot&quot;:0}" fill="#804040" stroke-width="0.15952"/></g><g stroke="none" stroke-linecap="butt"><path d="M74.17906,311.32802l-1.29802,1.12734l-5.10554,-9.70771h11.24949z" fill="#804040" stroke-width="5.96727"/><g fill="none" stroke-width="1" font-family="sans-serif" font-weight="normal" font-size="12" text-anchor="start"/><g fill="none" stroke-width="1" font-family="sans-serif" font-weight="normal" font-size="12" text-anchor="start"/></g><g fill="#804040" stroke="none"><path d="M35.26198,281.10067l-1.29802,1.12734l-5.10554,-9.70771h11.24949z" stroke-width="5.96727" stroke-linecap="butt"/><path d="M47.9465,274.44903l-0.66325,-0.41569l-0.77751,0.41569l-0.55458,-0.88682h1.33209h1.1621z" stroke-width="0.21955" stroke-linecap="round"/></g><g fill="#804040" stroke="none" stroke-linecap="butt"><path d="M437.57806,290.75416l1.06353,-17.93755l4.73236,-0.53683c0,0 2.55117,1.17943 4.33861,1.31605c5.36234,0.40986 8.33988,-0.47082 8.33988,-0.47082l1.41834,7.74545l7.00618,3.79156l-0.57594,6.57512z" stroke-width="0"/><path d="M442.41893,283.6773c0,0 -0.56625,-2.06259 0.88431,-2.63116c1.45057,-0.56856 4.71375,-0.55649 6.62725,-0.47105c0.89503,0.03997 3.3732,-1.02643 4.57886,-1.06385c1.20567,-0.03742 2.64574,0.19632 5.43354,0.80128c1.69862,0.3686 2.93015,0.09283 3.9822,1.47644c0.71403,0.93907 1.06262,3.76907 1.06262,3.76907c0,0 -2.89799,1.0702 -5.77653,1.21062c-2.82317,0.13771 -2.57511,-1.52104 -6.52794,-2.24873c-2.30917,-0.4251 -4.79201,0.54972 -6.38041,0.41932c-1.58839,-0.13039 -3.88389,-1.26194 -3.88389,-1.26194z" stroke-width="0"/><path d="M437.33656,273.36507c0,0 -0.50896,-1.85392 0.79485,-2.36497c1.30382,-0.51105 4.23688,-0.5002 5.9568,-0.4234c0.80449,0.03593 3.03195,-0.92258 4.11564,-0.95622c1.08369,-0.03363 2.37808,0.17646 4.88385,0.72022c1.52677,0.33132 2.63371,0.08344 3.57933,1.32708c0.6418,0.84407 0.95512,3.38777 0.95512,3.38777c0,0 -2.60481,0.96194 -5.19214,1.08815c-2.53757,0.12378 -2.31461,-1.36717 -5.86754,-2.02124c-2.07556,-0.38209 -4.30722,0.4941 -5.73493,0.3769c-1.42771,-0.1172 -3.49098,-1.13427 -3.49098,-1.13427z" stroke-width="0"/><path d="M446.39192,272.99186c-3.56336,-0.00338 -6.51966,-0.97812 -6.51966,-0.97812l0.53047,-5.27835l3.16272,-0.31186c0,0 1.6322,0.40911 2.77578,0.4565c3.43074,0.14217 5.79924,-0.54027 5.79924,-0.54027l-0.07271,5.69851c0,0 -2.3063,0.95679 -5.67584,0.95359z" stroke-width="0"/><path d="M450.00156,264.2253c1.78368,0.46581 3.26638,2.46164 3.26638,2.46164c0,0 -1.49601,2.1269 -2.44764,2.20502c-0.95162,0.07813 -3.04287,-1.71338 -4.42632,-1.45869c-2.36819,0.43597 -2.21958,1.42975 -3.91098,1.34724c-3.98746,-0.19451 -3.13886,-3.58267 -3.13886,-3.58267c0,0 3.21871,-0.01299 4.9095,0.03949c2.6554,0.08242 4.75764,-1.27064 5.74793,-1.01203z" data-paper-data="{&quot;index&quot;:null}" stroke-width="0"/><path d="M447.77309,266.43058h-3.35855v-5.62056h3.35855z" stroke-width="0.47862"/><path d="M447.74059,265.41887l5.49409,1.35271l-0.64967,0.74033l-4.88171,-1.11032z" data-paper-data="{&quot;origRot&quot;:0}" stroke-width="0.15952"/></g><g fill="#804040" stroke="none" stroke-linecap="butt"><path d="M-5.85035,291.50785l4.45143,-24.37935c0,0 3.58046,1.67358 10.8569,2.318c2.42548,0.21481 6.10708,-0.79029 6.10708,-0.79029l6.33793,2.04991l-0.96777,23.02125z" data-paper-data="{&quot;index&quot;:null,&quot;origRot&quot;:0}" stroke-width="0"/><path d="M19.92926,267.37102c1.63287,0.9704 2.31371,1.07007 2.88434,2.04877c0.75075,1.28762 0.59854,3.6135 0.59854,3.6135c0,0 -4.79583,0.12202 -6.73496,-0.03879c-0.27721,-0.02299 -5.02488,-0.24279 -5.29253,-0.31855c-0.80295,-0.22729 -1.40781,-3.40436 -5.65271,-3.33282c-4.90656,0.0827 -1.83506,2.21192 -4.3118,1.63533c-2.47674,-0.57658 -5.43107,-2.69999 -5.43107,-2.69999c0,0 0.19491,-3.36521 3.67376,-3.5334c3.47886,-0.16819 6.77569,-0.82679 8.2202,-0.54138c1.44452,0.28542 6.01927,1.894 7.10521,2.02474c2.32164,0.27952 3.30817,0.17221 4.94103,1.14261z" data-paper-data="{&quot;index&quot;:null,&quot;origRot&quot;:0}" stroke-width="0"/><path d="M-0.60343,272.7351c1.33713,-0.34919 4.5914,1.68564 8.17685,1.57435c2.28299,-0.07087 -0.10806,3.34586 -3.30571,2.75719c-1.86801,-0.34389 -3.8765,0.4447 -5.16144,0.33921c-1.28494,-0.10548 -4.12012,-1.34693 -4.12012,-1.34693c0,0 2.00203,-2.69488 4.41043,-3.32383z" data-paper-data="{&quot;index&quot;:null}" stroke-width="0"/><path d="M7.94848,268.60632l-3.29688,-0.64059l1.07199,-5.51736l3.29691,0.64056z" stroke-width="0.47862"/><g><path d="M9.01635,263.35698l-3.29688,-0.64056l0.20018,-1.0303l3.29691,0.64056z" stroke-width="0.15952"/><path d="M16.3423,266.93375l-5.44574,-1.05808l0.40609,-2.08999l5.44571,1.05808z" stroke-width="0.41237"/></g><path d="M8.18699,267.50348l4.91234,1.24884l-0.25489,0.92734l-4.88171,-1.11035z" data-paper-data="{&quot;origRot&quot;:0}" stroke-width="0.15952"/></g><path d="M97.32183,296.90498v-41.12628h17.92697v41.12627z" fill="#7f5f5f" stroke="none" stroke-width="0" stroke-linecap="butt"/><path d="M-66.80695,303.59507v-33.87142h24.90794v33.87142z" fill="#7f5f5f" stroke="none" stroke-width="0" stroke-linecap="butt"/><g fill="#7f5f5f" stroke="none" stroke-width="0" stroke-linecap="butt"><path d="M68.14963,288.85749l54.83726,-6.45566l1.05537,8.96482l-54.83726,6.45567z"/><path d="M119.71895,269.70715l8.30886,-0.97815l4.11853,34.98465l-8.30886,0.97815z"/></g><g stroke="none" stroke-width="0" stroke-linecap="butt"><path d="M456.81496,310.00668l-56.16267,-11.02604l4.3953,-22.38807l56.16267,11.02604z" fill="#7f5f5f"/><g fill="#8c6969"><path d="M412.4968,285.33584l-7.22092,-1.41764l0.94509,-4.81394l7.22092,1.41764z"/><path d="M411.23667,291.75443l-7.22092,-1.41764l0.94509,-4.81394l7.22092,1.41764z"/><path d="M409.97656,298.17303l-7.22092,-1.41764l0.94509,-4.81395l7.22092,1.41764z"/></g><g fill="#8c6969"><path d="M421.32236,287.0685l-7.22091,-1.41764l0.94509,-4.81394l7.22091,1.41764z"/><path d="M420.06224,306.88474l-7.22092,-1.41764l0.94509,-4.81394l7.22091,1.41764z"/><path d="M418.80211,299.9057l-7.22092,-1.41764l0.94509,-4.81395l7.22091,1.41764z"/></g><g fill="#8c6969"><path d="M430.14792,288.80117l-7.22091,-1.41764l0.94509,-4.81394l7.22091,1.41764z"/><path d="M441.74952,311.83283l-7.22092,-1.41764l0.94509,-4.81394l7.22092,1.41764z"/><path d="M427.62768,301.63836l-7.22092,-1.41764l0.94509,-4.81395l7.22092,1.41764z"/></g><g fill="#8c6969"><path d="M438.97348,290.53383l-7.22091,-1.41764l0.94509,-4.81394l7.22091,1.41764z"/><path d="M437.71337,296.95242l-7.22091,-1.41764l0.94509,-4.81394l7.22091,1.41764z"/><path d="M436.45325,303.37102l-7.22091,-1.41764l0.94509,-4.81395l7.22091,1.41764z"/></g><g fill="#8c6969"><path d="M447.79904,292.2665l-7.22091,-1.41764l0.94509,-4.81394l7.22091,1.41764z"/><path d="M446.53893,298.68509l-7.22092,-1.41764l0.94509,-4.81394l7.22092,1.41764z"/><path d="M445.27882,305.10369l-7.22092,-1.41764l0.94509,-4.81395l7.22092,1.41764z"/></g><path d="M456.62459,293.99916l-7.22092,-1.41764l0.94509,-4.81394l7.22092,1.41764z" fill="#8c6969"/><path d="M459.0641,301.14408l-10.92054,-2.14396l0.94509,-4.81394l10.92054,2.14396z" fill="#8c6969"/><path d="M454.10438,306.83635l-7.22092,-1.41764l0.94509,-4.81395l7.22092,1.41764z" fill="#8c6969"/></g><g stroke="none" stroke-width="0" stroke-linecap="butt"><path d="M-34.60508,302.01904l12.22482,-38.29768l19.14884,6.11241l-12.22482,38.29768z" fill="#7f5f5f"/><path d="M-14.7439,306.91138l8.25176,-25.85093l5.74465,1.83372l-8.25176,25.85093z" fill="#8c6969"/><path d="M-22.79723,275.44254l2.75059,-8.61698l5.74465,1.83372l-2.75059,8.61698z" fill="#8c6969"/><path d="M-31.66025,303.20844l8.25176,-25.85093l5.74465,1.83372l-8.25176,25.85093z" fill="#8c6969"/><path d="M-24.00074,305.65341l2.75059,-8.61698l5.74465,1.83372l-2.75059,8.61698z" fill="#8c6969"/></g><g fill="#804040" stroke="none" stroke-width="0" stroke-linecap="butt"><path d="M471.28955,302.35767l6.53252,-20.51825l4.71287,1.50046l-6.53252,20.51825z"/><path d="M472.55739,274.94555l8.20304,-12.6009l3.81343,2.4825l-8.20304,12.6009z"/><path d="M477.29646,277.79181l1.08033,-3.39326l12.819,4.08126l-1.08033,3.39326z"/><path d="M479.26264,274.68519l1.08034,-3.39327l12.819,4.08126l-1.08034,3.39327z"/><path d="M481.26064,271.60113l1.08034,-3.39327l9.04871,2.88089l-1.08034,3.39327z"/><path d="M470.12469,279.90401l1.29593,-4.07042l20.35213,6.47963l-1.29593,4.07042z"/></g><g fill="#804040" stroke="none" stroke-linecap="butt"><path d="M24.30529,313.33639l16.71175,-20.17984l5.58973,4.62909l-16.71175,20.17984z" stroke-width="0"/><path d="M57.49438,290.11428l-5.71701,6.90343c-0.41309,0.49881 -1.14735,0.56788 -1.64621,0.15476l-9.27737,-7.68297c-0.49881,-0.41309 -0.56777,-1.14733 -0.15468,-1.64614l5.71701,-6.90343c0.41315,-0.49889 1.14729,-0.56787 1.6461,-0.15478l9.27737,7.68297c0.49885,0.41312 0.56794,1.14728 0.15479,1.64617z" stroke-width="1.96901"/><path d="M58.0798,280.26169c2.18058,1.80582 2.48442,5.01454 0.6786,7.19512l-1.53433,1.85274l-9.87967,-8.18175l1.53433,-1.85274c1.80582,-2.18058 5.01495,-2.48006 7.19553,-0.67424z" stroke-width="1.96901"/><path d="M57.01636,278.40433c3.04303,2.10133 5.34342,5.48461 1.54288,9.59978c-0.2541,0.62137 -1.63367,0.01367 -0.81519,-1.2017c1.66305,-2.46937 -1.12493,-1.31685 -1.27581,-0.98057c0.63872,-1.95033 -5.73395,-9.3885 -6.74515,-9.29395c-1.63454,0.1528 4.44198,-0.63028 7.29328,1.87644z" stroke-width="1.96901"/><g stroke-width="1.96901"><path d="M55.46706,283.86358c0.33931,0.281 0.38632,0.784 0.10503,1.12306c-0.28067,0.33952 -0.78362,0.38708 -1.12293,0.10608c-0.33927,-0.28097 -0.38628,-0.78396 -0.10502,-1.12299c0.2807,-0.33956 0.78365,-0.38711 1.12292,-0.10615z"/><path d="M52.67971,281.61807c0.33931,0.281 0.38632,0.784 0.10503,1.12306c-0.28067,0.33952 -0.78362,0.38708 -1.12293,0.10608c-0.33927,-0.28097 -0.38628,-0.78396 -0.10502,-1.12299c0.2807,-0.33956 0.78365,-0.38711 1.12292,-0.10615z"/></g><path d="M38.81134,295.81997l2.86737,-3.46242l5.58973,4.62909l-2.86737,3.46242z" stroke-width="0"/><path d="M54.02129,293.18473l-2.94018,3.55033c-1.80576,2.1805 -5.01264,2.48197 -7.19315,0.67621l-2.008,-1.6629c-2.1805,-1.80576 -2.48197,-5.01264 -0.67621,-7.19315l2.94018,-3.55033z" stroke-width="1.96901"/><path d="M54.45247,292.93751c0.47319,0.39187 0.74276,0.93921 0.79608,1.50671c0.05338,0.56749 -0.10946,1.15549 -0.50133,1.62867c-0.39183,0.47315 -0.93918,0.74273 -1.50671,0.79608c-0.56746,0.05335 -1.15545,-0.1095 -1.62864,-0.50137c-0.47319,-0.39187 -0.74273,-0.93918 -0.79611,-1.50667c-0.05335,-0.56753 0.10949,-1.15552 0.50133,-1.62867c0.39187,-0.47319 0.93921,-0.74276 1.50671,-0.79608c0.56753,-0.05335 1.15549,0.10946 1.62867,0.50133z" stroke-width="0.46042"/><path d="M43.38922,283.77559c0.47319,0.39187 0.74276,0.93921 0.79608,1.50671c0.05338,0.56749 -0.10946,1.15549 -0.50133,1.62867c-0.39183,0.47315 -0.93918,0.74273 -1.50671,0.79608c-0.56746,0.05335 -1.15545,-0.1095 -1.62864,-0.50137c-0.47319,-0.39187 -0.74273,-0.93918 -0.79611,-1.50667c-0.05335,-0.56753 0.10949,-1.15552 0.50133,-1.62867c0.39187,-0.47319 0.93921,-0.74276 1.50671,-0.79608c0.56753,-0.05335 1.15549,0.10946 1.62867,0.50133z" stroke-width="0.46042"/></g><path d="M502.13436,317.59174l15.5567,-47.65224l5.48652,12.58233l-15.5567,47.65224z" data-paper-data="{&quot;index&quot;:null}" fill="#804040" stroke="none" stroke-width="0" stroke-linecap="butt"/><path d="M515.04025,281.27893c1.27117,-1.46911 3.4926,-1.62957 4.96171,-0.3584c1.46911,1.27117 1.62957,3.4926 0.3584,4.96171c-1.27117,1.46911 -3.4926,1.62957 -4.96171,0.3584c-1.46911,-1.27117 -1.62957,-3.4926 -0.3584,-4.96171z" fill="#804040" stroke="none" stroke-width="0" stroke-linecap="butt"/><path d="M514.23482,282.17659l2.85618,-3.30094l5.32904,4.61103l-2.85618,3.30094z" data-paper-data="{&quot;index&quot;:null}" fill="url(#color-10)" stroke="none" stroke-width="0" stroke-linecap="butt"/><path d="M499.27572,266.78657l15.05668,-17.40124l37.99862,32.87887l-15.05668,17.40124z" fill="#804040" stroke="none" stroke-width="0" stroke-linecap="butt"/><g fill="#804040" stroke="none" stroke-linecap="butt"><path d="M519.18047,266.43196l-4.23506,4.89452c-0.30601,0.35366 -0.83718,0.39205 -1.19086,0.08602l-6.57764,-5.6914c-0.35366,-0.30601 -0.39198,-0.83715 -0.08597,-1.19081l4.23506,-4.89452c0.30605,-0.35371 0.83712,-0.39205 1.19078,-0.08604l6.57764,5.6914c0.35369,0.30603 0.3921,0.83712 0.08605,1.19083z" stroke-width="1.96901"/><path d="M519.75694,259.32823c1.54603,1.33772 1.71528,3.65893 0.37756,5.20496l-1.1366,1.31359l-7.00467,-6.06089l1.1366,-1.31359c1.33772,-1.54603 3.65916,-1.71213 5.20518,-0.37441z" stroke-width="1.96901"/><path d="M519.0182,257.97075c2.16404,1.56452 3.77194,4.04292 0.96396,6.95445c-0.19314,0.44462 -1.17961,-0.01564 -0.56974,-0.88027c1.23916,-1.75674 -0.79155,-0.96824 -0.90574,-0.72782c0.49156,-1.39802 -3.99292,-6.86735 -4.72441,-6.81488c-1.18241,0.08479 3.21663,-0.38566 5.23593,1.46853z" stroke-width="1.96901"/><g stroke-width="1.96901"><path d="M517.81448,261.88775c0.24057,0.20816 0.26666,0.57202 0.05829,0.81241c-0.20793,0.24073 -0.57176,0.26721 -0.81233,0.05905c-0.24055,-0.20814 -0.26663,-0.572 -0.05828,-0.81236c0.20795,-0.24075 0.57178,-0.26723 0.81233,-0.0591z"/><path d="M515.83728,260.22313c0.24057,0.20816 0.26666,0.57202 0.05829,0.81241c-0.20793,0.24073 -0.57176,0.26721 -0.81233,0.05905c-0.24055,-0.20814 -0.26663,-0.572 -0.05828,-0.81236c0.20795,-0.24075 0.57178,-0.26723 0.81233,-0.0591z"/></g><path d="M516.62521,268.59438l-2.17803,2.51718c-1.33768,1.54597 -3.65752,1.71354 -5.20349,0.37587l-1.42367,-1.23185c-1.54597,-1.33768 -1.71354,-3.65752 -0.37587,-5.20349l2.17803,-2.51718z" stroke-width="1.96901"/><path d="M516.94034,268.42264c0.33549,0.29029 0.52156,0.68963 0.55119,1.10016c0.02968,0.41052 -0.09706,0.83247 -0.38735,1.16796c-0.29027,0.33546 -0.68961,0.52153 -1.10016,0.55119c-0.4105,0.02965 -0.83245,-0.09709 -1.16794,-0.38738c-0.33549,-0.29029 -0.52153,-0.68961 -0.55121,-1.10014c-0.02966,-0.41055 0.09709,-0.8325 0.38735,-1.16796c0.29029,-0.33549 0.68963,-0.52156 1.10016,-0.55119c0.41055,-0.02966 0.83247,0.09706 1.16796,0.38735z" stroke-width="0.46042"/><path d="M509.09652,261.63565c0.33549,0.29029 0.52156,0.68963 0.55119,1.10016c0.02968,0.41052 -0.09706,0.83247 -0.38735,1.16796c-0.29027,0.33546 -0.68961,0.52153 -1.10016,0.55119c-0.4105,0.02965 -0.83245,-0.09709 -1.16794,-0.38738c-0.33549,-0.29029 -0.52153,-0.68961 -0.55121,-1.10014c-0.02966,-0.41055 0.09709,-0.8325 0.38735,-1.16796c0.29029,-0.33549 0.68963,-0.52156 1.10016,-0.55119c0.41055,-0.02966 0.83247,0.09706 1.16796,0.38735z" stroke-width="0.46042"/></g><text transform="translate(523.66711,267.42467) rotate(40.8685) scale(0.10978,0.10978)" font-size="40" xml:space="preserve" fill="#7f5f5f" fill-rule="nonzero" stroke="none" stroke-width="1" stroke-linecap="butt" stroke-linejoin="miter" stroke-miterlimit="10" stroke-dasharray="" stroke-dashoffset="0" font-family="Serif" font-weight="normal" text-anchor="start" style="mix-blend-mode: normal"><tspan x="0" dy="0">It's over.</tspan><tspan x="0" dy="46.150000000000006px">Is this what you</tspan><tspan x="0" dy="46.150000000000006px">wanted?</tspan></text><path d="M-131.66087,337.54523v-92.39964h743.32174v92.39964z" fill="url(#color-11)" stroke="none" stroke-width="0" stroke-linecap="butt"/><path d="M9.70303,256.18427c1.38675,2.08013 -0.69337,3.46688 -0.69337,3.46688l-2.39999,1.43736c-0.20502,0.7577 -0.41004,1.51539 -0.61506,2.27309c0,0 -0.79056,2.37171 -3.16227,1.58114c-2.37171,-0.79057 -1.58114,-3.16228 -1.58114,-3.16228c0.46165,-1.2423 0.9233,-2.48461 1.38494,-3.72691l3.60002,-2.56264c0,0 2.08013,-1.38675 3.46688,0.69338z" fill-opacity="0.25098" fill="#d1ccc9" stroke="none" stroke-width="0.5" stroke-linecap="butt"/></g></g></svg>