<svg version="1.1" xmlns="http://www.w3.org/2000/svg" xmlns:xlink="http://www.w3.org/1999/xlink" width="90" height="134" viewBox="0,0,90,134"><g transform="translate(-226.5,-78)"><g data-paper-data="{&quot;isPaintingLayer&quot;:true}" fill-rule="nonzero" stroke-linecap="butt" stroke-linejoin="miter" stroke-miterlimit="10" stroke-dasharray="" stroke-dashoffset="0" style="mix-blend-mode: normal"><path d="M291.5625,154.16992c0,8.07292 -1.85547,14.55892 -5.56641,19.45801c-3.71094,4.89909 -8.69141,7.34863 -14.94141,7.34863c-6.67318,0 -11.83268,-2.36003 -15.47852,-7.08008l-0.43945,6.10352h-8.30078v-75h9.0332v27.97852c3.64583,-4.52474 8.67513,-6.78711 15.08789,-6.78711c6.41276,0 11.4502,2.42513 15.1123,7.27539c3.66211,4.85026 5.49316,11.49089 5.49316,19.92188zM282.5293,153.14453c0,-6.15234 -1.18815,-10.90495 -3.56445,-14.25781c-2.3763,-3.35286 -5.79427,-5.0293 -10.25391,-5.0293c-5.95703,0 -10.23763,2.76693 -12.8418,8.30078v22.85156c2.76693,5.53385 7.08008,8.30078 12.93945,8.30078c4.32943,0 7.69857,-1.67643 10.10742,-5.0293c2.40885,-3.35286 3.61328,-8.39844 3.61328,-15.13672z" fill="#ff0000" stroke="none" stroke-width="1"/><path d="M226.5,212v-134h90v134z" fill="none" stroke="#000000" stroke-width="0"/></g></g></svg>