<svg version="1.1" xmlns="http://www.w3.org/2000/svg" xmlns:xlink="http://www.w3.org/1999/xlink" width="90" height="134" viewBox="0,0,90,134"><g transform="translate(-226.5,-78)"><g data-paper-data="{&quot;isPaintingLayer&quot;:true}" fill-rule="nonzero" stroke-linecap="butt" stroke-linejoin="miter" stroke-miterlimit="10" stroke-dasharray="" stroke-dashoffset="0" style="mix-blend-mode: normal"><path d="M245.12695,122.57813c0,-4.26432 1.35905,-7.77995 4.07715,-10.54687c2.7181,-2.76693 6.20931,-4.15039 10.47363,-4.15039c4.32943,0 7.83691,1.3916 10.52246,4.1748c2.68555,2.7832 4.02832,6.38835 4.02832,10.81543v3.4668c0,4.29688 -1.35905,7.80436 -4.07715,10.52246c-2.7181,2.7181 -6.17676,4.07715 -10.37598,4.07715c-4.23177,0 -7.73112,-1.35905 -10.49805,-4.07715c-2.76693,-2.7181 -4.15039,-6.33952 -4.15039,-10.86426zM251.86523,126.33789c0,2.53906 0.71615,4.63053 2.14844,6.27441c1.43229,1.64388 3.35286,2.46582 5.76172,2.46582c2.3112,0 4.1748,-0.79753 5.59082,-2.39258c1.41602,-1.59505 2.12402,-3.77604 2.12402,-6.54297v-3.56445c0,-2.53906 -0.69987,-4.63867 -2.09961,-6.29883c-1.39974,-1.66016 -3.30404,-2.49023 -5.71289,-2.49023c-2.40885,0 -4.31315,0.83008 -5.71289,2.49023c-1.39974,1.66016 -2.09961,3.82487 -2.09961,6.49414zM279.74609,162.56836c0,-4.26432 1.35905,-7.77181 4.07715,-10.52246c2.7181,-2.75065 6.20931,-4.12598 10.47363,-4.12598c4.26432,0 7.76367,1.36719 10.49805,4.10156c2.73438,2.73438 4.10156,6.36393 4.10156,10.88867v3.4668c0,4.26432 -1.35905,7.77181 -4.07715,10.52246c-2.7181,2.75065 -6.19303,4.12598 -10.4248,4.12598c-4.23177,0 -7.73112,-1.35905 -10.49805,-4.07715c-2.76693,-2.7181 -4.15039,-6.33952 -4.15039,-10.86426zM286.48438,166.37695c0,2.57161 0.71615,4.67936 2.14844,6.32324c1.43229,1.64388 3.35286,2.46582 5.76172,2.46582c2.34375,0 4.21549,-0.80566 5.61523,-2.41699c1.39974,-1.61133 2.09961,-3.80046 2.09961,-6.56738v-3.61328c0,-2.57161 -0.70801,-4.67122 -2.12402,-6.29883c-1.41602,-1.6276 -3.31217,-2.44141 -5.68848,-2.44141c-2.3112,0 -4.19108,0.80566 -5.63965,2.41699c-1.44857,1.61133 -2.17285,3.78418 -2.17285,6.51855zM296.54297,119.0625l-34.7168,55.56641l-5.12695,-3.22266l34.7168,-55.56641z" fill="#ff0000" stroke="none" stroke-width="1"/><path d="M226.5,212v-134h90v134z" fill="none" stroke="#000000" stroke-width="0"/></g></g></svg>