<svg version="1.1" xmlns="http://www.w3.org/2000/svg" xmlns:xlink="http://www.w3.org/1999/xlink" width="90" height="134" viewBox="0,0,90,134"><g transform="translate(-226.5,-78)"><g data-paper-data="{&quot;isPaintingLayer&quot;:true}" fill-rule="nonzero" stroke-linecap="butt" stroke-linejoin="miter" stroke-miterlimit="10" stroke-dasharray="" stroke-dashoffset="0" style="mix-blend-mode: normal"><path d="M288.92578,180h-9.47266c-0.52083,-1.04167 -0.94401,-2.89714 -1.26953,-5.56641c-4.19922,4.36198 -9.21224,6.54297 -15.03906,6.54297c-5.20833,0 -9.48079,-1.47298 -12.81738,-4.41895c-3.33659,-2.94596 -5.00488,-6.68132 -5.00488,-11.20605c0,-5.5013 2.09147,-9.77376 6.27441,-12.81738c4.18294,-3.04362 10.06673,-4.56543 17.65137,-4.56543h8.78906v-4.15039c0,-3.15755 -0.94401,-5.6722 -2.83203,-7.54395c-1.88802,-1.87174 -4.67122,-2.80762 -8.34961,-2.80762c-3.22266,0 -5.92448,0.8138 -8.10547,2.44141c-2.18099,1.6276 -3.27148,3.59701 -3.27148,5.9082h-9.08203c0,-2.63672 0.93587,-5.18392 2.80762,-7.6416c1.87174,-2.45768 4.41081,-4.40267 7.61719,-5.83496c3.20638,-1.43229 6.73014,-2.14844 10.57129,-2.14844c6.08724,0 10.85612,1.52181 14.30664,4.56543c3.45052,3.04362 5.24089,7.2347 5.37109,12.57324v24.31641c0,4.85026 0.61849,8.70768 1.85547,11.57227zM264.46289,173.11523c2.83203,0 5.51758,-0.73242 8.05664,-2.19727c2.53906,-1.46484 4.37826,-3.36914 5.51758,-5.71289v-10.83984h-7.08008c-11.06771,0 -16.60156,3.23893 -16.60156,9.7168c0,2.83203 0.94401,5.04557 2.83203,6.64063c1.88802,1.59505 4.31315,2.39258 7.27539,2.39258z" fill="#ff0000" stroke="none" stroke-width="1"/><path d="M226.5,212v-134h90v134z" fill="none" stroke="#000000" stroke-width="0"/></g></g></svg>