<svg version="1.1" xmlns="http://www.w3.org/2000/svg" xmlns:xlink="http://www.w3.org/1999/xlink" width="90" height="134" viewBox="0,0,90,134"><g transform="translate(-226.5,-78)"><g data-paper-data="{&quot;isPaintingLayer&quot;:true}" fill-rule="nonzero" stroke-linecap="butt" stroke-linejoin="miter" stroke-miterlimit="10" stroke-dasharray="" stroke-dashoffset="0" style="mix-blend-mode: normal"><path d="M300.54688,157.44141c-0.87891,7.51953 -3.65397,13.32194 -8.3252,17.40723c-4.67122,4.08529 -10.88053,6.12793 -18.62793,6.12793c-8.39844,0 -15.12858,-3.01107 -20.19043,-9.0332c-5.06185,-6.02214 -7.59277,-14.07878 -7.59277,-24.16992v-6.83594c0,-6.60807 1.18001,-12.41862 3.54004,-17.43164c2.36003,-5.01302 5.70475,-8.8623 10.03418,-11.54785c4.32943,-2.68555 9.34245,-4.02832 15.03906,-4.02832c7.55208,0 13.60677,2.10775 18.16406,6.32324c4.55729,4.21549 7.21029,10.05046 7.95898,17.50488h-9.42383c-0.8138,-5.66406 -2.57975,-9.76562 -5.29785,-12.30469c-2.7181,-2.53906 -6.51855,-3.80859 -11.40137,-3.80859c-5.98958,0 -10.68522,2.21354 -14.08691,6.64063c-3.40169,4.42708 -5.10254,10.72591 -5.10254,18.89648v6.88477c0,7.71484 1.61133,13.85091 4.83398,18.4082c3.22266,4.55729 7.73112,6.83594 13.52539,6.83594c5.20833,0 9.2041,-1.18001 11.9873,-3.54004c2.7832,-2.36003 4.63053,-6.46973 5.54199,-12.3291z" fill="#ff0000" stroke="none" stroke-width="1"/><path d="M226.5,212v-134h90v134z" fill="none" stroke="#000000" stroke-width="0"/></g></g></svg>