<svg version="1.1" xmlns="http://www.w3.org/2000/svg" xmlns:xlink="http://www.w3.org/1999/xlink" width="90" height="134" viewBox="0,0,90,134"><g transform="translate(-226.5,-78)"><g data-paper-data="{&quot;isPaintingLayer&quot;:true}" fill-rule="nonzero" stroke-linecap="butt" stroke-linejoin="miter" stroke-miterlimit="10" stroke-dasharray="" stroke-dashoffset="0" style="mix-blend-mode: normal"><path d="M267.68555,151.63086c0,7.25911 -0.95215,14.21712 -2.85645,20.87402c-1.9043,6.6569 -4.81771,12.80111 -8.74023,18.43262c-3.92253,5.63151 -8.03223,9.63542 -12.3291,12.01172l-1.9043,-5.51758c5.01302,-3.84115 9.04134,-9.80632 12.08496,-17.89551c3.04362,-8.08919 4.59798,-17.06543 4.66309,-26.92871v-1.5625c0,-6.83594 -0.71615,-13.19173 -2.14844,-19.06738c-1.43229,-5.87565 -3.42611,-11.14095 -5.98145,-15.7959c-2.55534,-4.65495 -5.42806,-8.28451 -8.61816,-10.88867l1.9043,-5.51758c4.29688,2.3763 8.3903,6.34766 12.28027,11.91406c3.88997,5.56641 6.80339,11.70247 8.74023,18.4082c1.93685,6.70573 2.90527,13.88346 2.90527,21.5332z" fill="#ff0000" stroke="none" stroke-width="1"/><path d="M226.5,212v-134h90v134z" fill="none" stroke="#000000" stroke-width="0"/></g></g></svg>