<svg version="1.1" xmlns="http://www.w3.org/2000/svg" xmlns:xlink="http://www.w3.org/1999/xlink" width="90" height="134" viewBox="0,0,90,134"><g transform="translate(-226.5,-78)"><g data-paper-data="{&quot;isPaintingLayer&quot;:true}" fill-rule="nonzero" stroke-linecap="butt" stroke-linejoin="miter" stroke-miterlimit="10" stroke-dasharray="" stroke-dashoffset="0" style="mix-blend-mode: normal"><path d="M301.66992,142.06055c0,5.14323 -1.52181,9.48079 -4.56543,13.0127c-3.04362,3.5319 -6.79525,5.29785 -11.25488,5.29785c-2.34375,0 -4.55729,-0.43132 -6.64062,-1.29395c-2.08333,-0.86263 -4.50033,-2.49837 -7.25098,-4.90723c-2.75065,-2.40885 -4.72819,-3.90625 -5.93262,-4.49219c-1.20443,-0.58594 -2.49023,-0.87891 -3.85742,-0.87891c-2.53906,0 -4.49219,0.87077 -5.85937,2.6123c-1.36719,1.74154 -2.05078,4.14225 -2.05078,7.20215l-7.86133,0.09766c0,-5.20833 1.4974,-9.48893 4.49219,-12.8418c2.99479,-3.35286 6.75456,-5.0293 11.2793,-5.0293c2.47396,0 4.85026,0.52083 7.12891,1.5625c2.27865,1.04167 4.85026,2.87272 7.71484,5.49316c2.86458,2.62044 5.33854,4.09342 7.42188,4.41895l1.41602,0.09766c2.47396,0 4.48405,-0.94401 6.03027,-2.83203c1.54622,-1.88802 2.31934,-4.37826 2.31934,-7.4707z" fill="#ff0000" stroke="none" stroke-width="1"/><path d="M226.5,212v-134h90v134z" fill="none" stroke="#000000" stroke-width="0"/></g></g></svg>