<svg version="1.1" xmlns="http://www.w3.org/2000/svg" xmlns:xlink="http://www.w3.org/1999/xlink" width="90" height="134" viewBox="0,0,90,134"><g transform="translate(-226.5,-78)"><g data-paper-data="{&quot;isPaintingLayer&quot;:true}" fill-rule="nonzero" stroke-linecap="butt" stroke-linejoin="miter" stroke-miterlimit="10" stroke-dasharray="" stroke-dashoffset="0" style="mix-blend-mode: normal"><path d="M280.52734,148.75c-1.88802,2.24609 -4.14225,4.05273 -6.7627,5.41992c-2.62044,1.36719 -5.49316,2.05078 -8.61816,2.05078c-4.10156,0 -7.67415,-1.00911 -10.71777,-3.02734c-3.04362,-2.01823 -5.39551,-4.8584 -7.05566,-8.52051c-1.66016,-3.66211 -2.49023,-7.70671 -2.49023,-12.13379c0,-4.7526 0.90332,-9.0332 2.70996,-12.8418c1.80664,-3.80859 4.37012,-6.72201 7.69043,-8.74023c3.32031,-2.01823 7.19401,-3.02734 11.62109,-3.02734c7.03125,0 12.57324,2.62858 16.62598,7.88574c4.05273,5.25716 6.0791,12.42676 6.0791,21.50879v2.63672c0,13.83464 -2.73437,23.93392 -8.20312,30.29785c-5.46875,6.36393 -13.7207,9.62728 -24.75586,9.79004h-1.75781v-7.61719h1.9043c7.45443,-0.13021 13.18359,-2.0752 17.1875,-5.83496c4.00391,-3.75977 6.1849,-9.70866 6.54297,-17.84668zM266.61133,148.75c3.02734,0 5.81868,-0.92773 8.37402,-2.7832c2.55534,-1.85547 4.41895,-4.15039 5.59082,-6.88477v-3.61328c0,-5.92448 -1.28581,-10.74219 -3.85742,-14.45312c-2.57161,-3.71094 -5.82682,-5.56641 -9.76562,-5.56641c-3.97135,0 -7.16146,1.52181 -9.57031,4.56543c-2.40885,3.04362 -3.61328,7.05566 -3.61328,12.03613c0,4.85026 1.16374,8.84603 3.49121,11.9873c2.32747,3.14128 5.44434,4.71191 9.35059,4.71191z" fill="#ff0000" stroke="none" stroke-width="1"/><path d="M226.5,212v-134h90v134z" fill="none" stroke="#000000" stroke-width="0"/></g></g></svg>