<svg version="1.1" xmlns="http://www.w3.org/2000/svg" xmlns:xlink="http://www.w3.org/1999/xlink" width="90" height="134" viewBox="0,0,90,134"><g transform="translate(-226.5,-78)"><g data-paper-data="{&quot;isPaintingLayer&quot;:true}" fill-rule="nonzero" stroke-linecap="butt" stroke-linejoin="miter" stroke-miterlimit="10" stroke-dasharray="" stroke-dashoffset="0" style="mix-blend-mode: normal"><path d="M244.63867,153.14453c0,-8.10547 1.92057,-14.62402 5.76172,-19.55566c3.84115,-4.93164 8.87044,-7.39746 15.08789,-7.39746c6.1849,0 11.08398,2.11589 14.69727,6.34766v-27.53906h9.0332v75h-8.30078l-0.43945,-5.66406c-3.61328,4.42708 -8.64258,6.64063 -15.08789,6.64063c-6.11979,0 -11.1084,-2.50651 -14.96582,-7.51953c-3.85742,-5.01302 -5.78613,-11.55599 -5.78613,-19.62891zM253.67188,154.16992c0,5.98958 1.23698,10.67708 3.71094,14.0625c2.47396,3.38542 5.89193,5.07813 10.25391,5.07813c5.72917,0 9.91211,-2.57161 12.54883,-7.71484v-24.26758c-2.70182,-4.98047 -6.85221,-7.4707 -12.45117,-7.4707c-4.42708,0 -7.8776,1.70898 -10.35156,5.12695c-2.47396,3.41797 -3.71094,8.47982 -3.71094,15.18555z" fill="#ff0000" stroke="none" stroke-width="1"/><path d="M226.5,212v-134h90v134z" fill="none" stroke="#000000" stroke-width="0"/><path d="M226.5,212v-134h90v134z" fill="none" stroke="#000000" stroke-width="0"/></g></g></svg>