<svg version="1.1" xmlns="http://www.w3.org/2000/svg" xmlns:xlink="http://www.w3.org/1999/xlink" width="90" height="134" viewBox="0,0,90,134"><g transform="translate(-226.5,-78)"><g data-paper-data="{&quot;isPaintingLayer&quot;:true}" fill-rule="nonzero" stroke-linecap="butt" stroke-linejoin="miter" stroke-miterlimit="10" stroke-dasharray="" stroke-dashoffset="0" style="mix-blend-mode: normal"><path d="M257.28516,146.21094l-7.22656,-1.85547l3.61328,-35.44922h36.42578v8.34961h-28.75977l-2.14844,19.38477c3.48307,-2.05078 7.43815,-3.07617 11.86523,-3.07617c6.47786,0 11.62109,2.1403 15.42969,6.4209c3.80859,4.2806 5.71289,10.06673 5.71289,17.3584c0,7.32422 -1.97754,13.09408 -5.93262,17.30957c-3.95508,4.21549 -9.48079,6.32324 -16.57715,6.32324c-6.28255,0 -11.40951,-1.74154 -15.38086,-5.22461c-3.97135,-3.48307 -6.23372,-8.30078 -6.78711,-14.45312h8.54492c0.55339,4.06901 2.00195,7.13704 4.3457,9.2041c2.34375,2.06706 5.4362,3.10059 9.27734,3.10059c4.19922,0 7.49512,-1.43229 9.8877,-4.29687c2.39258,-2.86458 3.58887,-6.81966 3.58887,-11.86523c0,-4.7526 -1.29395,-8.56934 -3.88184,-11.4502c-2.58789,-2.88086 -6.03027,-4.32129 -10.32715,-4.32129c-3.9388,0 -7.03125,0.86263 -9.27734,2.58789z" fill="#ff0000" stroke="none" stroke-width="1"/><path d="M226.5,212v-134h90v134z" fill="none" stroke="#000000" stroke-width="0"/></g></g></svg>