<svg version="1.1" xmlns="http://www.w3.org/2000/svg" xmlns:xlink="http://www.w3.org/1999/xlink" width="90" height="134" viewBox="0,0,90,134"><g transform="translate(-226.5,-78)"><g data-paper-data="{&quot;isPaintingLayer&quot;:true}" fill-rule="nonzero" stroke-linecap="butt" stroke-linejoin="miter" stroke-miterlimit="10" stroke-dasharray="" stroke-dashoffset="0" style="mix-blend-mode: normal"><path d="M281.79688,161.68945c0,-2.99479 -1.0498,-5.51758 -3.14941,-7.56836c-2.09961,-2.05078 -5.63965,-3.90625 -10.62012,-5.56641c-6.93359,-2.11589 -11.9873,-4.87467 -15.16113,-8.27637c-3.17383,-3.40169 -4.76074,-7.72298 -4.76074,-12.96387c0,-5.33854 1.55436,-9.7168 4.66309,-13.13477c3.10872,-3.41797 7.38118,-5.45247 12.81738,-6.10352v-10.69336h7.27539v10.74219c5.46875,0.7487 9.72493,3.04362 12.76855,6.88477c3.04362,3.84115 4.56543,9.09831 4.56543,15.77148h-8.98437c0,-4.58984 -1.09049,-8.23568 -3.27148,-10.9375c-2.18099,-2.70182 -5.12695,-4.05273 -8.83789,-4.05273c-3.8737,0 -6.83594,1.00098 -8.88672,3.00293c-2.05078,2.00195 -3.07617,4.79329 -3.07617,8.37402c0,3.32031 1.08236,5.96517 3.24707,7.93457c2.16471,1.9694 5.72917,3.75977 10.69336,5.37109c4.96419,1.61133 8.83789,3.38542 11.62109,5.32227c2.7832,1.93685 4.83398,4.19108 6.15234,6.7627c1.31836,2.57161 1.97754,5.58268 1.97754,9.0332c0,5.5013 -1.65202,9.92839 -4.95605,13.28125c-3.30404,3.35286 -7.93457,5.33854 -13.8916,5.95703v9.32617h-7.22656v-9.32617c-6.05469,-0.55339 -10.79915,-2.70996 -14.2334,-6.46973c-3.43424,-3.75977 -5.15137,-8.8623 -5.15137,-15.30762h9.0332c0,4.52474 1.18815,8.00781 3.56445,10.44922c2.3763,2.44141 5.74544,3.66211 10.10742,3.66211c4.26432,0 7.61719,-1.02539 10.05859,-3.07617c2.44141,-2.05078 3.66211,-4.85026 3.66211,-8.39844z" fill="#ff0000" stroke="none" stroke-width="1"/><path d="M226.5,212v-134h90v134z" fill="none" stroke="#000000" stroke-width="0"/></g></g></svg>