<svg version="1.1" xmlns="http://www.w3.org/2000/svg" xmlns:xlink="http://www.w3.org/1999/xlink" width="90" height="134" viewBox="0,0,90,134"><g transform="translate(-226.5,-78)"><g data-paper-data="{&quot;isPaintingLayer&quot;:true}" fill-rule="nonzero" stroke-linecap="butt" stroke-linejoin="miter" stroke-miterlimit="10" stroke-dasharray="" stroke-dashoffset="0" style="mix-blend-mode: normal"><path d="M259.04297,147.43164v-7.37305h6.78711c4.26432,-0.0651 7.61719,-1.18815 10.05859,-3.36914c2.44141,-2.18099 3.66211,-5.12695 3.66211,-8.83789c0,-8.33333 -4.15039,-12.5 -12.45117,-12.5c-3.90625,0 -7.02311,1.11491 -9.35059,3.34473c-2.32747,2.22982 -3.49121,5.18392 -3.49121,8.8623h-9.0332c0,-5.63151 2.05892,-10.31087 6.17676,-14.03809c4.11784,-3.72721 9.35059,-5.59082 15.69824,-5.59082c6.70573,0 11.96289,1.77409 15.77148,5.32227c3.80859,3.54818 5.71289,8.47982 5.71289,14.79492c0,3.09245 -1.00098,6.08724 -3.00293,8.98438c-2.00195,2.89714 -4.72819,5.06185 -8.17871,6.49414c3.90625,1.23698 6.92546,3.28776 9.05762,6.15234c2.13216,2.86458 3.19824,6.36393 3.19824,10.49805c0,6.38021 -2.08333,11.44206 -6.25,15.18555c-4.16667,3.74349 -9.58659,5.61523 -16.25977,5.61523c-6.67318,0 -12.10124,-1.80664 -16.28418,-5.41992c-4.18294,-3.61328 -6.27441,-8.38216 -6.27441,-14.30664h9.08203c0,3.74349 1.2207,6.73828 3.66211,8.98438c2.44141,2.24609 5.71289,3.36914 9.81445,3.36914c4.36198,0 7.69857,-1.13932 10.00977,-3.41797c2.3112,-2.27865 3.4668,-5.55013 3.4668,-9.81445c0,-4.13411 -1.26953,-7.30794 -3.80859,-9.52148c-2.53906,-2.21354 -6.20117,-3.35286 -10.98633,-3.41797z" fill="#ff0000" stroke="none" stroke-width="1"/><path d="M226.5,212v-134h90v134z" fill="none" stroke="#000000" stroke-width="0"/></g></g></svg>