<svg version="1.1" xmlns="http://www.w3.org/2000/svg" xmlns:xlink="http://www.w3.org/1999/xlink" width="90" height="134" viewBox="0,0,90,134"><g transform="translate(-226.5,-78)"><g data-paper-data="{&quot;isPaintingLayer&quot;:true}" fill-rule="nonzero" stroke-linecap="butt" stroke-linejoin="miter" stroke-miterlimit="10" stroke-dasharray="" stroke-dashoffset="0" style="mix-blend-mode: normal"><path d="M257.43164,159.98047c0.0651,-3.8737 0.50456,-6.93359 1.31836,-9.17969c0.8138,-2.24609 2.47396,-4.73633 4.98047,-7.4707l6.39648,-6.5918c2.73438,-3.09245 4.10156,-6.41276 4.10156,-9.96094c0,-3.41797 -0.89518,-6.09538 -2.68555,-8.03223c-1.79036,-1.93685 -4.39453,-2.90527 -7.8125,-2.90527c-3.32031,0 -5.98958,0.87891 -8.00781,2.63672c-2.01823,1.75781 -3.02734,4.11784 -3.02734,7.08008h-9.0332c0.0651,-5.27344 1.94499,-9.52962 5.63965,-12.76855c3.69466,-3.23893 8.50423,-4.8584 14.42871,-4.8584c6.15234,0 10.94564,1.65202 14.37988,4.95605c3.43424,3.30404 5.15137,7.83691 5.15137,13.59863c0,5.69661 -2.63672,11.31185 -7.91016,16.8457l-5.32227,5.27344c-2.3763,2.63672 -3.56445,6.42904 -3.56445,11.37695zM257.04102,175.45898c0,-1.46484 0.44759,-2.69368 1.34277,-3.68652c0.89518,-0.99284 2.22168,-1.48926 3.97949,-1.48926c1.75781,0 3.09245,0.49642 4.00391,1.48926c0.91146,0.99284 1.36719,2.22168 1.36719,3.68652c0,1.46484 -0.45573,2.67741 -1.36719,3.6377c-0.91146,0.96029 -2.24609,1.44043 -4.00391,1.44043c-1.75781,0 -3.08431,-0.48014 -3.97949,-1.44043c-0.89518,-0.96029 -1.34277,-2.17285 -1.34277,-3.6377z" fill="#ff0000" stroke="none" stroke-width="1"/><path d="M226.5,212v-134h90v134z" fill="none" stroke="#000000" stroke-width="0"/></g></g></svg>