<svg version="1.1" xmlns="http://www.w3.org/2000/svg" xmlns:xlink="http://www.w3.org/1999/xlink" width="90" height="134" viewBox="0,0,90,134"><g transform="translate(-226.5,-78)"><g data-paper-data="{&quot;isPaintingLayer&quot;:true}" fill-rule="nonzero" stroke-linecap="butt" stroke-linejoin="miter" stroke-miterlimit="10" stroke-dasharray="" stroke-dashoffset="0" style="mix-blend-mode: normal"><path d="M244.93164,160.9082c0,-3.41797 0.95215,-6.55924 2.85645,-9.42383c1.9043,-2.86458 5.54199,-6.20117 10.91309,-10.00977c-3.15755,-3.84115 -5.27344,-6.93359 -6.34766,-9.27734c-1.07422,-2.34375 -1.61133,-4.67122 -1.61133,-6.98242c0,-5.40365 1.59505,-9.63542 4.78516,-12.69531c3.1901,-3.0599 7.51953,-4.58984 12.98828,-4.58984c4.88281,0 8.91927,1.42415 12.10938,4.27246c3.1901,2.84831 4.78516,6.43717 4.78516,10.7666c0,2.86458 -0.72428,5.50944 -2.17285,7.93457c-1.44857,2.42513 -3.97949,4.97233 -7.59277,7.6416l-5.22461,3.85742l15.82031,18.89648c2.21354,-4.23177 3.32031,-8.93555 3.32031,-14.11133h8.1543c0,8.30078 -2.00195,15.18555 -6.00586,20.6543l10.15625,12.1582h-10.83984l-4.73633,-5.61523c-2.40885,2.14844 -5.23275,3.78418 -8.47168,4.90723c-3.23893,1.12305 -6.53483,1.68457 -9.8877,1.68457c-6.93359,0 -12.5,-1.83919 -16.69922,-5.51758c-4.19922,-3.67839 -6.29883,-8.52865 -6.29883,-14.55078zM267.92969,173.60352c4.78516,0 9.16341,-1.82292 13.13477,-5.46875l-17.33398,-20.75195l-1.61133,1.17188c-5.4362,4.00391 -8.1543,8.12174 -8.1543,12.35352c0,3.84115 1.24512,6.91732 3.73535,9.22852c2.49023,2.3112 5.90007,3.4668 10.22949,3.4668zM259.77539,124.92188c0,3.125 1.92057,7.03125 5.76172,11.71875l5.76172,-4.05273c2.21354,-1.5625 3.72721,-3.05176 4.54102,-4.46777c0.8138,-1.41602 1.2207,-3.13314 1.2207,-5.15137c0,-2.18099 -0.8138,-3.99577 -2.44141,-5.44434c-1.6276,-1.44857 -3.67839,-2.17285 -6.15234,-2.17285c-2.66927,0 -4.78516,0.90332 -6.34766,2.70996c-1.5625,1.80664 -2.34375,4.09342 -2.34375,6.86035z" fill="#ff0000" stroke="none" stroke-width="1"/><path d="M226.5,212v-134h90v134z" fill="none" stroke="#000000" stroke-width="0"/></g></g></svg>