<svg version="1.1" xmlns="http://www.w3.org/2000/svg" xmlns:xlink="http://www.w3.org/1999/xlink" width="90" height="134" viewBox="0,0,90,134"><g transform="translate(-226.5,-78)"><g data-paper-data="{&quot;isPaintingLayer&quot;:true}" fill-rule="nonzero" stroke-linecap="butt" stroke-linejoin="miter" stroke-miterlimit="10" stroke-dasharray="" stroke-dashoffset="0" style="mix-blend-mode: normal"><path d="M268.02734,173.60352c3.22266,0 6.03841,-0.97656 8.44727,-2.92969c2.40885,-1.95312 3.74349,-4.39453 4.00391,-7.32422h8.54492c-0.16276,3.02734 -1.20443,5.9082 -3.125,8.64258c-1.92057,2.73438 -4.48405,4.91536 -7.69043,6.54297c-3.20638,1.6276 -6.59993,2.44141 -10.18066,2.44141c-7.19401,0 -12.91504,-2.40072 -17.16309,-7.20215c-4.24805,-4.80143 -6.37207,-11.36882 -6.37207,-19.70215v-1.51367c0,-5.14323 0.94401,-9.7168 2.83203,-13.7207c1.88802,-4.00391 4.59798,-7.11263 8.12988,-9.32617c3.5319,-2.21354 7.70671,-3.32031 12.52441,-3.32031c5.92448,0 10.84798,1.77409 14.77051,5.32227c3.92253,3.54818 6.014,8.1543 6.27441,13.81836h-8.54492c-0.26042,-3.41797 -1.55436,-6.22559 -3.88184,-8.42285c-2.32747,-2.19727 -5.2002,-3.2959 -8.61816,-3.2959c-4.58984,0 -8.14616,1.65202 -10.66895,4.95605c-2.52279,3.30404 -3.78418,8.08105 -3.78418,14.33105v1.70898c0,6.08724 1.25326,10.77474 3.75977,14.0625c2.50651,3.28776 6.08724,4.93164 10.74219,4.93164z" fill="#ff0000" stroke="none" stroke-width="1"/><path d="M226.5,212v-134h90v134z" fill="none" stroke="#000000" stroke-width="0"/></g></g></svg>