<svg version="1.1" xmlns="http://www.w3.org/2000/svg" xmlns:xlink="http://www.w3.org/1999/xlink" width="90" height="134" viewBox="0,0,90,134"><g transform="translate(-226.5,-78)"><g data-paper-data="{&quot;isPaintingLayer&quot;:true}" fill-rule="nonzero" stroke-linecap="butt" stroke-linejoin="miter" stroke-miterlimit="10" stroke-dasharray="" stroke-dashoffset="0" style="mix-blend-mode: normal"><path d="M240.92773,192.25586c6.60807,-2.11589 10.02604,-7.50326 10.25391,-16.16211v-10.74219c0,-7.51953 2.94596,-12.64648 8.83789,-15.38086c-5.89193,-2.66927 -8.83789,-7.79622 -8.83789,-15.38086v-9.91211c0,-9.17969 -3.40169,-14.86003 -10.20508,-17.04102l1.85547,-5.61523c5.76172,1.6276 10.09115,4.27246 12.98828,7.93457c2.89714,3.66211 4.36198,8.50423 4.39453,14.52637v10.25391c0,7.77995 3.45052,11.66992 10.35156,11.66992v7.08008c-6.90104,0 -10.35156,3.95508 -10.35156,11.86523v9.86328c0,6.11979 -1.47298,11.01888 -4.41895,14.69727c-2.94596,3.67839 -7.26725,6.33138 -12.96387,7.95898z" fill="#ff0000" stroke="none" stroke-width="1"/><path d="M226.5,212v-134h90v134z" fill="none" stroke="#000000" stroke-width="0"/></g></g></svg>