<svg version="1.1" xmlns="http://www.w3.org/2000/svg" xmlns:xlink="http://www.w3.org/1999/xlink" width="90" height="134" viewBox="0,0,90,134"><g transform="translate(-226.5,-78)"><g data-paper-data="{&quot;isPaintingLayer&quot;:true}" fill-rule="nonzero" stroke-linecap="butt" stroke-linejoin="miter" stroke-miterlimit="10" stroke-dasharray="" stroke-dashoffset="0" style="mix-blend-mode: normal"><path d="M244.6875,153.14453c0,-8.23568 1.9043,-14.78678 5.71289,-19.65332c3.80859,-4.86654 8.85417,-7.2998 15.13672,-7.2998c6.44531,0 11.47461,2.27865 15.08789,6.83594l0.43945,-5.85937h8.25195v51.5625c0,6.83594 -2.02637,12.22331 -6.0791,16.16211c-4.05273,3.9388 -9.49707,5.9082 -16.33301,5.9082c-3.80859,0 -7.53581,-0.8138 -11.18164,-2.44141c-3.64583,-1.6276 -6.42904,-3.85742 -8.34961,-6.68945l4.6875,-5.41992c3.8737,4.78516 8.61003,7.17773 14.20898,7.17773c4.39453,0 7.82064,-1.23698 10.27832,-3.71094c2.45768,-2.47396 3.68652,-5.95703 3.68652,-10.44922v-4.54102c-3.61328,4.16667 -8.54492,6.25 -14.79492,6.25c-6.1849,0 -11.18978,-2.49023 -15.01465,-7.4707c-3.82487,-4.98047 -5.7373,-11.76758 -5.7373,-20.36133zM253.76953,154.16992c0,5.95703 1.2207,10.63639 3.66211,14.03809c2.44141,3.40169 5.85938,5.10254 10.25391,5.10254c5.69661,0 9.87956,-2.58789 12.54883,-7.76367v-24.12109c-2.76693,-5.04557 -6.91732,-7.56836 -12.45117,-7.56836c-4.39453,0 -7.82878,1.70898 -10.30273,5.12695c-2.47396,3.41797 -3.71094,8.47982 -3.71094,15.18555z" fill="#ff0000" stroke="none" stroke-width="1"/><path d="M226.5,212v-134h90v134z" fill="none" stroke="#000000" stroke-width="0"/></g></g></svg>