<svg version="1.1" xmlns="http://www.w3.org/2000/svg" xmlns:xlink="http://www.w3.org/1999/xlink" width="90" height="134" viewBox="0,0,90,134"><g transform="translate(-226.5,-78)"><g data-paper-data="{&quot;isPaintingLayer&quot;:true}" fill-rule="nonzero" stroke-linecap="butt" stroke-linejoin="miter" stroke-miterlimit="10" stroke-dasharray="" stroke-dashoffset="0" style="mix-blend-mode: normal"><path d="M245.41992,132.14844c0,-1.5625 0.46387,-2.86458 1.3916,-3.90625c0.92773,-1.04167 2.31934,-1.5625 4.1748,-1.5625c1.85547,0 3.26335,0.52083 4.22363,1.5625c0.96029,1.04167 1.44043,2.34375 1.44043,3.90625c0,1.4974 -0.48014,2.75065 -1.44043,3.75977c-0.96029,1.00911 -2.36816,1.51367 -4.22363,1.51367c-1.85547,0 -3.24707,-0.50456 -4.1748,-1.51367c-0.92773,-1.00911 -1.3916,-2.26237 -1.3916,-3.75977zM247.12891,194.16016l-5.12695,-3.51562c3.0599,-4.26432 4.65495,-8.65885 4.78516,-13.18359v-8.1543h8.83789v7.08008c0,3.28776 -0.80566,6.57552 -2.41699,9.86328c-1.61133,3.28776 -3.6377,5.92448 -6.0791,7.91016z" fill="#ff0000" stroke="none" stroke-width="1"/><path d="M226.5,212v-134h90v134z" fill="none" stroke="#000000" stroke-width="0"/></g></g></svg>