<svg version="1.1" xmlns="http://www.w3.org/2000/svg" xmlns:xlink="http://www.w3.org/1999/xlink" width="1662.94064" height="1207.88135" viewBox="0,0,1662.94064,1207.88135"><defs><linearGradient x1="21.59974" y1="352.44642" x2="21.59974" y2="787.88135" gradientUnits="userSpaceOnUse" id="color-1"><stop offset="0" stop-color="#e6e6e6" stop-opacity="0"/><stop offset="1" stop-color="#e6e6e6"/></linearGradient><linearGradient x1="21.59974" y1="-420.00002" x2="21.59974" y2="785.64418" gradientUnits="userSpaceOnUse" id="color-2"><stop offset="0" stop-color="#000000"/><stop offset="1" stop-color="#000000" stop-opacity="0.8549"/></linearGradient></defs><g transform="translate(809.87061,420)"><g data-paper-data="{&quot;isPaintingLayer&quot;:true}" fill-rule="nonzero" stroke="none" stroke-width="0" stroke-linecap="butt" stroke-linejoin="miter" stroke-miterlimit="10" stroke-dasharray="" stroke-dashoffset="0" style="mix-blend-mode: normal"><path d="M-809.87061,787.88135v-435.43484h1662.94064v435.43484z" fill="url(#color-1)"/><path d="M-809.87061,785.64418v-1205.64418h1662.94064v1205.64418z" fill="url(#color-2)"/><path d="M-412.48356,598.97769v-572.87992h93.65462v572.87994z" fill="#252525"/><path d="M-549.5391,44.3718v-86.80187h365.48147v86.80187z" fill="#252525"/><path d="M-101.11494,600.23203v-799.49069h318.70018v799.49069z" fill="#252525"/><path d="M302.66849,601.41973v-456.85183h228.4259v456.85183z" fill="#252525"/><g><path d="M-69.84467,-73.62443v-102.79167h68.52777v102.79167z" fill="#333333"/><path d="M21.52571,-73.62443v-102.79167h68.52777v102.79167z" fill="#3f3f3f"/><path d="M112.89602,-73.62443v-102.79167h68.5278v102.79167z" fill="#3f3f3f"/></g><g><path d="M-69.84467,52.0098v-102.79165h68.52777v102.79165z" fill="#3f3f3f"/><path d="M21.52571,52.0098v-102.79165h68.52777v102.79167z" fill="#333333"/><path d="M112.89602,52.0098v-102.79165h68.5278v102.79167z" fill="#333333"/></g><g><path d="M-69.84467,177.64406v-102.79165h68.52777v102.79165z" fill="#333333"/><path d="M21.52571,177.64406v-102.79167h68.52777v102.79167z" fill="#333333"/><path d="M112.89602,177.64406v-102.79167h68.5278v102.79167z" fill="#3f3f3f"/></g><g><path d="M-69.84467,303.27833v-102.79165h68.52777v102.79165z" fill="#3f3f3f"/><path d="M21.52571,303.27833v-102.79165h68.52777v102.79165z" fill="#333333"/><path d="M112.89602,303.27833v-102.79165h68.5278v102.79165z" fill="#333333"/></g><g><path d="M-69.84467,428.91257v-102.79165h68.52777v102.79165z" fill="#3f3f3f"/><path d="M21.52571,428.91257v-102.79167h68.52777v102.79167z" fill="#333333"/><path d="M112.89602,428.91257v-102.79167h68.5278v102.79167z" fill="#333333"/></g><path d="M-69.84467,554.54684v-102.79167h68.52777v102.79167z" fill="#333333"/><path d="M21.52571,607.21195v-155.45676h68.52777v155.45676z" fill="#333333"/><path d="M112.89602,554.54684v-102.79167h68.5278v102.79167z" fill="#333333"/><path d="M335.2058,478.48453v-308.37499h68.52777v308.37499z" fill="#333333"/><path d="M426.57614,272.90119v-102.79167h68.52777v102.79167z" fill="#3f3f3f"/><path d="M426.57614,604.11984v-308.37497h68.52777v308.37497z" fill="#333333"/><path d="M335.2058,604.11984v-102.79165h68.52777v102.79165z" fill="#333333"/><path d="M-761.83929,588.10446v-439.48643h191.57241v439.48645z" fill="#252525"/><path d="M620.73476,597.05316v-260.51245h191.57241v260.51245z" fill="#252525"/></g></g></svg>