<svg version="1.1" xmlns="http://www.w3.org/2000/svg" xmlns:xlink="http://www.w3.org/1999/xlink" width="98.43432" height="134" viewBox="0,0,98.43432,134"><g transform="translate(-226.5,-78)"><g data-paper-data="{&quot;isPaintingLayer&quot;:true}" fill-rule="nonzero" stroke-linecap="butt" stroke-linejoin="miter" stroke-miterlimit="10" stroke-dasharray="" stroke-dashoffset="0" style="mix-blend-mode: normal"><path d="M324.86328,155.48828c-0.39062,7.8776 -2.34375,14.09505 -5.85937,18.65234c-3.51562,4.55729 -8.2194,6.83594 -14.11133,6.83594c-6.08724,0 -9.99349,-2.73437 -11.71875,-8.20312c-1.75781,2.76693 -3.7679,4.82585 -6.03027,6.17676c-2.26237,1.35091 -4.59798,2.02637 -7.00684,2.02637c-4.6224,0 -8.12174,-1.88802 -10.49805,-5.66406c-2.3763,-3.77604 -3.25521,-9.00065 -2.63672,-15.67383c0.48828,-5.37109 1.71712,-10.16439 3.68652,-14.37988c1.9694,-4.21549 4.50846,-7.52767 7.61719,-9.93652c3.10872,-2.40885 6.37207,-3.61328 9.79004,-3.61328c2.63672,0 4.99674,0.34993 7.08008,1.0498c2.08333,0.69987 4.42708,2.0752 7.03125,4.12598l-2.53906,27.05078c-0.61849,7.51953 1.46484,11.2793 6.25,11.2793c3.67839,0 6.6569,-1.82292 8.93555,-5.46875c2.27865,-3.64583 3.51563,-8.39844 3.71094,-14.25781c0.61849,-12.66276 -1.7334,-22.31445 -7.05566,-28.95508c-5.32227,-6.64062 -13.4196,-9.96094 -24.29199,-9.96094c-6.54297,0 -12.35352,1.61947 -17.43164,4.8584c-5.07812,3.23893 -9.08203,7.91829 -12.01172,14.03809c-2.92969,6.11979 -4.57357,13.18359 -4.93164,21.19141c-0.39062,8.07292 0.58594,15.07975 2.92969,21.02051c2.34375,5.94076 5.91634,10.48177 10.71777,13.62305c4.80143,3.14128 10.60384,4.71191 17.40723,4.71191c2.92969,0 5.86751,-0.35807 8.81348,-1.07422c2.94596,-0.71615 5.39551,-1.64388 7.34863,-2.7832l1.80664,5.61523c-2.01823,1.26953 -4.69564,2.3112 -8.03223,3.125c-3.33659,0.8138 -6.71387,1.2207 -10.13184,1.2207c-8.13802,0 -15.13672,-1.83105 -20.99609,-5.49316c-5.85937,-3.66211 -10.24577,-8.93555 -13.15918,-15.82031c-2.91341,-6.88477 -4.1748,-14.93327 -3.78418,-24.14551c0.39063,-8.95182 2.39258,-17.00033 6.00586,-24.14551c3.61328,-7.14518 8.51237,-12.66276 14.69727,-16.55273c6.1849,-3.88997 13.16732,-5.83496 20.94727,-5.83496c8.10547,0 15.05534,1.82292 20.84961,5.46875c5.79427,3.64583 10.10742,8.90299 12.93945,15.77148c2.83203,6.86849 4.05273,14.90885 3.66211,24.12109zM274.76563,159.63867c-0.45573,4.6224 -0.02441,8.17057 1.29395,10.64453c1.31836,2.47396 3.40983,3.71094 6.27441,3.71094c1.95313,0 3.83301,-0.83008 5.63965,-2.49023c1.80664,-1.66016 3.2959,-4.03646 4.46777,-7.12891l0.04883,-0.43945l2.24609,-24.56055c-1.82292,-0.94401 -3.77604,-1.41602 -5.85937,-1.41602c-3.80859,0 -6.95801,1.93685 -9.44824,5.81055c-2.49023,3.8737 -4.0446,9.16341 -4.66309,15.86914z" fill="#ff0000" stroke="none" stroke-width="1"/><path d="M226.5,212v-134h90v134z" fill="none" stroke="#000000" stroke-width="0"/></g></g></svg>