<svg version="1.1" xmlns="http://www.w3.org/2000/svg" xmlns:xlink="http://www.w3.org/1999/xlink" width="90" height="134" viewBox="0,0,90,134"><g transform="translate(-226.5,-78)"><g data-paper-data="{&quot;isPaintingLayer&quot;:true}" fill-rule="nonzero" stroke-linecap="butt" stroke-linejoin="miter" stroke-miterlimit="10" stroke-dasharray="" stroke-dashoffset="0" style="mix-blend-mode: normal"><path d="M269.19922,148.31055c-8.04036,-2.3112 -13.8916,-5.15137 -17.55371,-8.52051c-3.66211,-3.36914 -5.49316,-7.52767 -5.49316,-12.47559c0,-5.59896 2.23796,-10.22949 6.71387,-13.8916c4.47591,-3.66211 10.2946,-5.49316 17.45605,-5.49316c4.88281,0 9.23665,0.94401 13.06152,2.83203c3.82487,1.88802 6.78711,4.49219 8.88672,7.8125c2.09961,3.32031 3.14941,6.94987 3.14941,10.88867h-9.42383c0,-4.29687 -1.36719,-7.67415 -4.10156,-10.13184c-2.73437,-2.45768 -6.5918,-3.68652 -11.57227,-3.68652c-4.6224,0 -8.22754,1.01725 -10.81543,3.05176c-2.58789,2.03451 -3.88184,4.8584 -3.88184,8.47168c0,2.89714 1.22884,5.34668 3.68652,7.34863c2.45768,2.00195 6.64063,3.83301 12.54883,5.49316c5.9082,1.66016 10.5306,3.49121 13.86719,5.49316c3.33659,2.00195 5.81055,4.33757 7.42188,7.00684c1.61133,2.66927 2.41699,5.81055 2.41699,9.42383c0,5.76172 -2.24609,10.37598 -6.73828,13.84277c-4.49219,3.4668 -10.49805,5.2002 -18.01758,5.2002c-4.88281,0 -9.4401,-0.93587 -13.67187,-2.80762c-4.23177,-1.87174 -7.49512,-4.43522 -9.79004,-7.69043c-2.29492,-3.25521 -3.44238,-6.94987 -3.44238,-11.08398h9.42383c0,4.29688 1.58691,7.69043 4.76074,10.18066c3.17383,2.49023 7.41374,3.73535 12.71973,3.73535c4.94792,0 8.74023,-1.00911 11.37695,-3.02734c2.63672,-2.01823 3.95508,-4.76888 3.95508,-8.25195c0,-3.48307 -1.2207,-6.17676 -3.66211,-8.08105c-2.44141,-1.9043 -6.86849,-3.78418 -13.28125,-5.63965z" fill="#ff0000" stroke="none" stroke-width="1"/><path d="M226.5,212v-134h90v134z" fill="none" stroke="#000000" stroke-width="0"/></g></g></svg>