<svg version="1.1" xmlns="http://www.w3.org/2000/svg" xmlns:xlink="http://www.w3.org/1999/xlink" width="90" height="134" viewBox="0,0,90,134"><g transform="translate(-226.5,-78)"><g data-paper-data="{&quot;isPaintingLayer&quot;:true}" fill-rule="nonzero" stroke-linecap="butt" stroke-linejoin="miter" stroke-miterlimit="10" stroke-dasharray="" stroke-dashoffset="0" style="mix-blend-mode: normal"><path d="M246.49414,151.14258c0,-7.35677 0.9847,-14.42057 2.9541,-21.19141c1.9694,-6.77083 4.90723,-12.92318 8.81348,-18.45703c3.90625,-5.53385 7.95898,-9.4401 12.1582,-11.71875l1.85547,5.95703c-4.7526,3.64583 -8.65072,9.21224 -11.69434,16.69922c-3.04362,7.48698 -4.71191,15.86914 -5.00488,25.14648l-0.04883,4.15039c0,12.5651 2.29492,23.47005 6.88477,32.71484c2.76693,5.53385 6.05469,9.86328 9.86328,12.98828l-1.85547,5.51758c-4.32943,-2.40885 -8.46354,-6.44531 -12.40234,-12.10937c-7.68229,-11.06771 -11.52344,-24.30013 -11.52344,-39.69727z" fill="#ff0000" stroke="none" stroke-width="1"/><path d="M226.5,212v-134h90v134z" fill="none" stroke="#000000" stroke-width="0"/></g></g></svg>