<svg version="1.1" xmlns="http://www.w3.org/2000/svg" xmlns:xlink="http://www.w3.org/1999/xlink" width="90" height="134" viewBox="0,0,90,134"><g transform="translate(-226.5,-78)"><g data-paper-data="{&quot;isPaintingLayer&quot;:true}" fill-rule="nonzero" stroke-linecap="butt" stroke-linejoin="miter" stroke-miterlimit="10" stroke-dasharray="" stroke-dashoffset="0" style="mix-blend-mode: normal"><path d="M288.87695,108.90625h9.42383v48.33984c-0.03255,6.70573 -2.1403,12.19076 -6.32324,16.45508c-4.18294,4.26432 -9.85514,6.6569 -17.0166,7.17773l-2.49023,0.09766c-7.77995,0 -13.98112,-2.09961 -18.60352,-6.29883c-4.6224,-4.19922 -6.96615,-9.97721 -7.03125,-17.33398v-48.4375h9.27734v48.14453c0,5.14323 1.41602,9.139 4.24805,11.9873c2.83203,2.84831 6.86849,4.27246 12.10938,4.27246c5.30599,0 9.36686,-1.41602 12.18262,-4.24805c2.81576,-2.83203 4.22363,-6.81966 4.22363,-11.96289z" fill="#ff0000" stroke="none" stroke-width="1"/><path d="M226.5,212v-134h90v134z" fill="none" stroke="#000000" stroke-width="0"/></g></g></svg>