<svg version="1.1" xmlns="http://www.w3.org/2000/svg" xmlns:xlink="http://www.w3.org/1999/xlink" width="563" height="234" viewBox="0,0,563,234"><defs><radialGradient cx="417.27279" cy="53.71514" r="77.93466" gradientUnits="userSpaceOnUse" id="color-1"><stop offset="0" stop-color="#807d52"/><stop offset="1" stop-color="#807d52" stop-opacity="0"/></radialGradient><radialGradient cx="380.00765" cy="55.10892" r="109.9858" gradientUnits="userSpaceOnUse" id="color-2"><stop offset="0" stop-color="#ffffcc"/><stop offset="1" stop-color="#ffffff"/></radialGradient><radialGradient cx="388.83326" cy="35.5288" r="20.92669" gradientUnits="userSpaceOnUse" id="color-3"><stop offset="0" stop-color="#f6f6c8"/><stop offset="1" stop-color="#eaeabe"/></radialGradient><radialGradient cx="397.03482" cy="60.12025" r="27.90213" gradientUnits="userSpaceOnUse" id="color-4"><stop offset="0" stop-color="#f6f6c8"/><stop offset="1" stop-color="#eaeabe"/></radialGradient><radialGradient cx="397.39481" cy="85.05327" r="13.634" gradientUnits="userSpaceOnUse" id="color-5"><stop offset="0" stop-color="#f6f6c8"/><stop offset="1" stop-color="#eaeabe"/></radialGradient></defs><g transform="translate(41.5,47.5)"><g data-paper-data="{&quot;isPaintingLayer&quot;:true}" fill-rule="nonzero" stroke="none" stroke-linejoin="miter" stroke-miterlimit="10" stroke-dasharray="" stroke-dashoffset="0" style="mix-blend-mode: normal"><path d="M472.36627,-1.37833c14.10813,14.10846 22.84119,33.592 22.84119,55.09363c0,21.50163 -8.73306,40.9852 -22.84119,55.09332c-14.10846,14.10846 -33.592,22.84118 -55.09364,22.84118c-21.50163,0 -40.9852,-8.73272 -55.09332,-22.84118c-14.10846,-14.10813 -22.84118,-33.59169 -22.84118,-55.09332c0,-21.50163 8.73272,-40.98517 22.84118,-55.09363c14.10813,-14.10813 33.59169,-22.84118 55.09332,-22.84118c21.50164,0 40.98518,8.73305 55.09364,22.84118z" fill="url(#color-1)" stroke-width="0.64816" stroke-linecap="butt"/><g data-paper-data="{&quot;index&quot;:null}"><path d="M450.71,20.29563c8.58686,8.58706 13.90221,20.44566 13.90221,33.53255c0,13.08689 -5.31535,24.94549 -13.90221,33.53236c-8.58706,8.58706 -20.44565,13.90221 -33.53255,13.90221c-13.08689,0 -24.94549,-5.31514 -33.53236,-13.90221c-8.58706,-8.58686 -13.90221,-20.44546 -13.90221,-33.53236c0,-13.08689 5.31514,-24.94549 13.90221,-33.53255c8.58686,-8.58686 20.44546,-13.90221 33.53236,-13.90221c13.08689,0 24.94548,5.31535 33.53255,13.90221z" fill="url(#color-2)" stroke-width="0.64816" stroke-linecap="butt"/><path d="M402.14999,28.53577c1.71804,1.71686 2.7806,4.08921 2.7806,6.70643c0,2.61722 -1.06256,4.98957 -2.7806,6.70643c-1.71686,1.71804 -4.08901,2.7806 -6.70643,2.7806c-2.61722,0 -4.98937,-1.06256 -6.70623,-2.7806c-1.71804,-1.71686 -2.7806,-4.08921 -2.7806,-6.70643c0,-2.61722 1.06256,-4.98958 2.7806,-6.70643c1.71686,-1.71785 4.08901,-2.7804 6.70623,-2.7804c2.61742,0 4.98957,1.06255 6.70643,2.7804z" fill="url(#color-3)" stroke-width="0.58138" stroke-linecap="butt"/><path d="M414.79067,50.7964c2.29066,2.28928 3.70746,5.45221 3.70746,8.9419c0,3.4897 -1.4168,6.65283 -3.70746,8.94191c-2.28908,2.29066 -5.45222,3.70727 -8.94172,3.70727c-3.4897,0 -6.65282,-1.41661 -8.9419,-3.70727c-2.29066,-2.28908 -3.70747,-5.45221 -3.70747,-8.94191c0,-3.4897 1.41681,-6.65263 3.70747,-8.9419c2.28908,-2.29066 5.45221,-3.70727 8.9419,-3.70727c3.4895,0 6.65264,1.41661 8.94172,3.70727z" fill="url(#color-4)" stroke-width="0.77517" stroke-linecap="butt"/><path d="M406.07108,80.49727c1.11932,1.11853 1.81141,2.6641 1.81141,4.36929c0,1.70519 -0.69209,3.25075 -1.81141,4.36948c-1.11853,1.11912 -2.6643,1.8114 -4.36948,1.8114c-1.70499,0 -3.25076,-0.69228 -4.36929,-1.8114c-1.11932,-1.11873 -1.8114,-2.6643 -1.8114,-4.36948c0,-1.70519 0.69208,-3.25076 1.8114,-4.36929c1.11853,-1.11932 2.6643,-1.81161 4.36929,-1.81161c1.70519,0 3.25096,0.69229 4.36948,1.81161z" fill="url(#color-5)" stroke-width="0.37878" stroke-linecap="butt"/><path d="M462.2729,69.75879c0,0 -1.48778,5.8736 -3.57484,9.3543c-2.08706,3.4807 -4.29356,6.2712 -7.79316,9.60473c-3.4996,3.33353 -4.33088,3.19809 -7.37603,4.8446c-3.04515,1.64651 -6.61868,3.60469 -11.15424,5.17471c-4.53556,1.57002 -5.91112,1.489 -9.77443,2.06992c-3.86331,0.58092 -5.51966,0.22984 -5.51966,0.22984l10.69437,-24.9534c2.15616,-11.75455 5.11141,-24.83057 1.37982,-36.22276l-12.07418,-33.69316l14.7191,1.72497l9.77442,4.94467l8.04946,5.97974l8.04966,9.77443l5.17451,10.34942l1.955,10.11938v10.34922z" fill="#e4e4ba" stroke-width="0.58138" stroke-linecap="round"/></g><path d="M-41.5,186.5v-234h563v234z" fill="none" stroke-width="0" stroke-linecap="butt"/></g></g></svg>