<svg version="1.1" xmlns="http://www.w3.org/2000/svg" xmlns:xlink="http://www.w3.org/1999/xlink" width="90" height="134" viewBox="0,0,90,134"><g transform="translate(-226.5,-78)"><g data-paper-data="{&quot;isPaintingLayer&quot;:true}" fill-rule="nonzero" stroke-linecap="butt" stroke-linejoin="miter" stroke-miterlimit="10" stroke-dasharray="" stroke-dashoffset="0" style="mix-blend-mode: normal"><path d="M244.63867,153.14453c0,-8.30078 1.9043,-14.86816 5.71289,-19.70215c3.80859,-4.83398 8.91927,-7.25098 15.33203,-7.25098c6.25,0 11.18164,2.09961 14.79492,6.29883l0.39063,-5.32227h8.30078v73.14453h-9.0332v-25.19531c-3.64583,3.90625 -8.49609,5.85938 -14.55078,5.85938c-6.38021,0 -11.46647,-2.4821 -15.25879,-7.44629c-3.79232,-4.96419 -5.68848,-11.54785 -5.68848,-19.75098zM253.67188,154.16992c0,6.05469 1.27767,10.80729 3.83301,14.25781c2.55534,3.45052 5.99772,5.17578 10.32715,5.17578c5.37109,0 9.47266,-2.3763 12.30469,-7.12891v-25.87891c-2.86458,-4.65495 -6.93359,-6.98242 -12.20703,-6.98242c-4.36198,0 -7.82878,1.7334 -10.40039,5.2002c-2.57161,3.4668 -3.85742,8.58561 -3.85742,15.35645z" fill="#ff0000" stroke="none" stroke-width="1"/><path d="M226.5,212v-134h90v134z" fill="none" stroke="#000000" stroke-width="0"/></g></g></svg>