<svg version="1.1" xmlns="http://www.w3.org/2000/svg" xmlns:xlink="http://www.w3.org/1999/xlink" width="743.32174" height="539.91372" viewBox="0,0,743.32174,539.91372"><defs><linearGradient x1="248.40918" y1="289.34238" x2="248.40918" y2="483.97846" gradientUnits="userSpaceOnUse" id="color-1"><stop offset="0" stop-color="#e6e6e6" stop-opacity="0"/><stop offset="1" stop-color="#e6e6e6"/></linearGradient><linearGradient x1="248.40918" y1="-55.93527" x2="248.40918" y2="482.97846" gradientUnits="userSpaceOnUse" id="color-2"><stop offset="0" stop-color="#000000"/><stop offset="1" stop-color="#000000" stop-opacity="0.8549"/></linearGradient></defs><g transform="translate(123.2517,55.93526)"><g data-paper-data="{&quot;isPaintingLayer&quot;:true}" fill-rule="nonzero" stroke="none" stroke-width="0" stroke-linecap="butt" stroke-linejoin="miter" stroke-miterlimit="10" stroke-dasharray="" stroke-dashoffset="0" style="mix-blend-mode: normal"><path d="M-123.2517,483.97846v-194.63604h743.32174v194.63604z" fill="url(#color-1)"/><path d="M-123.2517,482.97846v-538.91372h743.32174v538.91372z" fill="url(#color-2)"/><path d="M54.37727,399.53997v-256.07294h41.8629v256.07295z" fill="#252525"/><path d="M-6.88551,151.63538v-38.79977h163.36742v38.79977z" fill="#252525"/><path d="M193.55666,400.10065v-357.36622h142.45654v357.36622z" fill="#252525"/><path d="M374.04476,400.63154v-204.20927h102.10463v204.20927z" fill="#252525"/><g><path d="M207.53423,98.89197v-45.94709h30.63139v45.94709z" fill="#333333"/><path d="M248.37609,98.89197v-45.94709h30.63139v45.94709z" fill="#3f3f3f"/><path d="M289.21792,98.89197v-45.94709h30.6314v45.94709z" fill="#3f3f3f"/></g><g><path d="M207.53423,155.04951v-45.94708h30.63139v45.94708z" fill="#3f3f3f"/><path d="M248.37609,155.04951v-45.94708h30.63139v45.94709z" fill="#333333"/><path d="M289.21792,155.04951v-45.94708h30.6314v45.94709z" fill="#333333"/></g><g><path d="M207.53423,211.20706v-45.94708h30.63139v45.94708z" fill="#333333"/><path d="M248.37609,211.20706v-45.94709h30.63139v45.94709z" fill="#333333"/><path d="M289.21792,211.20706v-45.94709h30.6314v45.94709z" fill="#3f3f3f"/></g><g><path d="M207.53423,267.36462v-45.94708h30.63139v45.94708z" fill="#3f3f3f"/><path d="M248.37609,267.36462v-45.94708h30.63139v45.94708z" fill="#333333"/><path d="M289.21792,267.36462v-45.94708h30.6314v45.94708z" fill="#333333"/></g><g><path d="M207.53423,323.52216v-45.94708h30.63139v45.94708z" fill="#3f3f3f"/><path d="M248.37609,323.52216v-45.94709h30.63139v45.94709z" fill="#333333"/><path d="M289.21792,323.52216v-45.94709h30.6314v45.94709z" fill="#333333"/></g><path d="M207.53423,379.67972v-45.94709h30.63139v45.94709z" fill="#333333"/><path d="M248.37609,403.22062v-69.48798h30.63139v69.48798z" fill="#333333"/><path d="M289.21792,379.67972v-45.94709h30.6314v45.94709z" fill="#333333"/><path d="M388.58869,345.68045v-137.84126h30.63139v137.84126z" fill="#333333"/><path d="M429.43053,253.78627v-45.94709h30.63139v45.94709z" fill="#3f3f3f"/><path d="M429.43053,401.83847v-137.84125h30.63139v137.84125z" fill="#333333"/><path d="M388.58869,401.83847v-45.94708h30.63139v45.94708z" fill="#333333"/><path d="M-101.78207,394.67972v-196.44707h85.6314v196.44708z" fill="#252525"/><path d="M516.21795,398.67972v-116.44707h85.6314v116.44707z" fill="#252525"/></g></g></svg>