<svg version="1.1" xmlns="http://www.w3.org/2000/svg" xmlns:xlink="http://www.w3.org/1999/xlink" width="90" height="134" viewBox="0,0,90,134"><g transform="translate(-226.5,-78)"><g data-paper-data="{&quot;isPaintingLayer&quot;:true}" fill-rule="nonzero" stroke-linecap="butt" stroke-linejoin="miter" stroke-miterlimit="10" stroke-dasharray="" stroke-dashoffset="0" style="mix-blend-mode: normal"><path d="M257.62695,108.90625l-0.68359,51.02539h-8.1543l-0.63477,-51.02539zM247.8125,175.45898c0,-1.46484 0.44759,-2.69368 1.34277,-3.68652c0.89518,-0.99284 2.22168,-1.48926 3.97949,-1.48926c1.75781,0 3.09245,0.49642 4.00391,1.48926c0.91146,0.99284 1.36719,2.22168 1.36719,3.68652c0,1.46484 -0.45573,2.67741 -1.36719,3.6377c-0.91146,0.96029 -2.24609,1.44043 -4.00391,1.44043c-1.75781,0 -3.08431,-0.48014 -3.97949,-1.44043c-0.89518,-0.96029 -1.34277,-2.17285 -1.34277,-3.6377z" fill="#ff0000" stroke="none" stroke-width="1"/><path d="M226.5,212v-134h90v134z" fill="none" stroke="#000000" stroke-width="0"/></g></g></svg>