<svg version="1.1" xmlns="http://www.w3.org/2000/svg" xmlns:xlink="http://www.w3.org/1999/xlink" width="90" height="134" viewBox="0,0,90,134"><g transform="translate(-226.5,-78)"><g data-paper-data="{&quot;isPaintingLayer&quot;:true}" fill-rule="nonzero" stroke-linecap="butt" stroke-linejoin="miter" stroke-miterlimit="10" stroke-dasharray="" stroke-dashoffset="0" style="mix-blend-mode: normal"><path d="M300.74219,144.59961v26.07422c-2.40885,3.45052 -5.76986,6.03027 -10.08301,7.73926c-4.31315,1.70898 -9.33431,2.56348 -15.06348,2.56348c-5.79427,0 -10.9375,-1.35905 -15.42969,-4.07715c-4.49219,-2.7181 -7.96712,-6.58366 -10.4248,-11.59668c-2.45768,-5.01302 -3.71908,-10.82357 -3.78418,-17.43164v-6.20117c0,-10.70964 2.49837,-19.01042 7.49512,-24.90234c4.99674,-5.89193 12.01986,-8.83789 21.06934,-8.83789c7.42188,0 13.39518,1.89616 17.91992,5.68848c4.52474,3.79232 7.29167,9.17155 8.30078,16.1377h-9.375c-1.75781,-9.40755 -7.35677,-14.11133 -16.79687,-14.11133c-6.28255,0 -11.04329,2.2054 -14.28223,6.61621c-3.23893,4.41081 -4.87467,10.79915 -4.90723,19.16504v5.81055c0,7.97526 1.82292,14.31478 5.46875,19.01855c3.64583,4.70378 8.57747,7.05566 14.79492,7.05566c3.51563,0 6.5918,-0.39062 9.22852,-1.17187c2.63672,-0.78125 4.81771,-2.09961 6.54297,-3.95508v-15.9668h-16.45508v-7.61719z" fill="#ff0000" stroke="none" stroke-width="1"/><path d="M226.5,212v-134h90v134z" fill="none" stroke="#000000" stroke-width="0"/></g></g></svg>