<svg version="1.1" xmlns="http://www.w3.org/2000/svg" xmlns:xlink="http://www.w3.org/1999/xlink" width="90" height="134" viewBox="0,0,90,134"><g transform="translate(-226.5,-78)"><g data-paper-data="{&quot;isPaintingLayer&quot;:true}" fill-rule="nonzero" stroke-linecap="butt" stroke-linejoin="miter" stroke-miterlimit="10" stroke-dasharray="" stroke-dashoffset="0" style="mix-blend-mode: normal"><path d="M277.59766,165.98633c0,-2.44141 -0.9196,-4.33757 -2.75879,-5.68848c-1.83919,-1.35091 -5.04557,-2.51465 -9.61914,-3.49121c-4.57357,-0.97656 -8.20312,-2.14844 -10.88867,-3.51562c-2.68555,-1.36719 -4.67122,-2.99479 -5.95703,-4.88281c-1.28581,-1.88802 -1.92871,-4.13411 -1.92871,-6.73828c0,-4.32943 1.83105,-7.99154 5.49316,-10.98633c3.66211,-2.99479 8.34147,-4.49219 14.03809,-4.49219c5.98958,0 10.84798,1.54622 14.5752,4.63867c3.72721,3.09245 5.59082,7.04753 5.59082,11.86523h-9.08203c0,-2.47396 -1.0498,-4.60612 -3.14941,-6.39648c-2.09961,-1.79036 -4.74447,-2.68555 -7.93457,-2.68555c-3.28776,0 -5.85937,0.71615 -7.71484,2.14844c-1.85547,1.43229 -2.7832,3.30404 -2.7832,5.61523c0,2.18099 0.86263,3.82487 2.58789,4.93164c1.72526,1.10677 4.84212,2.16471 9.35059,3.17383c4.50846,1.00911 8.16243,2.21354 10.96191,3.61328c2.79948,1.39974 4.87467,3.08431 6.22559,5.05371c1.35091,1.9694 2.02637,4.37012 2.02637,7.20215c0,4.72005 -1.88802,8.50423 -5.66406,11.35254c-3.77604,2.84831 -8.67513,4.27246 -14.69727,4.27246c-4.23177,0 -7.97526,-0.7487 -11.23047,-2.24609c-3.25521,-1.4974 -5.80241,-3.58887 -7.6416,-6.27441c-1.83919,-2.68555 -2.75879,-5.59082 -2.75879,-8.71582h9.0332c0.16276,3.02734 1.37533,5.42806 3.6377,7.20215c2.26237,1.77409 5.24902,2.66113 8.95996,2.66113c3.41797,0 6.16048,-0.69173 8.22754,-2.0752c2.06706,-1.38346 3.10059,-3.23079 3.10059,-5.54199z" fill="#ff0000" stroke="none" stroke-width="1"/><path d="M226.5,212v-134h90v134z" fill="none" stroke="#000000" stroke-width="0"/></g></g></svg>