<svg version="1.1" xmlns="http://www.w3.org/2000/svg" xmlns:xlink="http://www.w3.org/1999/xlink" width="90" height="134" viewBox="0,0,90,134"><g transform="translate(-226.5,-78)"><g data-paper-data="{&quot;isPaintingLayer&quot;:true}" fill-rule="nonzero" stroke-linecap="butt" stroke-linejoin="miter" stroke-miterlimit="10" stroke-dasharray="" stroke-dashoffset="0" style="mix-blend-mode: normal"><path d="M291.46484,154.16992c0,8.04036 -1.83919,14.51823 -5.51758,19.43359c-3.67839,4.91536 -8.65885,7.37305 -14.94141,7.37305c-6.41276,0 -11.45833,-2.03451 -15.13672,-6.10352v25.43945h-9.0332v-73.14453h8.25195l0.43945,5.85938c3.67839,-4.55729 8.78906,-6.83594 15.33203,-6.83594c6.34766,0 11.36882,2.39258 15.06348,7.17773c3.69466,4.78516 5.54199,11.44206 5.54199,19.9707zM282.43164,153.14453c0,-5.95703 -1.26953,-10.66081 -3.80859,-14.11133c-2.53906,-3.45052 -6.02214,-5.17578 -10.44922,-5.17578c-5.46875,0 -9.57031,2.42513 -12.30469,7.27539v25.24414c2.70182,4.81771 6.83594,7.22656 12.40234,7.22656c4.32943,0 7.77181,-1.71712 10.32715,-5.15137c2.55534,-3.43424 3.83301,-8.53678 3.83301,-15.30762z" fill="#ff0000" stroke="none" stroke-width="1"/><path d="M226.5,212v-134h90v134z" fill="none" stroke="#000000" stroke-width="0"/></g></g></svg>