<svg version="1.1" xmlns="http://www.w3.org/2000/svg" xmlns:xlink="http://www.w3.org/1999/xlink" width="90" height="134" viewBox="0,0,90,134"><g transform="translate(-226.5,-78)"><g data-paper-data="{&quot;isPaintingLayer&quot;:true}" fill-rule="nonzero" stroke-linecap="butt" stroke-linejoin="miter" stroke-miterlimit="10" stroke-dasharray="" stroke-dashoffset="0" style="mix-blend-mode: normal"><path d="M248.25195,180v-71.09375h23.24219c7.71484,0 13.51725,1.59505 17.40723,4.78516c3.88997,3.1901 5.83496,7.91016 5.83496,14.16016c0,3.32031 -0.94401,6.25814 -2.83203,8.81348c-1.88802,2.55534 -4.45964,4.53288 -7.71484,5.93262c3.84115,1.07422 6.87663,3.11686 9.10645,6.12793c2.22982,3.01107 3.34473,6.59993 3.34473,10.7666c0,6.38021 -2.06706,11.39323 -6.20117,15.03906c-4.13411,3.64583 -9.97721,5.46875 -17.5293,5.46875zM257.62695,146.74805v25.58594h15.47852c4.36198,0 7.80436,-1.13118 10.32715,-3.39355c2.52279,-2.26237 3.78418,-5.37923 3.78418,-9.35059c0,-8.5612 -4.65495,-12.8418 -13.96484,-12.8418zM257.62695,116.62109v22.60742h14.16016c4.10156,0 7.38118,-1.02539 9.83887,-3.07617c2.45768,-2.05078 3.68652,-4.83398 3.68652,-8.34961c0,-3.90625 -1.13932,-6.74642 -3.41797,-8.52051c-2.27865,-1.77409 -5.74544,-2.66113 -10.40039,-2.66113z" fill="#ff0000" stroke="none" stroke-width="1"/><path d="M226.5,212v-134h90v134z" fill="none" stroke="#000000" stroke-width="0"/></g></g></svg>