<svg version="1.1" xmlns="http://www.w3.org/2000/svg" xmlns:xlink="http://www.w3.org/1999/xlink" width="90" height="134" viewBox="0,0,90,134"><g transform="translate(-226.5,-78)"><g data-paper-data="{&quot;isPaintingLayer&quot;:true}" fill-rule="nonzero" stroke-linecap="butt" stroke-linejoin="miter" stroke-miterlimit="10" stroke-dasharray="" stroke-dashoffset="0" style="mix-blend-mode: normal"><path d="M302.93945,146.74805c0,6.96615 -1.17187,13.04525 -3.51562,18.2373c-2.34375,5.19206 -5.66406,9.15527 -9.96094,11.88965c-4.29687,2.73438 -9.3099,4.10156 -15.03906,4.10156c-5.59896,0 -10.56315,-1.37533 -14.89258,-4.12598c-4.32943,-2.75065 -7.69043,-6.67318 -10.08301,-11.76758c-2.39258,-5.0944 -3.62142,-10.99447 -3.68652,-17.7002v-5.12695c0,-6.83594 1.18815,-12.87435 3.56445,-18.11523c2.3763,-5.24089 5.7373,-9.25293 10.08301,-12.03613c4.3457,-2.7832 9.31803,-4.1748 14.91699,-4.1748c5.69661,0 10.71777,1.37533 15.06348,4.12598c4.3457,2.75065 7.69043,6.73828 10.03418,11.96289c2.34375,5.22461 3.51563,11.30371 3.51563,18.2373zM293.61328,142.1582c0,-8.43099 -1.69271,-14.90072 -5.07812,-19.40918c-3.38542,-4.50846 -8.12174,-6.7627 -14.20898,-6.7627c-5.92448,0 -10.58757,2.25423 -13.98926,6.7627c-3.40169,4.50846 -5.15137,10.7666 -5.24902,18.77441v5.22461c0,8.17057 1.71712,14.59147 5.15137,19.2627c3.43424,4.67122 8.16243,7.00684 14.18457,7.00684c6.05469,0 10.74219,-2.2054 14.0625,-6.61621c3.32031,-4.41081 5.0293,-10.73405 5.12695,-18.96973z" fill="#ff0000" stroke="none" stroke-width="1"/><path d="M226.5,212v-134h90v134z" fill="none" stroke="#000000" stroke-width="0"/></g></g></svg>