<svg version="1.1" xmlns="http://www.w3.org/2000/svg" xmlns:xlink="http://www.w3.org/1999/xlink" width="14.13403" height="39.113" viewBox="0,0,14.13403,39.113"><defs><linearGradient x1="313.48485" y1="213.40909" x2="313.48485" y2="264.31818" gradientUnits="userSpaceOnUse" id="color-1"><stop offset="0" stop-color="#3d8613"/><stop offset="1" stop-color="#5ecb1e"/></linearGradient><linearGradient x1="238.60905" y1="163.6073" x2="238.60905" y2="202.7203" gradientUnits="userSpaceOnUse" id="color-2"><stop offset="0" stop-color="#387c11"/><stop offset="1" stop-color="#8bc61c"/></linearGradient></defs><g transform="translate(-231.54203,-163.6073)"><g data-paper-data="{&quot;isPaintingLayer&quot;:true}" fill-rule="nonzero" stroke="none" stroke-linecap="butt" stroke-linejoin="miter" stroke-miterlimit="10" stroke-dasharray="" stroke-dashoffset="0" style="mix-blend-mode: normal"><path d="" fill="url(#color-1)" stroke-width="0"/><path d="M236.00475,202.54398c-0.70382,0.27279 -1.67067,0.24512 -2.52161,-1.19342c-0.08636,-0.146 -0.16198,-0.29038 -0.22777,-0.43288c-0.25622,-0.14113 -0.52194,-0.35821 -0.79319,-0.67265c-1.89814,-2.20036 -0.27116,-4.76745 -0.27116,-4.76745c1.5641,-2.465 3.75828,-5.29024 4.53346,-8.51992c1.22129,-5.08839 1.02077,-11.14713 1.02037,-16.42602l-0.18468,-3.247c-0.00627,-0.09763 -0.00947,-0.19645 -0.00947,-0.29628c0,-1.86731 1.11929,-3.38106 2.5,-3.38106c1.23863,0 2.26687,1.21823 2.46538,2.81708l0.55569,4.00814c1.84088,4.8905 1.91151,12.13383 2.34789,17.50468c0.11726,1.44321 0.42141,7.20031 0.14109,8.4369c-0.42092,1.8568 -0.99521,3.85936 -2.11431,5.07636c-0.85554,0.93039 -5.43089,1.60533 -7.44168,1.09352z" fill="url(#color-2)" stroke-width="0.5"/></g></g></svg>