<svg version="1.1" xmlns="http://www.w3.org/2000/svg" xmlns:xlink="http://www.w3.org/1999/xlink" width="90" height="134" viewBox="0,0,90,134"><g transform="translate(-226.5,-78)"><g data-paper-data="{&quot;isPaintingLayer&quot;:true}" fill-rule="nonzero" stroke-linecap="butt" stroke-linejoin="miter" stroke-miterlimit="10" stroke-dasharray="" stroke-dashoffset="0" style="mix-blend-mode: normal"><path d="M256.65039,127.16797v52.83203h-9.0332v-52.83203zM246.88477,113.1543c0,-1.46484 0.44759,-2.70182 1.34277,-3.71094c0.89518,-1.00911 2.22168,-1.51367 3.97949,-1.51367c1.75781,0 3.09245,0.50456 4.00391,1.51367c0.91146,1.00911 1.36719,2.24609 1.36719,3.71094c0,1.46484 -0.45573,2.68555 -1.36719,3.66211c-0.91146,0.97656 -2.24609,1.46484 -4.00391,1.46484c-1.75781,0 -3.08431,-0.48828 -3.97949,-1.46484c-0.89518,-0.97656 -1.34277,-2.19727 -1.34277,-3.66211z" fill="#ff0000" stroke="none" stroke-width="1"/><path d="M226.5,212v-134h90v134z" fill="none" stroke="#000000" stroke-width="0"/></g></g></svg>