<svg version="1.1" xmlns="http://www.w3.org/2000/svg" xmlns:xlink="http://www.w3.org/1999/xlink" width="90" height="134" viewBox="0,0,90,134"><g transform="translate(-226.5,-78)"><g data-paper-data="{&quot;isPaintingLayer&quot;:true}" fill-rule="nonzero" stroke-linecap="butt" stroke-linejoin="miter" stroke-miterlimit="10" stroke-dasharray="" stroke-dashoffset="0" style="mix-blend-mode: normal"><path d="M290.48828,149.67773c0,10.57943 -1.80664,18.44076 -5.41992,23.58398c-3.61328,5.14323 -9.26107,7.71484 -16.94336,7.71484c-7.58464,0 -13.19987,-2.51465 -16.8457,-7.54395c-3.64583,-5.0293 -5.53385,-12.54069 -5.66406,-22.53418v-12.06055c0,-10.44922 1.80664,-18.21289 5.41992,-23.29102c3.61328,-5.07812 9.27734,-7.61719 16.99219,-7.61719c7.64974,0 13.28125,2.44954 16.89453,7.34863c3.61328,4.89909 5.46875,12.45931 5.56641,22.68066zM281.45508,137.32422c0,-7.64974 -1.07422,-13.22428 -3.22266,-16.72363c-2.14844,-3.49935 -5.55013,-5.24902 -10.20508,-5.24902c-4.6224,0 -7.99154,1.74154 -10.10742,5.22461c-2.11589,3.48307 -3.20638,8.83789 -3.27148,16.06445v14.45313c0,7.68229 1.11491,13.35449 3.34473,17.0166c2.22982,3.66211 5.6071,5.49316 10.13184,5.49316c4.45964,0 7.77181,-1.72526 9.93652,-5.17578c2.16471,-3.45052 3.2959,-8.88672 3.39355,-16.30859z" fill="#ff0000" stroke="none" stroke-width="1"/><path d="M226.5,212v-134h90v134z" fill="none" stroke="#000000" stroke-width="0"/></g></g></svg>