<svg version="1.1" xmlns="http://www.w3.org/2000/svg" xmlns:xlink="http://www.w3.org/1999/xlink" width="90" height="134" viewBox="0,0,90,134"><g transform="translate(-226.5,-78)"><g data-paper-data="{&quot;isPaintingLayer&quot;:true}" fill-rule="nonzero" stroke-linecap="butt" stroke-linejoin="miter" stroke-miterlimit="10" stroke-dasharray="" stroke-dashoffset="0" style="mix-blend-mode: normal"><path d="M302.54883,146.74805c0,6.86849 -1.09049,12.78483 -3.27148,17.74902c-2.18099,4.96419 -5.24089,8.84603 -9.17969,11.64551l12.69531,9.96094l-6.39648,5.9082l-14.99023,-11.91406c-2.34375,0.58594 -4.81771,0.87891 -7.42187,0.87891c-5.59896,0 -10.56315,-1.37533 -14.89258,-4.12598c-4.32943,-2.75065 -7.69043,-6.67318 -10.08301,-11.76758c-2.39258,-5.0944 -3.62142,-10.99447 -3.68652,-17.7002v-5.12695c0,-6.83594 1.18815,-12.87435 3.56445,-18.11523c2.3763,-5.24089 5.7373,-9.25293 10.08301,-12.03613c4.3457,-2.7832 9.31803,-4.1748 14.91699,-4.1748c5.72917,0 10.7666,1.38346 15.1123,4.15039c4.3457,2.76693 7.69043,6.74642 10.03418,11.93848c2.34375,5.19206 3.51563,11.25488 3.51563,18.18848zM293.17383,142.1582c0,-8.36589 -1.66829,-14.81934 -5.00488,-19.36035c-3.33659,-4.54102 -8.09733,-6.81152 -14.28223,-6.81152c-5.89193,0 -10.53874,2.25423 -13.94043,6.7627c-3.40169,4.50846 -5.15137,10.7666 -5.24902,18.77441v5.22461c0,8.13802 1.70085,14.55078 5.10254,19.23828c3.40169,4.6875 8.12988,7.03125 14.18457,7.03125c6.05469,0 10.74219,-2.2054 14.0625,-6.61621c3.32031,-4.41081 5.0293,-10.73405 5.12695,-18.96973z" fill="#ff0000" stroke="none" stroke-width="1"/><path d="M226.5,212v-134h90v134z" fill="none" stroke="#000000" stroke-width="0"/></g></g></svg>