<svg version="1.1" xmlns="http://www.w3.org/2000/svg" xmlns:xlink="http://www.w3.org/1999/xlink" width="24.15256" height="69.9296" viewBox="0,0,24.15256,69.9296"><defs><linearGradient x1="313.48485" y1="213.40909" x2="313.48485" y2="264.31818" gradientUnits="userSpaceOnUse" id="color-1"><stop offset="0" stop-color="#3d8613"/><stop offset="1" stop-color="#5ecb1e"/></linearGradient><linearGradient x1="239.94568" y1="157.58843" x2="239.94568" y2="208.4859" gradientUnits="userSpaceOnUse" id="color-2"><stop offset="0" stop-color="#387c11"/><stop offset="1" stop-color="#8bc61c"/></linearGradient></defs><g transform="translate(-226.81655,-138.55629)"><g data-paper-data="{&quot;isPaintingLayer&quot;:true}" fill-rule="nonzero" stroke="none" stroke-linecap="butt" stroke-linejoin="miter" stroke-miterlimit="10" stroke-dasharray="" stroke-dashoffset="0" style="mix-blend-mode: normal"><path d="" fill="url(#color-1)" stroke-width="0"/><path d="M237.01787,168.29816c-0.29475,-3.13848 -2.10462,-8.776 0.83014,-10.43216c2.89308,-1.63263 3.56037,4.33869 3.92821,7.41877c1.21049,10.13607 2.78047,23.45175 1.34771,33.58129c-0.0445,0.31464 -0.21631,1.01055 -0.47295,1.89163c0.00861,0.14292 0.01302,0.28794 0.01302,0.4347c0,1.73451 -0.61631,3.22533 -1.49841,3.87905c-1.54192,3.78662 -3.42695,6.26538 -3.42695,-2.84841c-0.04875,-0.32991 -0.07465,-0.67515 -0.07465,-1.03064c0,-0.36939 0.02795,-0.72772 0.08047,-1.06928c0.77969,-10.88575 0.29448,-20.95246 -0.7266,-31.82498z" fill="url(#color-2)" stroke-width="0.5"/><path d="M240.84197,138.64104c0.09258,0 0.18399,0.00503 0.27396,0.01484l0.07422,-0.01012l0.02981,0.02367c0.06499,0.00986 0.12916,0.02222 0.19241,0.03698l0.2359,-0.03629l0.10337,0.00957l0.09866,-0.03229l1.18644,-0.08475l0.08973,0.01574l0.08838,-0.0221h0.76271l0.22046,0.05511l0.22676,-0.01479l0.9322,0.16949l0.16395,0.07417l0.17941,0.0138l0.25424,0.08475l0.06342,0.04036l0.07449,0.01016l0.42373,0.16949l0.1641,0.11852l0.19366,0.05894l0.3414,0.20484l0.08362,0.04181l0.38893,0.33337l0.41359,0.30224l0.15244,0.18293l0.02332,0.01999l0.00048,0.00857l0.24749,0.29699l0.06554,0.13577l0.03591,0.03591l0.12202,0.20336l0.06468,0.07545l0.15469,0.14676l0.59322,0.9322l0.05391,0.16172l0.10684,0.13283l0.50847,1.10169l0.0441,0.2325l0.11136,0.20881l0.07464,0.29857l0.15805,0.55317l0.00515,0.15456l0.06045,0.14234l0.25424,1.61017l-0.0175,0.19753l0.04809,0.19238v0.16949l-0.01823,0.07293l0.01392,0.07387l-0.08475,1.44068l-0.0405,0.12921l0.0108,0.13498l-0.25424,1.52542l-0.07117,0.16368l-0.01086,0.17815l-0.50847,1.61017l-0.04989,0.08121l-0.01288,0.09444l-0.33898,0.84746l-0.04205,0.05823l-0.01368,0.07051l-0.59322,1.27119l-0.02186,0.02695l-0.00753,0.03387l-0.67797,1.35593l-0.17308,0.20193l-0.11081,0.24177l-0.67797,0.84746l-0.11198,0.08532l-0.07243,0.12071l-0.25424,0.25424l-0.25204,0.15122l-0.20549,0.21016l-1.10169,0.67797l-0.29785,0.09432l-0.2667,0.16273l-1.35593,0.42373l-0.2342,0.01358l-0.21938,0.0831l-1.44068,0.16949l-0.14767,-0.01899l-0.14444,0.03611h-1.27119l-0.06891,-0.01723l-0.06976,0.01338l-1.52542,-0.08475l-0.1137,-0.03523l-0.11848,0.01142l-1.69492,-0.25424l-0.01931,-0.00802l-0.02084,0.00167l-0.50847,-0.08475l-0.07731,-0.03361l-0.08429,0.00117l-1.44068,-0.33898l-0.23027,-0.11874l-0.25434,-0.04935l-1.27119,-0.59322l-0.02695,-0.02186l-0.03387,-0.00753l-0.16949,-0.08475l-0.05393,-0.04623l-0.06838,-0.01923l-1.18644,-0.67797l-0.24109,-0.23104l-0.28633,-0.1718l-1.44068,-1.44068l-0.12811,-0.21352l-0.18425,-0.1675l-0.67797,-1.01695l-0.05313,-0.14877l-0.10281,-0.11994l-0.25424,-0.50847l-0.01909,-0.0859l-0.05254,-0.07059l-0.42373,-1.01695l-0.07326,-0.48535l-0.11905,-0.47619v-1.18644l0.02573,-0.10292l-0.01709,-0.1047l0.08475,-1.01695l0.10736,-0.31538l0.03452,-0.33136l0.33898,-0.9322l0.08173,-0.12108l0.03169,-0.1426l0.33898,-0.67797l0.08541,-0.09965l0.0415,-0.12451l0.59322,-0.9322l0.19974,-0.18949l0.14165,-0.23609l0.16949,-0.16949l0.1543,-0.09258l0.11347,-0.13965l0.23401,-0.17551l1.09029,-1.01241l0.20984,-0.11557l0.16629,-0.17245l1.23268,-0.77043l0.31024,-0.24819l0.15496,-0.07102l0.12054,-0.12054l0.3874,-0.23244l0.1985,-0.12844l-0.02771,-0.40178l0.86672,-0.95339l0.25424,-0.16949l0.14877,-0.05313l0.11994,-0.10281l0.67797,-0.33898l0.22849,-0.05078l0.20274,-0.11697l0.59322,-0.16949l0.07624,-0.00254l0.06823,-0.03412l0.76271,-0.16949l0.1625,0.00428l0.15349,-0.05354l1.66488,-0.15135l0.18584,-0.05718l0.27586,-0.11034c0.30123,-0.12865 0.63286,-0.19986 0.98112,-0.19986zM240.05176,144.03896l-0.0802,0.0043l-0.21817,0.11636l-0.13547,0.03387l-1.16374,0.50914l-0.11397,0.01926l-0.09751,0.06205l-0.08569,0.02856l-0.90368,0.45184l-1.32443,0.85698l-0.04114,0.01406l-0.03075,0.03075l-0.27954,0.16772l-0.29242,0.23394l-0.13424,0.06153l-0.1025,0.1063l-1.15416,0.72135l-1.01208,0.93979l-0.11694,0.0644l-0.08419,0.10361l-0.09237,0.06927l-0.33094,0.52004l-0.21702,0.43404l-0.17571,0.48321l-0.04837,0.58047v0.58245l0.1983,0.47593l0.14612,0.29225l0.45431,0.68147l1.0289,1.0289l0.83551,0.47743l0.07721,0.03861l1.00694,0.4699l1.10944,0.26104l0.40709,0.06785l1.55928,0.23389l1.3395,0.07442h1.05524l1.06383,-0.12516l0.8353,-0.26103l0.56533,-0.3479l0.39498,-0.49372l0.54442,-1.08883l0.54926,-1.17699l0.27826,-0.69565l0.42731,-1.35315l0.20339,-1.22031l0.06832,-1.1615l-0.1956,-1.23879l-0.12765,-0.44677l-0.00142,-0.04274l-0.02012,-0.03773l-0.02776,-0.11102l-0.33954,-0.73567l-0.50294,-0.79034l-0.01443,-0.04329l-0.05121,-0.03742l-0.12434,-0.14921l-0.08652,-0.05191l-0.16953,-0.06781l-0.01599,-0.00533l-0.53561,-0.09738h-0.44811l-0.99602,0.07114l-1.83758,0.2827z" fill="#b4b1a3" stroke-width="0.5"/></g></g></svg>