<svg version="1.1" xmlns="http://www.w3.org/2000/svg" xmlns:xlink="http://www.w3.org/1999/xlink" width="90" height="134" viewBox="0,0,90,134"><g transform="translate(-226.5,-78)"><g data-paper-data="{&quot;isPaintingLayer&quot;:true}" fill-rule="nonzero" stroke-linecap="butt" stroke-linejoin="miter" stroke-miterlimit="10" stroke-dasharray="" stroke-dashoffset="0" style="mix-blend-mode: normal"><path d="M247.12891,127.16797h9.0332v58.93555c0,10.15625 -4.60612,15.23438 -13.81836,15.23438c-1.98568,0 -3.82487,-0.29297 -5.51758,-0.87891v-7.22656c1.04167,0.26042 2.40885,0.39063 4.10156,0.39063c2.01823,0 3.55632,-0.54525 4.61426,-1.63574c1.05794,-1.09049 1.58691,-2.98665 1.58691,-5.68848zM246.20117,113.1543c0,-1.43229 0.44759,-2.66113 1.34277,-3.68652c0.89518,-1.02539 2.2054,-1.53809 3.93066,-1.53809c1.75781,0 3.09245,0.50456 4.00391,1.51367c0.91146,1.00911 1.36719,2.24609 1.36719,3.71094c0,1.46484 -0.45573,2.68555 -1.36719,3.66211c-0.91146,0.97656 -2.24609,1.46484 -4.00391,1.46484c-1.75781,0 -3.07617,-0.48828 -3.95508,-1.46484c-0.87891,-0.97656 -1.31836,-2.19727 -1.31836,-3.66211z" fill="#ff0000" stroke="none" stroke-width="1"/><path d="M226.5,212v-134h90v134z" fill="none" stroke="#000000" stroke-width="0"/></g></g></svg>