<svg version="1.1" xmlns="http://www.w3.org/2000/svg" xmlns:xlink="http://www.w3.org/1999/xlink" width="90" height="134" viewBox="0,0,90,134"><g transform="translate(-226.5,-78)"><g data-paper-data="{&quot;isPaintingLayer&quot;:true}" fill-rule="nonzero" stroke-linecap="butt" stroke-linejoin="miter" stroke-miterlimit="10" stroke-dasharray="" stroke-dashoffset="0" style="mix-blend-mode: normal"><path d="M278.03711,108.90625h9.42383v50.3418c0,6.80339 -2.04264,12.12565 -6.12793,15.9668c-4.08529,3.84115 -9.52962,5.76172 -16.33301,5.76172c-7.0638,0 -12.5651,-1.80664 -16.50391,-5.41992c-3.9388,-3.61328 -5.9082,-8.67513 -5.9082,-15.18555h9.375c0,4.06901 1.11491,7.24284 3.34473,9.52148c2.22982,2.27865 5.46061,3.41797 9.69238,3.41797c3.8737,0 7.00684,-1.2207 9.39941,-3.66211c2.39258,-2.44141 3.60514,-5.85937 3.6377,-10.25391z" fill="#ff0000" stroke="none" stroke-width="1"/><path d="M226.5,212v-134h90v134z" fill="none" stroke="#000000" stroke-width="0"/></g></g></svg>