<svg version="1.1" xmlns="http://www.w3.org/2000/svg" xmlns:xlink="http://www.w3.org/1999/xlink" width="90" height="134" viewBox="0,0,90,134"><g transform="translate(-226.5,-78)"><g data-paper-data="{&quot;isPaintingLayer&quot;:true}" fill-rule="nonzero" stroke-linecap="butt" stroke-linejoin="miter" stroke-miterlimit="10" stroke-dasharray="" stroke-dashoffset="0" style="mix-blend-mode: normal"><path d="M289.75586,180l-15.42969,-28.75977h-16.69922v28.75977h-9.42383v-71.09375h23.53516c8.00781,0 14.16829,1.82292 18.48145,5.46875c4.31315,3.64583 6.46973,8.95182 6.46973,15.91797c0,4.42708 -1.19629,8.28451 -3.58887,11.57227c-2.39258,3.28776 -5.72103,5.74544 -9.98535,7.37305l16.69922,30.17578v0.58594zM257.62695,116.62109v26.95313h14.4043c4.65495,0 8.35775,-1.20443 11.1084,-3.61328c2.75065,-2.40885 4.12598,-5.63151 4.12598,-9.66797c0,-4.39453 -1.31022,-7.76367 -3.93066,-10.10742c-2.62044,-2.34375 -6.40462,-3.5319 -11.35254,-3.56445z" fill="#ff0000" stroke="none" stroke-width="1"/><path d="M226.5,212v-134h90v134z" fill="none" stroke="#000000" stroke-width="0"/></g></g></svg>