<svg version="1.1" xmlns="http://www.w3.org/2000/svg" xmlns:xlink="http://www.w3.org/1999/xlink" width="90" height="134" viewBox="0,0,90,134"><g transform="translate(-226.5,-78)"><g data-paper-data="{&quot;isPaintingLayer&quot;:true}" fill-rule="nonzero" stroke-linecap="butt" stroke-linejoin="miter" stroke-miterlimit="10" stroke-dasharray="" stroke-dashoffset="0" style="mix-blend-mode: normal"><path d="M281.35742,108.85742v7.66602h-1.66016c-7.03125,0.13021 -12.63021,2.21354 -16.79687,6.25c-4.16667,4.03646 -6.57552,9.7168 -7.22656,17.04102c3.74349,-4.29687 8.85417,-6.44531 15.33203,-6.44531c6.1849,0 11.12467,2.18099 14.81934,6.54297c3.69466,4.36198 5.54199,9.99349 5.54199,16.89453c0,7.32422 -1.99382,13.18359 -5.98145,17.57813c-3.98763,4.39453 -9.33431,6.5918 -16.04004,6.5918c-6.80339,0 -12.32096,-2.6123 -16.55273,-7.83691c-4.23177,-5.22461 -6.34766,-11.95475 -6.34766,-20.19043v-3.4668c0,-13.08594 2.79134,-23.08757 8.37402,-30.00488c5.58268,-6.91732 13.8916,-10.45736 24.92676,-10.62012zM269.49219,140.88867c-3.09245,0 -5.94076,0.92773 -8.54492,2.7832c-2.60417,1.85547 -4.41081,4.18294 -5.41992,6.98242v3.32031c0,5.85938 1.31836,10.57943 3.95508,14.16016c2.63672,3.58073 5.92448,5.37109 9.86328,5.37109c4.06901,0 7.26725,-1.4974 9.59473,-4.49219c2.32747,-2.99479 3.49121,-6.91732 3.49121,-11.76758c0,-4.88281 -1.18001,-8.82975 -3.54004,-11.84082c-2.36003,-3.01107 -5.49316,-4.5166 -9.39941,-4.5166z" fill="#ff0000" stroke="none" stroke-width="1"/><path d="M226.5,212v-134h90v134z" fill="none" stroke="#000000" stroke-width="0"/></g></g></svg>