<svg version="1.1" xmlns="http://www.w3.org/2000/svg" xmlns:xlink="http://www.w3.org/1999/xlink" width="90" height="134" viewBox="0,0,90,134"><g transform="translate(-226.5,-78)"><g data-paper-data="{&quot;isPaintingLayer&quot;:true}" fill-rule="nonzero" stroke-linecap="butt" stroke-linejoin="miter" stroke-miterlimit="10" stroke-dasharray="" stroke-dashoffset="0" style="mix-blend-mode: normal"><path d="M257.62695,152.16797v27.83203h-9.375v-71.09375h26.2207c7.77995,0 13.87533,1.98568 18.28613,5.95703c4.41081,3.97135 6.61621,9.22852 6.61621,15.77148c0,6.90104 -2.15658,12.21517 -6.46973,15.94238c-4.31315,3.72721 -10.48991,5.59082 -18.53027,5.59082zM257.62695,116.62109v27.88086h16.8457c5.01302,0 8.85417,-1.18001 11.52344,-3.54004c2.66927,-2.36003 4.00391,-5.76986 4.00391,-10.22949c0,-4.23177 -1.33464,-7.61719 -4.00391,-10.15625c-2.66927,-2.53906 -6.33138,-3.85742 -10.98633,-3.95508z" fill="#ff0000" stroke="none" stroke-width="1"/><path d="M226.5,212v-134h90v134z" fill="none" stroke="#000000" stroke-width="0"/></g></g></svg>